<?xml version="1.0" standalone="no"?>
<!DOCTYPE svg PUBLIC "-//W3C//DTD SVG 1.1//EN" "http://www.w3.org/Graphics/SVG/1.1/DTD/svg11.dtd" >
<svg xmlns="http://www.w3.org/2000/svg">
<metadata></metadata>
<defs>
<font id="pf_square_sans_probold" horiz-adv-x="1283" >
<font-face units-per-em="2048" ascent="1536" descent="-512" />
<missing-glyph horiz-adv-x="632" />
<glyph unicode="&#xfb01;" horiz-adv-x="1274" d="M64 852v161q0 47 47 47h94v120q0 88 23.5 158t76 120t137 75.5t205.5 25.5q34 0 79.5 -2t91.5 -9t90 -17.5t79 -24.5q37 -17 39 -35t-2 -45l-24 -136q-9 -30 -30 -30q-10 0 -29.5 1t-37.5 5q-51 4 -97.5 8t-87.5 4q-86 0 -136.5 -31.5t-50.5 -113.5v-73h575 q30 0 37.5 -15t7.5 -32v-968q0 -17 -8 -31t-37 -14h-236q-28 0 -37.5 12t-9.5 33v759h-294v-759q0 -17 -8 -31t-37 -14h-232q-30 0 -39.5 12t-9.5 33v759h-92q-47 0 -47 48z" />
<glyph unicode="&#xfb02;" horiz-adv-x="1262" d="M60 854v161q0 48 47 48h93v119q0 88 24 158t76.5 120t136.5 75.5t206 25.5q66 0 157.5 -11t158.5 -36l140 35q31 6 39.5 -5t8.5 -32v-1465q0 -17 -8 -32t-38 -15h-237q-47 0 -47 47v1226q-58 6 -103 7q-86 0 -136.5 -31.5t-50.5 -113.5v-72h163q47 0 47 -48v-161 q0 -50 -47 -50h-165v-757q0 -17 -8 -32t-37 -15h-235q-29 0 -38.5 13t-9.5 34v757h-90q-47 0 -47 50z" />
<glyph horiz-adv-x="0" />
<glyph horiz-adv-x="682" />
<glyph unicode=" "  horiz-adv-x="632" />
<glyph unicode="&#x09;" horiz-adv-x="632" />
<glyph unicode="&#xa0;" horiz-adv-x="632" />
<glyph unicode="!" horiz-adv-x="630" d="M148 135q0 33 8 62t26 49.5t50.5 32t81.5 11.5q103 0 134.5 -42.5t31.5 -112.5q0 -30 -7 -58t-23.5 -50.5t-50.5 -35t-85 -12.5q-56 0 -88.5 13.5t-49 35t-22.5 49.5t-6 58zM164 1381q-2 26 8.5 35.5t34.5 9.5h223q25 0 34.5 -10t9.5 -35l-29 -921q-4 -45 -41 -45h-172 q-24 0 -31.5 11t-7.5 34z" />
<glyph unicode="&#x22;" horiz-adv-x="788" d="M114 1391q0 35 36 35h179q21 0 27.5 -13t6.5 -22l-23 -449q0 -11 -9 -21t-25 -10h-140q-28 0 -28 31zM428 1391q-4 35 36 35h176q25 0 30 -13t5 -22l-21 -449q-2 -11 -10 -21t-24 -10h-140q-31 0 -31 31z" />
<glyph unicode="#" horiz-adv-x="1354" d="M62 499l35 133q6 24 18 31.5t35 7.5h188l38 162h-191q-19 0 -28 7t-3 30l37 132q11 41 54 41h185l83 342q7 24 13.5 32.5t29.5 8.5h166q41 0 31 -43l-84 -340h183l84 342q8 24 13 32.5t30 8.5h168q41 0 29 -41l-86 -342h194q24 0 30 -8.5t0 -32.5l-34 -132 q-6 -18 -16 -27.5t-34 -9.5h-192l-40 -162h194q41 0 29 -41l-37 -131q-6 -21 -15.5 -30t-33.5 -9h-191l-103 -419q-4 -19 -12 -30t-29 -11h-160q-47 0 -38 43l104 417h-183l-104 -419q-4 -19 -11.5 -30t-29.5 -11h-159q-47 0 -38 43l103 417h-194q-19 0 -27.5 8t-0.5 31z M576 671h183l41 162h-185z" />
<glyph unicode="$" d="M127 991q0 181 105.5 286.5t292.5 128.5v178q0 17 8.5 29t32.5 12h161q26 0 32 -14.5t6 -26.5v-176q67 -4 144.5 -16.5t141.5 -39.5q51 -18 58 -37.5t3 -50.5l-24 -113q-11 -43 -30.5 -49t-62.5 -1q-71 11 -152.5 17.5t-177.5 6.5q-187 0 -187 -125q0 -35 9.5 -56t32 -35 t58 -23.5t89.5 -21.5q90 -19 179.5 -43.5t160 -69.5t113.5 -122t43 -199q0 -100 -31 -173.5t-85 -124t-126 -81t-156 -43.5v-176q0 -10 -6 -25.5t-32 -15.5h-161q-24 0 -32.5 12t-8.5 29v168q-78 4 -169 17t-165 43q-51 19 -58.5 39t-1.5 49l27 123q8 37 22.5 43t57.5 0 q39 -4 85.5 -9.5t95.5 -10t98 -7.5t92 -3q109 0 158.5 33.5t49.5 97.5q0 39 -10.5 63.5t-34 41t-60.5 26.5t-90 22q-93 19 -181 45.5t-158 72t-113 119t-43 186.5z" />
<glyph unicode="%" horiz-adv-x="2056" d="M58 991q0 31 4 78t17 98.5t39 103.5t71 92.5t110.5 66t158.5 25.5q137 0 219 -43.5t124 -112.5t54.5 -150.5t12.5 -157.5q0 -64 -10.5 -149t-51.5 -161.5t-123.5 -129t-224.5 -52.5t-221 50.5t-119 125t-50 160.5t-10 156zM331 976q0 -51 4.5 -97t18.5 -81t38.5 -55.5 t65.5 -20.5q86 0 112.5 70t26.5 184q0 123 -24.5 190t-114.5 67q-39 0 -63.5 -19.5t-38.5 -54t-19.5 -82t-5.5 -101.5zM613 -17l593 1494q7 15 13 22t22 7h189q28 0 17 -33l-591 -1497q-11 -26 -33 -25h-189q-32 0 -21 32zM1186 478q0 32 5 79t17.5 99t38.5 103.5t71 92 t110.5 66.5t158.5 26q137 0 219 -44t124 -113t55 -152t13 -157q0 -62 -11 -147.5t-52 -162t-124 -129t-224 -52.5q-142 0 -221.5 50.5t-119.5 124.5t-50 159t-10 157zM1461 464q0 -51 4 -97.5t17.5 -80.5t39 -54.5t65.5 -20.5q86 0 113 70t27 183q0 123 -26 189.5t-114 66.5 q-41 0 -66 -19.5t-38.5 -53.5t-17.5 -81t-4 -102z" />
<glyph unicode="&#x26;" horiz-adv-x="1603" d="M84 390q0 141 83 259.5t231 208.5q-45 71 -66.5 138t-21.5 105q0 74 23.5 137t71 111.5t117 76t162.5 27.5q84 0 151.5 -25.5t115 -69.5t73 -104t25.5 -127q0 -110 -72 -205t-195 -148q33 -47 63.5 -88t62.5 -77.5t68.5 -74t81.5 -78.5q70 82 116.5 185t64.5 217 q8 45 13.5 55t46.5 10h148q41 0 53 -13t10 -63q-4 -79 -26.5 -162t-58.5 -160.5t-78 -144t-81 -111.5q119 -99 248 -175q28 -16 26.5 -30.5t-18.5 -39.5l-77 -125q-15 -19 -30 -26.5t-52 8.5q-33 15 -74.5 40t-84.5 55t-85 61.5t-76 59.5q-103 -64 -222.5 -93.5 t-248.5 -29.5q-101 0 -190 25t-155.5 75.5t-104.5 128.5t-38 187zM383 411q0 -95 60 -142t148 -47q56 -3 119.5 12.5t126.5 51.5q-88 88 -169 185t-128 169q-74 -49 -115.5 -105.5t-41.5 -123.5zM583 1112q0 -54 53 -129q56 32 89.5 65.5t33.5 76.5q0 34 -23.5 57.5 t-64.5 23.5q-43 0 -65.5 -31t-22.5 -63z" />
<glyph unicode="'" horiz-adv-x="489" d="M119 1391q0 35 39 35h175q24 0 29.5 -13t5.5 -22l-24 -449q0 -11 -7.5 -21t-24.5 -10h-140q-30 0 -30 31z" />
<glyph unicode="(" horiz-adv-x="730" d="M107 656q0 127 25.5 246.5t65.5 228t94 204t114 177.5q24 30 40 32.5t44 -15.5l125 -71q29 -14 33 -29.5t-20 -51.5q-90 -151 -139.5 -333.5t-49.5 -387.5q0 -211 50.5 -401.5t138.5 -338.5q21 -37 18 -51.5t-31 -30.5l-123 -70q-30 -17 -46 -15.5t-40 32.5 q-60 79 -115 177t-96 208.5t-64.5 233.5t-23.5 256z" />
<glyph unicode=")" horiz-adv-x="732" d="M97 1428q4 15 30 30l125 71q30 17 46 14.5t40 -31.5q60 -82 113.5 -177.5t94.5 -204t64.5 -228.5t23.5 -246q0 -133 -23.5 -256t-64.5 -233.5t-94.5 -208.5t-113.5 -177q-24 -31 -40.5 -33t-45.5 16l-125 70q-26 15 -29.5 30t16.5 52q91 148 141.5 338.5t50.5 401.5 q0 205 -49.5 387t-142.5 334q-21 36 -17 51z" />
<glyph unicode="*" horiz-adv-x="932" d="M80.5 1160q-4.5 14 11.5 44l35 66q17 33 34 32t46 -14l144 -61l10 152q2 30 12 39.5t46 9.5h86q35 0 48 -12t15 -39l8 -154l153 72q28 12 37.5 11t27.5 -28l43 -65q28 -39 -2 -58l-149 -101l137 -102q31 -19 31 -32t-17 -40l-35 -61q-17 -26 -32 -27.5t-43 10.5l-148 68 l-13 -146q-4 -34 -11 -41.5t-42 -7.5h-100q-31 0 -38 7.5t-12 41.5l-14 146l-142 -62q-19 -10 -37 -11t-32 22l-50 73q-10 17 -7 30.5t30 31.5l125 95l-127 80q-24 17 -28.5 31z" />
<glyph unicode="+" d="M154 622v150q0 45 43 45h302v297q0 45 47 45h194q43 0 42 -45v-297h304q28 0 36.5 -9.5t8.5 -33.5v-152q0 -25 -8.5 -35.5t-36.5 -10.5h-304v-316q0 -28 -9.5 -35.5t-30.5 -7.5h-196q-26 0 -36.5 7.5t-10.5 35.5v316h-302q-43 0 -43 46z" />
<glyph unicode="," horiz-adv-x="511" d="M37.5 -244.5q1.5 12.5 31.5 41.5q39 39 55 81t16 79q0 71 -50 127q-28 30 -30 52t37 49l139 108q33 24 55.5 15t48.5 -33q43 -43 66.5 -99.5t23.5 -106.5q0 -71 -20 -136.5t-54 -119t-76 -95.5t-85 -69q-47 -26 -78 11l-57 56q-24 27 -22.5 39.5z" />
<glyph unicode="-" horiz-adv-x="883" d="M66 607v163q0 43 45 43h671q29 0 37 -9.5t8 -31.5v-165q0 -24 -8 -34.5t-37 -10.5h-671q-45 0 -45 45z" />
<glyph unicode="." horiz-adv-x="496" d="M76 142q0 69 34 115t138 46q53 0 86.5 -12t52.5 -33.5t25.5 -51.5t6.5 -64q0 -31 -6.5 -61t-24.5 -52.5t-52.5 -36t-87.5 -13.5q-56 0 -90.5 13.5t-53 37.5t-23.5 52.5t-5 59.5z" />
<glyph unicode="/" horiz-adv-x="685" d="M17 -88q19 86 49.5 209.5t65 266.5t70.5 296t70 294.5t63.5 265.5t51.5 209q7 37 46 37h199q21 0 30 -13.5t5 -38.5l-364 -1537q-4 -17 -17 -25.5t-28 -8.5h-204q-48 0 -37 45z" />
<glyph unicode="0" d="M64 733q0 47 6 119.5t25 152t56.5 159t101 142t157 102t226.5 39.5q198 0 315.5 -69t179 -173t79 -230t17.5 -242q0 -64 -5 -145t-25.5 -164.5t-59 -163t-104 -142t-162.5 -100t-235 -37.5q-133 0 -228.5 35t-159 95.5t-100.5 138t-54.5 161.5t-23.5 166.5t-6 155.5z M408 714q0 -90 9 -172t34 -142t70 -95.5t115 -35.5q76 0 124 31t75 89t38 141t11 184q0 105 -10 188t-36.5 140t-75 87t-126.5 30q-71 0 -114.5 -34.5t-69.5 -93.5t-35 -141t-9 -176z" />
<glyph unicode="1" d="M219 45v189q0 43 46 43h227v831h-202q-26 0 -39 6t-13 33v105q0 24 7 41.5t34 31.5l189 79q37 17 68.5 21.5t67.5 4.5h172q49 0 49 -49v-1104h250q26 0 34.5 -10.5t8.5 -32.5v-189q0 -24 -7 -34.5t-36 -10.5h-810q-46 0 -46 45z" />
<glyph unicode="2" d="M92 45v152q0 21 6.5 43t28.5 44q80 75 146 137q28 26 56 53t50.5 48.5t39 36.5t20.5 20q4 4 34 31.5t68 63.5t72 68t47 48q52 49 84 102.5t32 116.5q0 78 -42 111t-162 33q-96 0 -197.5 -9t-171.5 -17q-39 -5 -54.5 1.5t-21.5 43.5l-18 121q-4 26 4 48t57 42 q43 17 102 29t118 19t110.5 10.5t82.5 3.5q148 0 251.5 -28t168 -80.5t94.5 -129t30 -173.5q0 -71 -13 -128t-40 -107t-66.5 -97.5t-93.5 -101.5q-39 -37 -73.5 -70t-72 -68.5t-83 -76.5t-102.5 -95l4 -11h519q28 0 35.5 -10.5t7.5 -34.5v-189q0 -24 -8 -34.5t-33 -10.5 h-970q-46 0 -46 45z" />
<glyph unicode="3" d="M90 140l24 118q7 31 20.5 41.5t56.5 6.5q88 -13 179.5 -22t171.5 -13q58 0 110 6.5t89 31t58.5 69.5t21.5 123q0 53 -29 81.5t-97 41.5l-287 51q-38 6 -51 22.5t-13 53.5v82q0 34 4.5 50t21.5 31q64 55 129 113.5t131 113.5q0 2 -1 4t-1 4h-462q-45 0 -45 45v187 q0 45 45 45h894q31 0 39.5 -12t8.5 -35v-119q0 -39 -9 -68t-39 -59q0 -4 -33.5 -35t-77.5 -70t-85 -73t-53 -48q2 -2 2 -8l135 -33q121 -30 170.5 -116.5t49.5 -222.5q0 -162 -43 -267.5t-122.5 -166t-190.5 -85.5t-248 -25q-31 0 -81 3.5t-107.5 10.5t-114 19t-99.5 29 q-54 19 -66 41.5t-6 53.5z" />
<glyph unicode="4" d="M43 372v166q0 14 3 31.5t20 37.5l626 780q17 19 37 29t49 10h237q29 0 36 -15.5t7 -27.5v-783h142q26 0 34.5 -10.5t8.5 -33.5v-191q0 -24 -9 -34.5t-34 -10.5h-142v-275q0 -15 -7.5 -30t-37.5 -15h-239q-26 0 -35.5 13t-9.5 32v275h-628q-24 0 -41 11t-17 41zM413 593 h320v402l-11 3l-309 -396v-9z" />
<glyph unicode="5" d="M97 138l24 118q6 31 19.5 41.5t56.5 5.5q89 -12 180 -21t169 -9q60 0 111 7.5t87 31t56.5 68.5t20.5 123q0 53 -32 81.5t-94 39.5l-476 82q-57 10 -71.5 40t-7.5 79l86 525q6 41 25.5 59.5t66.5 18.5h733q45 0 45 -45v-187q0 -45 -47 -45h-532l-33 -203l370 -53 q141 -21 228.5 -113t87.5 -253t-43 -266t-121.5 -169t-189 -88.5t-246.5 -24.5q-30 0 -80.5 3t-108 10.5t-114 19.5t-99.5 29q-54 19 -66 41.5t-5 53.5z" />
<glyph unicode="6" d="M82 669q0 84 6 174t28 176.5t61.5 163.5t105.5 135.5t161.5 92.5t228.5 34q21 0 65 -1t100.5 -7.5t119 -18.5t119.5 -33q50 -17 60 -36.5t2 -51.5l-25 -119q-8 -35 -22.5 -45.5t-44.5 -5.5q-80 10 -176.5 18t-199.5 8q-127 0 -177.5 -71t-60.5 -194q55 7 100.5 10t84 5 t74 3t73.5 1q222 0 336 -118t114 -359q0 -124 -49.5 -210.5t-131.5 -139t-184.5 -76t-211.5 -23.5q-197 0 -308 52.5t-167 144t-68.5 217.5t-12.5 274zM421 611q-2 -86 3.5 -156t29.5 -117q16 -32 59 -55t134 -23q43 0 84 6.5t73.5 26t52 52t19.5 83.5q0 103 -35 152.5 t-127 49.5q-47 0 -115 -4t-178 -15z" />
<glyph unicode="7" d="M92 1194v189q0 47 43 47h992q28 0 36.5 -13t8.5 -36v-131q0 -37 -10.5 -62t-28.5 -59l-577 -1137q-14 -25 -28.5 -33t-45.5 6l-198 89q-33 14 -34.5 28.5t12.5 44.5l512 1024h-639q-43 0 -43 43z" />
<glyph unicode="8" d="M62 411q0 109 52 198.5t157 145.5q-84 41 -125 117t-41 150q0 105 39 184.5t107.5 133t166.5 80.5t218 27q115 0 211.5 -23.5t166.5 -75t109.5 -131.5t39.5 -189q0 -33 -11 -71.5t-32 -75t-53.5 -70t-75.5 -52.5v-2q109 -47 162 -139.5t53 -202.5q0 -103 -42 -184 t-118 -136.5t-182.5 -84.5t-233.5 -29t-232 23.5t-179.5 75t-115.5 133.5t-41 198zM404 441q0 -88 63.5 -131t162.5 -43q105 0 168.5 48t63.5 122q0 47 -19.5 81t-51.5 58t-75 39t-92 25q-39 -6 -78 -19.5t-71 -36t-51.5 -58.5t-19.5 -85zM447 1015q0 -55 50.5 -89 t140.5 -53q103 16 143 54.5t40 87.5q0 76 -52.5 110t-132.5 34q-100 0 -144.5 -40t-44.5 -104z" />
<glyph unicode="9" d="M78 985q0 125 49 213t131 142.5t184 79.5t210 25q195 0 307 -52.5t167.5 -145t70 -218.5t14.5 -272q0 -84 -6.5 -174.5t-28 -176.5t-62.5 -163t-106.5 -135.5t-161 -92.5t-229.5 -34q-19 0 -63.5 1t-101 6.5t-119 17t-118.5 35.5q-47 17 -59 36.5t-2 51.5l24 116 q11 34 24 45t43 7q79 -10 172.5 -18t197.5 -8q127 0 179.5 70t63.5 192q-56 -6 -100 -9t-83 -4t-75 -2t-75 -1q-222 0 -334.5 113.5t-112.5 354.5zM417 991q0 -103 33.5 -150t128.5 -47q45 0 112.5 4t176.5 15q0 75 -5 152.5t-24 116.5q-17 34 -62.5 55.5t-131.5 21.5 q-43 0 -83.5 -6t-73 -25.5t-52 -52t-19.5 -84.5z" />
<glyph unicode=":" horiz-adv-x="502" d="M80 142q0 69 34 115t138 46q54 0 87 -12t52.5 -33.5t25.5 -51.5t6 -64q0 -31 -6 -61t-24.5 -52.5t-52.5 -36t-88 -13.5q-58 0 -91.5 13.5t-52 37.5t-23.5 52.5t-5 59.5zM80 815q0 66 34 113.5t138 47.5q54 0 87 -12t52.5 -33.5t25.5 -51.5t6 -64q0 -31 -6 -61 t-24.5 -52.5t-52.5 -36t-88 -13.5q-58 0 -91.5 13.5t-52 37.5t-23.5 53t-5 59z" />
<glyph unicode=";" horiz-adv-x="502" d="M37.5 -244.5q1.5 12.5 31.5 41.5q39 39 55 81t16 79q0 71 -50 127q-28 30 -30 52t37 49l139 108q33 24 55.5 15t48.5 -33q43 -43 65.5 -99.5t22.5 -106.5q0 -71 -20.5 -136.5t-53 -119t-74.5 -95.5t-85 -69q-45 -24 -81 11l-54 56q-24 27 -22.5 39.5zM80 815 q0 66 34 113.5t138 47.5q54 0 87 -12t52.5 -33.5t25.5 -51.5t6 -64q0 -31 -6 -61t-24.5 -52.5t-52.5 -36t-88 -13.5q-58 0 -91.5 13.5t-52 37.5t-23.5 53t-5 59z" />
<glyph unicode="&#x3c;" d="M172 626v150q0 24 8.5 32.5t24.5 16.5l872 443q19 11 27 1.5t8 -24.5v-207q0 -24 -9 -32t-24 -17l-537 -281v-9l540 -278q16 -6 24 -15.5t8 -33.5v-218q0 -16 -11 -21.5t-26 2.5l-870 441q-13 5 -24 15.5t-11 34.5z" />
<glyph unicode="=" d="M154 421v153q0 46 46 46h886q28 0 36.5 -11.5t8.5 -32.5v-155q0 -24 -8.5 -34.5t-36.5 -10.5h-886q-46 0 -46 45zM154 817v153q0 45 46 45h886q28 0 36.5 -11t8.5 -32v-155q0 -24 -8.5 -34.5t-36.5 -10.5h-886q-46 0 -46 45z" />
<glyph unicode="&#x3e;" d="M174 154v218q0 24 8.5 33.5t24.5 15.5l542 278v9l-540 281q-13 9 -23 17.5t-10 31.5v207q0 15 7.5 25t29.5 -2l873 -443q12 -8 21 -16.5t9 -32.5v-150q0 -24 -11 -34.5t-21 -15.5l-871 -441q-17 -8 -28 -2.5t-11 21.5z" />
<glyph unicode="?" horiz-adv-x="936" d="M60 1325q-4 31 2.5 43.5t38.5 26.5q39 15 81 26t81.5 15.5t74 6.5t60.5 2q228 0 348 -89.5t120 -261.5q0 -58 -16.5 -103t-45 -79t-60.5 -62.5t-63 -49.5q-43 -30 -74 -59t-51 -60.5t-31.5 -69t-11.5 -86.5v-82q0 -19 -6 -33t-29 -14h-213q-25 0 -34 8.5t-14 34.5 q-4 32 -5 58t-1 49q0 80 16 139t46 106.5t73.5 89.5t98.5 87q33 28 52.5 51.5t19.5 55.5q0 56 -40 78.5t-133 22.5q-47 0 -102 -4t-104 -9q-41 -4 -50.5 2.5t-13.5 34.5zM197 138q0 32 8 61t27.5 49.5t51.5 33.5t81 13q103 0 135.5 -44t32.5 -113q0 -31 -6 -59t-24.5 -50.5 t-51 -36t-86.5 -13.5q-55 0 -87.5 13.5t-50.5 36t-24 50.5t-6 59z" />
<glyph unicode="@" horiz-adv-x="1945" d="M127 755q0 174 66.5 320t185 252.5t280 167t350.5 60.5q207 0 359 -60.5t252 -165t149 -244t49 -295.5q0 -123 -36 -212.5t-94 -149.5t-132 -89t-154 -29q-95 0 -165.5 31t-105.5 94q-56 -37 -125.5 -61.5t-145.5 -24.5q-140 0 -200 62.5t-60 192.5q0 154 89 220t253 66 q66 2 94.5 3.5t49.5 3.5q0 64 -33 83.5t-103 19.5q-30 0 -86 -3.5t-124 -9.5q-26 -4 -42.5 -2t-22.5 32l-15 73q-6 30 6.5 42t30.5 23q24 13 57.5 22t71.5 15t78 9t75 3q105 0 172.5 -21.5t104.5 -62.5t50.5 -100t13.5 -134v-282q0 -9 2.5 -22.5t12 -27.5t29 -23.5 t54.5 -9.5q69 0 119 65.5t50 193.5q0 119 -36.5 222.5t-107.5 179.5t-177.5 119t-248.5 43q-152 0 -274.5 -45t-209 -125t-132.5 -186t-46 -229q0 -127 34 -234.5t108.5 -186t189.5 -122.5t279 -44q13 0 41.5 2t66.5 5.5t81 9.5t82 14q30 4 43 4t21 -22l19 -71 q8 -30 7.5 -54.5t-28.5 -40.5q-33 -17 -76 -28.5t-89 -19.5t-92.5 -11t-82.5 -3q-220 0 -376.5 59.5t-257.5 165.5t-149.5 252.5t-48.5 320.5zM827 604q0 -31 14.5 -48.5t55.5 -17.5q39 0 88 18t99 46q0 28 -1 57t-1 57h-151q-49 0 -76.5 -25t-27.5 -87z" />
<glyph unicode="A" horiz-adv-x="1328" d="M18 10q-4 4 -3 13q0 12 6 33l416 1312q10 31 25.5 46.5t58.5 15.5h271q45 0 58.5 -17.5t25.5 -47.5l431 -1314q4 -16 4 -27q1 -8 -1 -12q-4 -12 -28 -12h-267q-36 0 -49.5 16.5t-23.5 49.5l-72 256h-427l-78 -262q-10 -35 -27.5 -47.5t-47.5 -12.5h-239q-25 0 -33 10z M517 585h279l-65 236l-68 263h-11l-71 -261z" />
<glyph unicode="B" horiz-adv-x="1332" d="M144 47v1334q0 21 10 34t37 13l546 2q222 0 334.5 -106.5t112.5 -291.5q0 -26 -6 -62.5t-22.5 -75t-47.5 -75.5t-78 -60l2 -8q62 -24 100 -65t58.5 -88.5t26.5 -93.5t6 -81q0 -101 -36 -179t-98.5 -133t-143.5 -83t-169 -28h-583q-30 0 -39.5 13t-9.5 34zM486 286h222 q94 0 129.5 45.5t35.5 109.5q0 66 -38.5 113.5t-126.5 47.5h-222v-316zM486 878h206q66 0 104.5 36.5t38.5 94.5t-36 96.5t-118 38.5h-195v-266z" />
<glyph unicode="C" horiz-adv-x="1274" d="M125 708q0 131 24.5 263.5t92.5 237.5t189 170.5t318 65.5q100 0 209 -16t195 -52q32 -15 49 -33.5t9 -59.5l-29 -125q-6 -30 -19.5 -38.5t-52.5 -4.5q-90 11 -175.5 17t-154.5 6q-90 0 -147 -33t-89.5 -91t-44 -135.5t-11.5 -165.5q0 -101 11.5 -181.5t44 -136.5 t89.5 -85.5t145 -29.5t160.5 7t173.5 18q41 4 53.5 -3.5t20.5 -40.5l29 -114q4 -16 4 -29q1 -21 -9 -33q-16 -20 -49 -35q-41 -16 -91 -30.5t-105.5 -24t-110 -13.5t-103.5 -4q-193 0 -316 63t-192 166.5t-93.5 234.5t-24.5 265z" />
<glyph unicode="D" horiz-adv-x="1414" d="M144 47v1334q0 21 10 34t37 13h469q187 0 309.5 -58.5t194 -155t100.5 -225.5t29 -271q0 -144 -28 -274t-99.5 -228.5t-194 -157t-311.5 -58.5h-467q-30 0 -39.5 13t-9.5 34zM484 286h138q73 0 131 22.5t98.5 72t63.5 129t23 194.5q0 227 -73 332t-229 105h-152v-855z " />
<glyph unicode="E" horiz-adv-x="1199" d="M146 45v1336q0 21 10 35t37 14h854q45 0 45 -47v-197q0 -18 -9.5 -31.5t-37.5 -13.5h-557v-259h486q50 0 50 -45v-197q0 -18 -10 -31.5t-40 -13.5h-486v-309h568q48 0 48 -48v-195q0 -19 -10 -31t-38 -12h-863q-28 0 -37.5 13t-9.5 32z" />
<glyph unicode="F" horiz-adv-x="1128" d="M144 1383q0 19 10 33t39 14h837q47 0 47 -47v-197q0 -18 -9.5 -31.5t-39.5 -13.5h-540v-259h462q48 0 48 -45v-197q0 -20 -9.5 -32.5t-38.5 -12.5h-462v-548q0 -17 -7 -32t-38 -15h-250q-28 0 -37.5 13t-9.5 34z" />
<glyph unicode="G" horiz-adv-x="1386" d="M127 710q0 131 24.5 262.5t92.5 236.5t189 170.5t316 65.5q103 0 211.5 -16t192.5 -52q32 -13 49 -32.5t9 -60.5l-29 -127q-6 -32 -19.5 -38.5t-52.5 -2.5q-90 11 -172 18t-150 7q-91 0 -149 -33t-92 -91t-45.5 -136.5t-11.5 -166.5q0 -92 9.5 -172t41 -139t86 -92.5 t145.5 -33.5q39 0 81 4.5t76 11.5v257h-147q-30 0 -39.5 12t-9.5 33v181q0 21 10 33t39 12h429q24 0 36.5 -13.5t12.5 -31.5v-270t-2 -340q0 -37 -10.5 -68.5t-55.5 -48.5q-52 -19 -110 -33t-117.5 -21.5t-117 -11.5t-105.5 -4q-187 0 -307.5 59t-188.5 160t-93.5 233.5 t-25.5 278.5z" />
<glyph unicode="H" horiz-adv-x="1391" d="M144 47v1334q0 21 11 35t36 14h250q30 0 37.5 -16t7.5 -33v-495h419v495q0 21 11 35t36 14h250q31 0 38 -16t7 -33v-1334q0 -17 -7 -32t-38 -15h-250q-47 0 -47 47v550h-419v-550q0 -17 -7.5 -32t-37.5 -15h-250q-47 0 -47 47z" />
<glyph unicode="I" horiz-adv-x="653" d="M154 47v1334q0 21 10 35t36 14h252q30 0 37.5 -16t7.5 -33v-1334q0 -17 -7.5 -32t-37.5 -15h-252q-27 0 -36.5 13t-9.5 34z" />
<glyph unicode="J" horiz-adv-x="1016" d="M17 119l32 139q11 33 20 38t38 1q56 -6 111 -11t102 -5q58 0 95 12.5t57 34t27.5 52.5t7.5 67v934q0 21 10 35t37 14h248q31 0 39 -16t8 -33v-560.5t-2 -440.5q0 -189 -112.5 -294t-356.5 -105q-26 0 -61.5 2t-73.5 7.5t-78 12.5t-75 21q-55 19 -70 36q-8 10 -8 28 q0 13 5 31z" />
<glyph unicode="K" horiz-adv-x="1330" d="M131 47v1334q0 21 9.5 35t37.5 14h250q31 0 38.5 -16t7.5 -33v-508h4l154 202l252 312q17 21 39.5 32t57.5 11h277q35 0 41 -18.5t-13 -41.5l-463 -557l480 -749q16 -23 16 -37q0 -9 -5 -13q-13 -14 -36 -14h-285q-39 0 -58 16.5t-36 39.5l-299 488l-126 -157v-340 q0 -17 -8 -32t-38 -15h-250q-28 0 -37.5 13t-9.5 34z" />
<glyph unicode="L" horiz-adv-x="1128" d="M146 45v1336q0 21 11 35t36 14h248q47 0 47 -49v-1095h579q39 0 39 -36v-207q0 -19 -10 -31t-38 -12h-865q-28 0 -37.5 13t-9.5 32z" />
<glyph unicode="M" horiz-adv-x="1676" d="M146 47v1336q0 19 10 33t35 14h185q43 0 61.5 -12t33.5 -39l208 -425l160 -332h8l164 337l208 418q15 26 32 39.5t60 13.5h177q30 0 36.5 -16t6.5 -31v-1336q0 -17 -6.5 -32t-36.5 -15h-241q-28 0 -37.5 13t-9.5 34v659l-6 2l-76 -168l-135 -278q-15 -26 -34.5 -40.5 t-56.5 -14.5h-104q-39 0 -57.5 13.5t-33.5 37.5l-141 288l-74 164l-4 -2v-661q0 -17 -8 -32t-37 -15h-242q-26 0 -35.5 13t-9.5 34z" />
<glyph unicode="N" horiz-adv-x="1440" d="M142 45v1336q0 19 11 33t36 14h176q50 0 68.5 -17.5t34.5 -45.5q17 -28 56.5 -86t87.5 -132t100.5 -155t101 -155t86.5 -132t54 -83q3 0 4 1t3 1v755q0 16 9 32.5t39 16.5h238q27 0 36.5 -13t9.5 -36v-1334q0 -21 -10 -33t-36 -12h-176q-37 0 -56.5 13t-35.5 36 q-82 123 -164 244.5t-163 244.5l-170 262h-6v-755q0 -17 -9 -31t-37 -14h-239q-49 0 -49 45z" />
<glyph unicode="O" horiz-adv-x="1481" d="M123 733q0 62 7.5 140.5t30 157.5t63.5 154t108.5 133.5t166 93.5t236.5 35q203 0 324 -63.5t188 -165.5t88.5 -230t21.5 -255q0 -123 -18.5 -255t-82.5 -242.5t-188 -182.5t-335 -72q-140 0 -239.5 33t-167.5 89.5t-108 131.5t-61.5 159t-27.5 171t-6 168zM484 710 q0 -218 52.5 -326.5t200.5 -108.5q152 0 210.5 106.5t58.5 328.5q0 230 -57 336.5t-212 106.5q-144 0 -198.5 -108.5t-54.5 -334.5z" />
<glyph unicode="P" horiz-adv-x="1219" d="M144 47v1336q0 19 10 33t37 14h499q101 0 189.5 -28t155 -83t104 -139t37.5 -195q0 -76 -20.5 -156t-74 -148t-148 -112t-243.5 -44h-204v-478q0 -17 -7.5 -32t-37.5 -15h-250q-47 0 -47 47zM486 802h159q84 0 132 43t48 131q0 87 -50.5 127.5t-134.5 40.5h-154v-342z " />
<glyph unicode="Q" horiz-adv-x="1487" d="M125 733q0 62 7.5 140.5t29 157.5t62.5 154t109.5 133.5t166 93.5t235.5 35q203 0 325 -63.5t189 -165.5t88.5 -230t21.5 -255q0 -78 -6.5 -161.5t-27 -162t-58 -150.5t-99.5 -128l219 -62q35 -10 40 -27q1 -4 1 -9q0 -15 -10 -37l-78 -185q-13 -40 -48 -40q-17 0 -40 10 l-484 202q-11 -2 -33 -2q-140 0 -239.5 33t-167.5 89.5t-109 131.5t-61 159t-26.5 171t-6.5 168zM484 710q0 -107 12.5 -189t42 -137t78 -82t120.5 -27q148 0 208.5 106.5t60.5 328.5q0 230 -57 336.5t-212 106.5q-142 0 -197.5 -108.5t-55.5 -334.5z" />
<glyph unicode="R" horiz-adv-x="1289" d="M140 47v1336q0 19 10 33t39 14h527q86 0 171 -25.5t152 -78.5t107 -135.5t40 -197.5q0 -53 -11.5 -110.5t-39 -109t-73 -95.5t-110.5 -74l265 -550q6 -15 6 -26q0 -8 -3 -14q-7 -14 -30 -14h-265q-33 0 -53 9.5t-31 37.5l-219 497h-140v-497q0 -17 -8 -32t-37 -15h-248 q-30 0 -39.5 13t-9.5 34zM482 821h172q28 0 60.5 7t59 23.5t44 50.5t17.5 87q0 84 -51 118t-126 34h-176v-320z" />
<glyph unicode="S" horiz-adv-x="1248" d="M99 1006q0 105 36.5 187t104.5 137t164.5 84t215.5 29q30 0 78.5 -1t105 -7.5t116 -19.5t110.5 -34q54 -19 60 -40t2 -51l-29 -127q-5 -21 -11.5 -31t-17 -13t-27 -2t-37.5 3q-73 11 -149.5 17.5t-175.5 6.5q-95 0 -141 -30t-46 -99q0 -34 10 -55.5t32.5 -37t58.5 -25 t90 -19.5q92 -19 183 -45.5t162 -73.5t115 -126t44 -205q0 -127 -47.5 -213t-126 -137.5t-181 -74t-209.5 -22.5q-35 0 -86 3t-109.5 10.5t-117.5 20.5t-110 32q-54 21 -60.5 40.5t-0.5 50.5l26 124q11 44 26 48t58 -2q39 -5 86.5 -10t96.5 -9.5t98.5 -8t94.5 -3.5 q109 0 160 34.5t51 103.5q0 39 -11 63.5t-35.5 42t-62 29.5t-91.5 22q-93 19 -183 46t-161 74.5t-115 122.5t-44 191z" />
<glyph unicode="T" horiz-adv-x="1120" d="M26 1186v197q0 21 8.5 34t39.5 13h973q47 0 47 -47v-197q0 -18 -9.5 -31.5t-37.5 -13.5h-318v-1094q0 -17 -7.5 -32t-37.5 -15h-247q-29 0 -38 13t-9 34v1094h-316q-31 0 -39.5 13.5t-8.5 31.5z" />
<glyph unicode="U" horiz-adv-x="1410" d="M144 531v850q0 21 10 35t37 14h248q30 0 37.5 -16t7.5 -33v-841q0 -265 220 -265q109 0 167 64.5t58 200.5l-2 841q0 21 10.5 35t38.5 14h247q31 0 38 -16t7 -33l-2 -850q0 -62 -7 -125.5t-34 -130.5q-32 -80 -86.5 -135.5t-124.5 -91t-149.5 -51.5t-160.5 -16h-13 q-127 -1 -227 37q-104 40 -175.5 113.5t-108 175t-36.5 224.5z" />
<glyph unicode="V" horiz-adv-x="1369" d="M32 1416q6 14 39 14h230q43 0 61 -13t28 -47l156 -506l138 -466h11l132 470l145 495q11 32 29.5 49.5t54.5 17.5h249q33 0 34 -18v-5q0 -15 -5 -30l-437 -1315q-11 -28 -27 -45t-66 -17h-242q-43 0 -62.5 15t-28.5 45l-434 1317q-7 15 -7 26q0 8 2 13z" />
<glyph unicode="W" horiz-adv-x="1885" d="M32 1416q6 14 37 14h245q37 0 53 -13t25 -45q38 -152 68 -276q12 -51 25.5 -102.5t24.5 -93.5t18.5 -70t9.5 -34l77 -334h9l66 235q2 7 17 61.5t34.5 119t36 119t18.5 61.5l-101 319q-6 18 -1 35.5t28 17.5h228q37 0 55.5 -12t26.5 -46q41 -163 78 -297q15 -55 29 -111.5 t26.5 -101.5t20.5 -74t10 -35l70 -291h12l64 316q2 6 8.5 35.5t16.5 72.5t22.5 95.5t25.5 106.5q31 127 67 284q8 33 27.5 45.5t58.5 12.5h232q30 0 36 -16q3 -7 3 -15q0 -11 -5 -25l-346 -1312q-9 -30 -28 -46t-65 -16h-195q-49 0 -65.5 17.5t-26.5 44.5l-99 325l-57 187 h-10l-60 -187l-102 -325q-10 -28 -25 -45t-65 -17h-200q-43 0 -62.5 15t-27.5 45l-367 1317q-4 12 -4 22t3 17z" />
<glyph unicode="X" horiz-adv-x="1266" d="M32 18q-1 4 -1 8q0 15 12 34l396 669l-373 639q-12 24 -6 43t37 19h266q33 0 44.5 -10t27.5 -37l98 -191l95 -190l96 200l93 179q13 26 27 36.5t42 10.5h273q43 2 45 -17.5t-8 -36.5l-383 -645l398 -673q8 -14 8 -30v-6q-2 -20 -37 -20h-268q-27 0 -42.5 8.5t-32.5 36.5 l-106 203l-107 212l-105 -212l-104 -197q-15 -30 -32 -40.5t-50 -10.5h-269q-30 0 -34 18z" />
<glyph unicode="Y" horiz-adv-x="1352" d="M24 1414q6 16 30 16h256q36 0 51 -11t33 -40l142 -283l127 -257h12l133 260l138 264q17 32 32 49.5t52 17.5h258q27 0 33 -15q2 -5 2 -11q0 -10 -7 -21l-485 -858v-478q0 -17 -8 -32t-35 -15h-250q-48 0 -48 47v478l-462 852q-6 13 -6 24q0 7 2 13z" />
<glyph unicode="Z" horiz-adv-x="1182" d="M90 45v174q0 17 5.5 39.5t23.5 47.5l587 835h-525q-31 0 -39.5 13.5t-8.5 31.5v197q0 21 8.5 34t39.5 13h864q19 0 32 -13t13 -32l-2 -158q0 -34 -6.5 -56t-21.5 -46l-589 -839h576q30 0 38.5 -13t8.5 -33v-193q0 -21 -8.5 -34t-36.5 -13h-911q-48 0 -48 45z" />
<glyph unicode="[" horiz-adv-x="632" d="M78 -158v1607q0 19 9.5 32t35.5 13h382q45 0 45 -43v-176q0 -17 -9.5 -28.5t-35.5 -11.5h-122v-1181h124q45 0 45 -46v-170q0 -43 -45 -43h-382q-28 0 -37.5 13.5t-9.5 33.5z" />
<glyph unicode="\" horiz-adv-x="685" d="M19 1438q-4 25 5 38.5t30 13.5h200q37 0 47 -37l368 -1541q10 -45 -37 -45h-202q-16 0 -28 8t-17 26z" />
<glyph unicode="]" horiz-adv-x="632" d="M84 8q0 21 12.5 33.5t32.5 12.5h127v1181h-125q-47 0 -47 40v176q0 19 12.5 31t32.5 12h384q29 0 39 -12.5t10 -32.5v-1609q0 -18 -10 -31.5t-39 -13.5h-384q-26 0 -35.5 12t-9.5 31v170z" />
<glyph unicode="^" horiz-adv-x="1237" d="M51.5 807q-0.5 10 17.5 32l387 550q16 21 31.5 30t54.5 9l176 -2q45 0 58.5 -9t25.5 -28l366 -550q16 -24 15 -34.5t-17 -26.5l-84 -62q-17 -17 -31.5 -16t-30.5 18l-400 454l-403 -452q-19 -16 -33 -17.5t-34 15.5l-79 62q-19 17 -19.5 27z" />
<glyph unicode="_" horiz-adv-x="1075" d="M-39 -146q0 45 45 45h1063q28 0 36.5 -10t8.5 -33v-116q0 -25 -9 -35.5t-36 -10.5h-1063q-45 0 -45 44v116z" />
<glyph unicode="`" horiz-adv-x="1151" d="M340 1475q-34 39 4 64l148 115q15 8 30.5 9t31.5 -22l240 -342q14 -19 9 -31t-15 -21l-102 -79q-15 -13 -29 -7.5t-25 15.5z" />
<glyph unicode="a" horiz-adv-x="1231" d="M84 299v13q0 91 27 155q29 69 83 111t131 60t172 18h247v34q0 34 -7.5 58t-28 39t-57 22.5t-97.5 7.5q-24 0 -59 -2t-73.5 -4.5t-77 -6.5t-71.5 -6q-45 -4 -59 0t-23 37l-23 111q-4 28 7.5 46.5t60.5 37.5q37 13 85.5 23t99 16t100 9.5t86.5 3.5q150 0 241.5 -28 t139.5 -79.5t63.5 -127t15.5 -172.5v-340q0 -35 3 -54t11.5 -28.5t23.5 -14t42 -6.5q28 -2 36.5 -9.5t8.5 -27.5v-137q0 -43 -63 -56q-60 -15 -134 -15q-79 0 -139 27t-82 113l-4 2q-43 -39 -92.5 -66.5t-101 -46t-101 -26t-90.5 -7.5q-94 0 -153.5 27t-92 70t-44 99.5 t-11.5 119.5zM415 316q0 -49 20.5 -68.5t75.5 -19.5q50 0 115.5 23.5t110.5 51.5v144h-193q-60 0 -94.5 -27.5t-34.5 -103.5z" />
<glyph unicode="b" horiz-adv-x="1184" d="M99 150v1321q0 21 10 34t37 13h237q31 0 38 -16t7 -31v-426q62 19 117 28t100 9q141 0 230 -40t137 -112t65 -171t17 -217q0 -127 -19 -231t-74 -177.5t-150.5 -113t-248.5 -39.5q-54 0 -114 4.5t-118 11.5t-111.5 19t-94.5 29t-53 43t-12 62zM428 277q37 -6 74.5 -8 t67.5 -2q39 0 73 8.5t60 35.5t40 77.5t14 136.5q0 80 -10 132.5t-29 83.5t-49.5 45t-71.5 14q-43 0 -75 -4t-94 -20v-499z" />
<glyph unicode="c" horiz-adv-x="1026" d="M88 536q0 96 18.5 193.5t71 176.5t149 127.5t256.5 48.5q86 0 177.5 -12t160.5 -42q46 -18 46 -65q0 -7 -1 -15l-24 -131q-9 -35 -23 -38t-59 1q-64 6 -122.5 11t-109.5 5q-109 0 -157 -61.5t-48 -192.5q0 -158 44 -216.5t157 -58.5q45 0 117 4t141 13q35 4 46.5 -0.5 t17.5 -38.5l22 -118q4 -18 4 -32q0 -15 -4 -25q-8 -20 -57 -40q-64 -24 -157.5 -36.5t-170.5 -12.5q-162 0 -259.5 47.5t-149 124.5t-69 177t-17.5 206z" />
<glyph unicode="d" horiz-adv-x="1188" d="M86 517q0 129 16.5 233t63.5 178t133 115t224 41q73 0 128 -9.5t104 -25.5l2 2v418q0 21 8.5 35t36.5 14h234q31 0 38.5 -16t7.5 -33v-1424q0 -17 -7.5 -31t-38.5 -14h-236q-26 0 -34.5 10.5t-8.5 32.5v56q-2 0 -3 1t-3 1q-72 -54 -151 -86t-155 -32q-109 0 -179.5 39.5 t-109.5 111t-54.5 169t-15.5 214.5zM419 527q0 -80 8 -128t23.5 -75t41 -36t56.5 -9q26 0 54 7t56 16.5t52.5 21t44.5 20.5v434q-56 15 -94.5 19.5t-73.5 4.5q-45 0 -77 -12t-52.5 -43t-29.5 -83.5t-9 -136.5z" />
<glyph unicode="e" horiz-adv-x="1145" d="M90 523q0 78 13.5 174.5t62.5 182.5t147 144t268 58q154 0 249 -44.5t147.5 -115t72 -158t19.5 -173.5q0 -66 -24.5 -101.5t-94.5 -35.5h-524q2 -62 19 -101t46.5 -61.5t71 -30t95.5 -7.5q50 0 118.5 6.5t134.5 14.5q43 4 54 -1t20 -46l17 -101q6 -37 -0.5 -57.5 t-55.5 -39.5q-32 -10 -76.5 -20t-90.5 -16.5t-93.5 -9.5t-85.5 -3q-162 0 -262 45t-154.5 119t-74 172t-19.5 206zM430 647h299q0 77 -32 130.5t-116 53.5q-76 0 -111 -47t-40 -137z" />
<glyph unicode="f" horiz-adv-x="921" d="M66 854v161q0 48 48 48h93v100q0 173 99.5 275.5t317.5 102.5q30 0 68.5 -2t78.5 -8t80.5 -16.5t75.5 -26.5q37 -15 39 -36q1 -6 1 -13q0 -14 -3 -29l-26 -135q-7 -27 -21 -29.5t-51 1.5q-62 9 -115.5 12t-71.5 3q-82 0 -114 -38t-32 -108v-53h235q30 0 37.5 -12.5 t7.5 -33.5v-163q0 -24 -7.5 -37t-37.5 -13h-237v-757q0 -17 -7 -32t-38 -15h-234q-28 0 -37.5 13t-9.5 34v757h-91q-47 0 -48 50z" />
<glyph unicode="g" horiz-adv-x="1186" d="M92 529q0 121 23 223t80 176t155.5 115t251.5 41q51 0 108.5 -4.5t112.5 -12t106.5 -19.5t92.5 -26q43 -17 53.5 -44.5t10.5 -63.5v-877q0 -103 -14 -191.5t-64.5 -153t-151.5 -102t-275 -37.5q-91 0 -184.5 13t-158.5 36q-49 19 -58.5 39.5t-5.5 46.5l26 121q6 35 21 39 t52 -2q76 -11 153 -16.5t138 -5.5q60 0 98.5 9t60 28.5t29 50t7.5 73.5v52q-62 -19 -117 -28t-98 -9q-138 0 -225 40t-137.5 109.5t-70 166.5t-19.5 213zM430 548q0 -80 9.5 -131.5t30 -81t52.5 -42t75 -12.5q33 0 72 6t90 19v479q-75 13 -142 13q-38 0 -73 -8t-59.5 -33.5 t-39.5 -75t-15 -133.5z" />
<glyph unicode="h" horiz-adv-x="1199" d="M103 47v1424q0 21 10 34t35 13h239q31 0 38.5 -15t7.5 -32v-486q66 37 152 67t168 30q121 0 190.5 -38t104 -99t43 -136.5t8.5 -150.5v-611q0 -17 -7.5 -32t-37.5 -15h-237q-47 0 -47 47v116.5t1 173t1 173v116.5q0 88 -31 125t-101 37q-24 0 -52.5 -7t-57.5 -16.5 t-55 -20.5t-45 -20v-677q0 -17 -7.5 -32t-37.5 -15h-237q-26 0 -35.5 13t-9.5 34z" />
<glyph unicode="i" horiz-adv-x="595" d="M127 1342q0 66 34 113t138 47q52 0 85 -12.5t52.5 -34t25.5 -50t6 -63.5q0 -31 -6 -59.5t-24.5 -51t-51.5 -37t-87 -14.5q-55 0 -90 14.5t-53 38t-23.5 51t-5.5 58.5zM131 47v968q0 25 9.5 36.5t37.5 11.5h237q28 0 35.5 -16.5t7.5 -31.5v-968q0 -17 -7.5 -32t-35.5 -15 h-237q-28 0 -37.5 13t-9.5 34z" />
<glyph unicode="j" horiz-adv-x="627" d="M-146 -240q-1 11 -1 19q0 16 5 21q7 7 37 13q78 17 128.5 31t81 36.5t44 58t13.5 96.5v980q0 48 49 48h234q31 0 38 -16.5t7 -31.5v-974q0 -144 -37.5 -242t-109.5 -156t-177 -81q-90 -19 -202 -19q-19 0 -40 1q-14 0 -33.5 8.5t-21.5 39.5zM158 1342q0 66 34 113t135 47 q53 0 86.5 -12.5t53 -34t26 -50t6.5 -63.5q0 -31 -6.5 -59.5t-26 -51t-53 -37t-86.5 -14.5q-56 0 -89 14.5t-51.5 38t-23.5 51t-5 58.5z" />
<glyph unicode="k" horiz-adv-x="1139" d="M105 47v1424q0 21 10 35t37 14h235q31 0 38.5 -16t7.5 -33v-755l6 -2l135 154l130 147q18 25 37.5 36.5t62.5 11.5h245q39 0 44.5 -17.5t-18.5 -41.5l-328 -355l375 -589q11 -16 11 -29q-1 -8 -5 -14q-10 -17 -40 -17h-236q-50 0 -70.5 14t-32.5 37l-218 362l-98 -107 v-259q0 -17 -8 -32t-38 -15h-235q-28 0 -37.5 13t-9.5 34z" />
<glyph unicode="l" horiz-adv-x="644" d="M129 265v1206q0 21 9.5 34t37.5 13h235q30 0 37.5 -15t7.5 -32v-1142q0 -45 21.5 -56t70.5 -13q33 -2 39 -6t10 -28l12 -162q2 -30 -35 -47q-38 -17 -89.5 -22t-82.5 -5q-140 0 -206.5 63.5t-66.5 211.5z" />
<glyph unicode="m" horiz-adv-x="1812" d="M103 45v968q0 21 10 34t35 13h237q31 0 39.5 -15t8.5 -32v-49l2 -3q69 55 150.5 86.5t165.5 31.5q96 0 169 -35t108 -111q76 62 171.5 104t191.5 42q115 0 178 -37.5t94.5 -97.5t37.5 -135.5t6 -150.5v-613q0 -17 -7 -31t-36 -14h-236q-28 0 -37.5 12t-9.5 33v566 q0 99 -30.5 131t-90.5 32q-39 0 -94.5 -20.5t-96.5 -41.5v-667q0 -17 -7.5 -31t-37.5 -14h-236q-27 0 -36.5 12t-9.5 33v572q0 91 -29 124t-87 33q-39 0 -93.5 -19.5t-99.5 -42.5v-667q0 -17 -9 -31t-39 -14h-237q-26 0 -35.5 12t-9.5 33z" />
<glyph unicode="n" horiz-adv-x="1199" d="M101 45v968q0 21 10 34t37 13h235q31 0 38 -15t7 -32v-52q2 0 3.5 -1t3.5 -1q71 53 165.5 86.5t171.5 33.5q114 0 179.5 -37.5t98 -98.5t39.5 -136.5t7 -150.5v-611q0 -17 -7 -31t-38 -14h-236q-47 0 -47 45q0 142 1 281.5t1 282.5q0 90 -31 127.5t-101 37.5 q-51 0 -111.5 -25t-98.5 -37v-667q0 -17 -7.5 -31t-37.5 -14h-235q-28 0 -37.5 12t-9.5 33z" />
<glyph unicode="o" horiz-adv-x="1180" d="M90 546q0 74 15.5 166t66 175t148 139t263.5 56t266.5 -48.5t154.5 -125.5t71 -173.5t17 -188.5q0 -88 -12.5 -187t-64 -183t-154 -138.5t-278.5 -54.5q-175 0 -272.5 54.5t-147 138.5t-61.5 183t-12 187zM421 533q0 -141 32.5 -206t129.5 -65q107 0 140.5 67t33.5 204 q0 136 -31 202.5t-139 66.5q-99 0 -132.5 -68.5t-33.5 -200.5z" />
<glyph unicode="p" horiz-adv-x="1182" d="M103 -372v1385q0 21 10 34t35 13h237q31 0 38 -15t7 -32v-52q3 0 3 -1t2 -1q71 51 150.5 84.5t154.5 33.5q112 0 181.5 -42t109.5 -115t55 -172.5t15 -214.5q0 -129 -18 -232.5t-67.5 -174t-134.5 -109t-216 -38.5q-45 0 -110 7.5t-122 23.5h-3v-382q0 -14 -7.5 -30.5 t-37.5 -16.5h-237q-28 0 -36.5 12.5t-8.5 34.5zM430 281q52 -14 92 -18.5t75 -4.5q46 0 77.5 10.5t52 41t28.5 83t8 136.5q0 78 -7 125t-23.5 75t-41 37.5t-57.5 9.5q-49 0 -107.5 -22.5t-96.5 -39.5v-433z" />
<glyph unicode="q" horiz-adv-x="1186" d="M90 521q0 123 22.5 225.5t80 177t156 116.5t251.5 42q107 0 223.5 -15.5t198.5 -46.5q41 -17 51.5 -44.5t10.5 -64.5v-1283q0 -16 -6.5 -31.5t-36.5 -15.5h-237q-30 0 -39.5 12.5t-9.5 34.5v387q-62 -17 -116 -24.5t-97 -7.5q-138 0 -225 39.5t-137.5 111t-70 170 t-19.5 217.5zM428 540q0 -82 9.5 -135.5t31 -86t52.5 -45.5t74 -13q60 0 164 26v499q-78 13 -144 13q-39 0 -73.5 -9t-59 -35.5t-39.5 -78t-15 -135.5z" />
<glyph unicode="r" horiz-adv-x="883" d="M135 47v968q0 21 9.5 34.5t38.5 13.5h234q30 0 38.5 -16.5t8.5 -31.5v-104l4 -4q29 31 68.5 57.5t83 49t85.5 38t75 21.5q14 2 25 2q16 0 26 -4q16 -6 21 -47l26 -211q2 -15 2 -25t-7 -17.5t-19.5 -12.5t-36.5 -9q-193 -37 -353 -93v-609q0 -17 -7.5 -32t-37.5 -15h-236 q-29 0 -38.5 13t-9.5 34z" />
<glyph unicode="s" horiz-adv-x="1048" d="M84 131l23 103q6 31 19.5 37t49.5 0q76 -13 164 -20.5t144 -7.5q82 0 116 18t34 61q0 48 -25.5 64t-95.5 25q-88 12 -164 29.5t-133.5 52t-91.5 92.5t-34 152q0 86 34 150.5t91.5 107.5t138.5 65t175 22q37 0 81 -3.5t89 -8.5t86.5 -14t76.5 -22q43 -14 63.5 -30.5 t10.5 -57.5l-25 -109q-8 -31 -17.5 -37t-46.5 -2q-36 4 -79.5 9.5t-85.5 8.5t-78 5t-62 2h-14q-68 0 -88 -18q-20 -20 -21 -54q0 -41 38 -53t95 -23q84 -10 160 -26.5t132.5 -53t91 -98t34.5 -162.5t-40 -168.5t-106.5 -108.5t-151.5 -59t-177 -18q-39 0 -84.5 3t-91.5 9.5 t-88 15t-73 19.5q-54 20 -69 40q-9 12 -9 32q0 14 4 31z" />
<glyph unicode="t" horiz-adv-x="878" d="M51 852v161q0 24 10 35.5t36 11.5h96v210q0 27 13 38.5t34 18.5l218 58q11 4 20 4q10 1 18 -5q14 -10 15 -36v-288h220q30 0 37.5 -11t7.5 -34v-163q0 -25 -7.5 -36.5t-37.5 -11.5h-222l2 -400q0 -30 4 -51.5t16.5 -35.5t38 -21.5t73.5 -7.5q26 0 67 2.5t82 6.5 q21 0 34 -4.5t17 -40.5l19 -155q2 -9 2 -16q0 -15 -8 -27q-12 -18 -33 -26q-39 -12 -82.5 -21t-86.5 -14.5t-80.5 -7.5t-64.5 -2q-101 0 -163 29t-96.5 76t-46.5 108.5t-12 127.5v480h-94q-27 0 -36.5 11.5t-9.5 36.5z" />
<glyph unicode="u" horiz-adv-x="1192" d="M99 396v617q0 17 7.5 32t37.5 15h236q26 0 36 -13t10 -34v-564q0 -81 29 -123t101 -42q27 0 54.5 7.5t54.5 17t52 20.5t42 17v667q0 17 7.5 32t37.5 15h237q28 0 37.5 -13t9.5 -34v-968q0 -21 -9.5 -33t-37.5 -12h-237q-30 0 -37.5 14t-7.5 31v54q-2 0 -2 1t-2 1 q-74 -56 -167 -87t-171 -31q-115 0 -178 34t-94 91.5t-38.5 131.5t-7.5 156z" />
<glyph unicode="v" horiz-adv-x="1171" d="M41 1006q-6 16 -6 27q0 29 39 30h236q30 0 45 -7t25 -43l121 -379q24 -78 41 -135q14 -52 26.5 -94t14.5 -46h10q0 4 13.5 48.5t29.5 97.5q19 62 43 140l125 372q7 25 20 35.5t52 10.5h220q37 1 44 -13q3 -5 3 -12q0 -12 -8 -29l-355 -943q-12 -37 -31.5 -51.5 t-62.5 -14.5h-200q-45 0 -62.5 15t-29.5 51z" />
<glyph unicode="w" horiz-adv-x="1631" d="M35 1030q0 30 34 30h243q28 0 40.5 -8.5t21.5 -36.5l97 -359l75 -276h10l78 244l58 170l-75 219q-6 17 1.5 32t30.5 15h215q33 0 44 -7t21 -44q31 -97 58.5 -193t55.5 -192l65 -224h8l68 269l89 342q8 31 18 40t34 9h241q30 0 34 -14q2 -6 2 -12q0 -9 -4 -19l-297 -949 q-11 -32 -26 -49t-58 -17h-181q-36 0 -51 12t-28 50l-52 155l-70 211h-8l-78 -217l-54 -149q-10 -28 -24.5 -45t-61.5 -17h-166q-43 0 -59 13t-27 47l-320 953q-2 7 -2 17z" />
<glyph unicode="x" horiz-adv-x="1113" d="M16 15q-2 4 -3 9q0 13 15 34l340 484l-319 464q-12 19 -8 38t35 19h251q30 0 40.5 -8t26.5 -29l160 -261l162 259q11 21 23 30t35 9h267q38 0 42.5 -17.5t-10.5 -39.5l-331 -464l340 -484q9 -16 9 -29q0 -6 -2 -12q-7 -17 -38 -17h-251q-26 0 -41 6.5t-28 30.5l-177 281 l-174 -279q-24 -39 -74 -39h-255q-27 0 -35 15z" />
<glyph unicode="y" horiz-adv-x="1122" d="M30 1009q-6 15 -6 26q0 28 40 28h231q31 0 44.5 -7t23.5 -39l101 -311l90 -295h12l26.5 79.5t33.5 98.5q19 56 39 121q24 69 49.5 154.5t48.5 152.5q9 25 22 35.5t52 10.5h214q37 0 41 -15q1 -5 1 -10q0 -13 -7 -32l-512 -1376q-10 -30 -25.5 -39.5t-51.5 -9.5h-207 q-33 0 -40 11.5t6 42.5l146 393z" />
<glyph unicode="z" horiz-adv-x="1012" d="M60 43v138q0 16 4.5 35.5t27.5 48.5l450 537h-407q-45 0 -45 47v168q0 46 45 46h753q29 0 37 -10t8 -33v-144q0 -19 -5 -39t-27 -45l-443 -530h441q47 0 47 -47v-168q0 -47 -47 -47h-796q-28 0 -35.5 10.5t-7.5 32.5z" />
<glyph unicode="{" horiz-adv-x="739" d="M62 591v115q0 30 32 36q70 19 81.5 64.5t11.5 116.5v333q0 47 16 93t48.5 83t82 58.5t118.5 21.5q36 0 75 -3t101 -11q24 -2 30.5 -12.5t6.5 -30.5v-139q0 -24 -11 -32.5t-30 -8.5l-58 -5q-45 -4 -60.5 -26.5t-15.5 -69.5v-282q0 -28 -5 -64t-20.5 -73t-43 -67t-72.5 -45 v-7q51 -19 79 -44.5t41 -58t16 -68t3 -69.5v-306q0 -47 16.5 -68.5t63.5 -25.5l56 -4q19 -2 30 -10t11 -31v-138q0 -37 -37 -41q-52 -8 -100 -9t-85 -1q-71 0 -120.5 21.5t-79.5 56.5t-43 80t-13 90v364q0 34 -1 63t-9.5 50.5t-27 37t-50.5 25.5q-37 11 -37 41z" />
<glyph unicode="|" horiz-adv-x="638" d="M176 -191v1642q0 47 48 47h193q30 0 36.5 -14.5t6.5 -32.5v-1642q0 -17 -6.5 -32t-36.5 -15h-193q-48 0 -48 47z" />
<glyph unicode="}" horiz-adv-x="739" d="M60 -49q0 24 10 31.5t29 9.5l55 4q48 4 64 25.5t16 68.5v306q0 34 3 69.5t16.5 68t41 58t79.5 44.5v7q-45 14 -73 44.5t-43 67.5t-20.5 73t-5.5 64v282q0 47 -14.5 69.5t-59.5 26.5l-59 5q-19 0 -29 9t-10 32v139q0 39 34 43q58 9 99 10.5t78 1.5q66 0 117 -21.5 t83 -57.5t48.5 -82t16.5 -93v-333q0 -71 11.5 -116.5t80.5 -64.5q32 -6 32 -36v-115q0 -30 -34 -41q-35 -10 -53.5 -25.5t-26.5 -37t-9 -50.5t-1 -63v-364q0 -45 -13.5 -90t-43.5 -80t-78 -56.5t-120 -21.5q-36 0 -85.5 1t-101.5 9q-34 4 -34 41v138z" />
<glyph unicode="~" d="M139 549q-10 13 1 30q57 135 144.5 186.5t171.5 51.5q53 0 111.5 -16t114 -36.5t106.5 -36.5t90 -16q37 0 63.5 20.5t53.5 61.5q11 17 23 21t36 -11l90 -53q22 -13 27 -22t-3 -28q-31 -69 -66 -113t-75 -70t-84 -36.5t-91 -10.5q-44 0 -96 17t-108.5 38.5t-109 39 t-91.5 17.5q-36 0 -67 -18.5t-74 -69.5q-13 -15 -21 -22t-35 9l-90 49q-11 5 -21 18z" />
<glyph unicode="&#xa1;" horiz-adv-x="630" d="M148 916q0 28 6 57t22.5 50.5t49 35.5t88.5 14q54 0 86.5 -13t49 -35.5t23.5 -50.5t7 -58q0 -70 -31.5 -113.5t-134.5 -43.5q-49 0 -81.5 11.5t-50.5 33t-26 51t-8 61.5zM162 -331l29 924q0 24 8 33.5t31 9.5h170q24 0 32.5 -10.5t10.5 -32.5l28 -924q0 -43 -43 -43h-228 q-41 0 -38 43z" />
<glyph unicode="&#xa2;" d="M209 536q0 88 12.5 176t53.5 162t114 128t194 71v258q0 50 43 50h135q29 0 35 -16.5t6 -33.5v-254q62 -4 124.5 -16t111.5 -33q54 -21 46 -80l-24 -131q-6 -35 -26.5 -38t-54.5 1q-64 6 -122.5 11t-107.5 5q-110 0 -158.5 -61.5t-48.5 -192.5q0 -158 44 -216.5t156 -58.5 q46 0 117.5 4t140.5 13q32 4 45 -2.5t20 -36.5l21 -118q8 -37 0.5 -57.5t-56.5 -39.5q-45 -16 -105.5 -27t-122.5 -16v-254q0 -17 -6 -32t-35 -15h-135q-43 0 -43 47v259q-123 14 -197 65.5t-113 125t-51.5 165t-12.5 188.5z" />
<glyph unicode="&#xa3;" d="M125 121v76q0 17 10.5 38t38.5 42q45 31 69 84.5t32 102.5q4 21 6.5 55.5t2.5 82.5h-106q-26 0 -36.5 9t-10.5 34v153q0 24 10.5 32.5t36.5 8.5h99q-2 35 -2 67v64v67t2 62q7 76 35 138t80.5 107t133.5 69.5t192 24.5q31 0 78 -2t101.5 -8t111 -18t105.5 -31 q28 -11 34.5 -23t2.5 -33l-24 -153q-5 -31 -16.5 -38t-31.5 -3q-71 10 -138.5 17t-142.5 7q-97 0 -142 -40t-54 -109q-5 -41 -6 -82.5t4 -82.5h299q26 0 35.5 -9t9.5 -32v-153q0 -27 -9.5 -35t-35.5 -8h-290q0 -39 -3.5 -85t-10 -92.5t-18 -87t-31.5 -68.5h112.5t138.5 -1 t150 -1h145q43 0 43 -41v-185q0 -26 -8.5 -33.5t-34.5 -7.5h-920q-45 0 -45 41q-2 41 -2 80z" />
<glyph unicode="&#xa5;" horiz-adv-x="1287" d="M58 1393q0 33 34 33h246q37 0 50.5 -10t30.5 -42l224 -537h13q56 131 107.5 262t106.5 260q17 32 31.5 49.5t50.5 17.5h250q17 0 26 -10t9 -23q0 -12 -7 -21q-82 -161 -163.5 -323.5t-163.5 -326.5h196q29 0 35.5 -7t6.5 -29v-95q0 -24 -7 -31.5t-35 -7.5h-918 q-25 0 -34 8t-9 31v95q0 36 43 36h197l-316 650q-4 9 -4 21zM138 342v93q0 39 43 39h918q29 0 35.5 -9t6.5 -30v-93q0 -24 -7 -32.5t-35 -8.5h-293v-254q0 -17 -7 -32t-36 -15h-244q-27 0 -36 13t-9 34v254h-293q-43 0 -43 41z" />
<glyph unicode="&#xa7;" horiz-adv-x="979" d="M76 525q0 73 31 150.5t98 147.5q-62 50 -95.5 115.5t-33.5 153.5q0 94 37 162.5t98.5 112t139.5 64t158 20.5q103 0 200 -19t149 -49q24 -13 33.5 -28t0.5 -41l-36 -112q-7 -24 -16 -33.5t-21.5 -10.5t-27.5 2t-34 8q-49 8 -110.5 16t-104.5 8q-70 0 -121 -25.5 t-51 -70.5q0 -30 22.5 -54.5t54 -43.5t65.5 -34.5t58 -27.5q58 -29 118.5 -58t110.5 -68.5t82.5 -94.5t32.5 -134q0 -76 -30 -151t-102 -149q58 -53 93.5 -117.5t35.5 -150.5q0 -105 -43 -175t-109.5 -112t-147 -60.5t-153.5 -18.5q-101 0 -194.5 19.5t-142.5 49.5 q-24 13 -33.5 28.5t-1.5 40.5l37 112q6 24 15.5 33.5t21.5 10.5t27.5 -3t34.5 -7q66 -11 120 -17t101 -6q84 0 129 26.5t45 73.5q0 39 -43 75t-100 65.5t-115 53.5t-88 41q-37 21 -72 47t-63.5 59.5t-44 76t-15.5 99.5zM363 568q0 -30 18.5 -51.5t48.5 -41t66.5 -36 t75.5 -31.5q33 39 42.5 70t9.5 60q0 34 -24 58t-58 42q-29 17 -59.5 30t-65.5 31q-29 -36 -41.5 -71t-12.5 -60z" />
<glyph unicode="&#xa8;" horiz-adv-x="1151" d="M224 1327q0 62 30 104t126 42q99 0 129.5 -40t30.5 -106q0 -30 -5.5 -58t-22.5 -49.5t-48.5 -33.5t-83.5 -12q-53 0 -84 13t-47.5 33.5t-20.5 48.5t-4 58zM673 1327q0 62 31 104t127 42q100 0 129 -40t29 -106q0 -30 -5 -58t-22.5 -49.5t-48.5 -33.5t-82 -12 q-52 0 -83.5 13t-47.5 33.5t-21.5 48.5t-5.5 58z" />
<glyph unicode="&#xa9;" horiz-adv-x="1775" d="M125 722q0 158 59 295.5t162 238.5t242 160t298 59q162 0 301.5 -59t242.5 -160t161.5 -238.5t58.5 -295.5q0 -157 -60.5 -294.5t-163.5 -238.5t-242.5 -160t-297.5 -59q-159 0 -298 59t-242 160t-162 239t-59 294zM306 722q0 -120 45 -225t124 -185t184.5 -125 t226.5 -45t227 45t185 125t125 185t46 225q0 121 -46 226.5t-125 184t-185 123.5t-227 45t-226.5 -45t-184.5 -123.5t-124 -184t-45 -226.5zM521 708q0 80 14.5 157t54.5 139.5t112 101t188 38.5q58 0 122.5 -8.5t114.5 -29.5q19 -9 30 -20t6 -35l-14 -75q-9 -30 -45 -24 q-44 7 -99 10.5t-98 3.5q-53 0 -86 -20.5t-52.5 -55t-27.5 -81t-8 -97.5q0 -60 8 -108t27.5 -81t52.5 -50t86 -17q52 0 95 2t104 8q34 6 45 -23l15 -67q6 -24 -3.5 -36.5t-29.5 -21.5q-49 -21 -116 -31t-127 -10q-114 0 -186 38t-113 98.5t-55.5 137.5t-14.5 157z" />
<glyph unicode="&#xaa;" horiz-adv-x="846" d="M47 718q0 66 20.5 109t59.5 69.5t93.5 37t121.5 10.5h155v20q0 39 -28 56.5t-114 17.5q-31 0 -75 -3t-87 -7q-12 -2 -21.5 -3t-19.5 -1t-16.5 5t-10.5 22l-16 74q-4 26 6 42.5t49 30.5q60 21 130.5 29t122.5 8q105 0 170 -19.5t100 -55t46 -88t11 -118.5v-210 q0 -36 8.5 -45t37.5 -13q26 -5 33.5 -9t7.5 -28v-90q0 -21 -14.5 -30.5t-40.5 -17.5q-41 -8 -97 -8q-53 0 -96 17.5t-60 72.5h-4q-52 -49 -123.5 -71.5t-126.5 -22.5q-69 0 -112 18.5t-68 48t-33.5 69.5t-8.5 83zM303 727q0 -31 14 -39.5t48 -8.5q31 0 65 13.5t62 27.5v80 h-112q-78 0 -77 -73z" />
<glyph unicode="&#xab;" horiz-adv-x="1192" d="M71.5 438q2.5 18 18.5 38l232 285q11 11 27 24t38 13h256q19 0 24.5 -10t-4.5 -20l-276 -338l262 -331q6 -9 5.5 -24t-18.5 -15h-253q-24 0 -38 14t-25 27l-230 291q-21 28 -18.5 46zM526 438q3 18 18 38l232 285q10 11 26.5 24t38.5 13h255q19 0 25 -10t-5 -20 l-275 -338l263 -331q6 -9 5 -24t-19 -15h-253q-24 0 -38 14t-25 27l-230 291q-21 28 -18 46z" />
<glyph unicode="&#xac;" d="M154 636v146q0 45 46 45h886q28 0 36.5 -9.5t8.5 -32.5v-523q0 -28 -10.5 -35.5t-34.5 -7.5h-187q-24 0 -35.5 7.5t-11.5 35.5v327h-652q-46 0 -46 47z" />
<glyph unicode="&#xae;" horiz-adv-x="1153" d="M92 1084q0 102 39 190.5t107 155t157 104.5t192 38t193 -38t157 -104.5t104.5 -155t37.5 -190.5q0 -103 -38.5 -191.5t-105.5 -155t-156 -104.5t-192 -38t-192 38t-157 104.5t-107 155t-39 191.5zM213 1084q0 -78 29 -144.5t80.5 -117t119 -79.5t145.5 -29t144.5 29 t117 79.5t79.5 117t29 144.5q0 77 -29 144t-79.5 117t-117 79t-144.5 29t-145.5 -29t-119 -79t-80.5 -117t-29 -144zM390 839v501q0 24 23 23h200q33 0 66 -9.5t58.5 -30t42 -52.5t16.5 -77q0 -43 -18.5 -84t-67.5 -65l96 -206q11 -24 -12 -24h-106q-24 0 -36 22 q-4 10 -15 36t-24 53.5t-23.5 53.5t-17.5 37h-43v-178q0 -6 -2 -15t-18 -9h-98q-15 0 -18 6t-3 18zM529 1133h62q19 0 40 11t21 48q0 30 -18.5 41.5t-42.5 11.5h-62v-112z" />
<glyph unicode="&#xaf;" horiz-adv-x="1151" d="M219 1258v152q0 45 46 45h656q26 0 34.5 -10.5t8.5 -31.5v-155q0 -24 -9 -34.5t-34 -10.5h-656q-46 0 -46 45z" />
<glyph unicode="&#xb0;" horiz-adv-x="844" d="M78 1116q0 66 27.5 126.5t76 106.5t112 73t136.5 27q74 0 137 -27t109 -73t73 -106.5t27 -126.5q0 -69 -27 -130t-74 -106t-109 -71.5t-136 -26.5q-81 0 -147 26.5t-111 71.5t-69.5 106t-24.5 130zM286 1112q0 -56 39.5 -97t100.5 -41q56 0 97 41t41 97t-41 97t-97 41 q-55 0 -97.5 -41t-42.5 -97z" />
<glyph unicode="&#xb1;" d="M154 71v138q0 45 46 45h886q28 0 35.5 -10t7.5 -33v-140q0 -24 -7.5 -34.5t-35.5 -10.5h-886q-46 0 -46 45zM154 714v150q0 43 43 43h302v273q0 45 47 45h194q24 0 33 -9.5t9 -35.5v-273h304q28 0 36.5 -9.5t8.5 -33.5v-150q0 -24 -8.5 -34.5t-36.5 -10.5h-304v-299 q0 -27 -9.5 -35t-30.5 -8h-196q-26 0 -36.5 8.5t-10.5 34.5v299h-302q-43 0 -43 45z" />
<glyph unicode="&#xb4;" horiz-adv-x="1151" d="M463.5 1238.5q-5.5 11.5 4.5 31.5l201 371q12 24 28.5 25.5t31.5 -6.5l163 -92q46 -24 11 -64l-254 -326q-11 -15 -22.5 -22t-31.5 3l-111 60q-15 8 -20.5 19.5z" />
<glyph unicode="&#xb6;" horiz-adv-x="1212" d="M51 985q0 109 33 193t89.5 140t134 84t168.5 28h618q31 0 42 -13t11 -36v-166q0 -26 -11 -39t-42 -13h-38v-1341q0 -31 -13 -41.5t-37 -10.5h-146q-24 0 -36.5 10.5t-12.5 41.5v1344h-187v-1344q0 -31 -13.5 -41.5t-36.5 -10.5h-144q-26 0 -40 10.5t-14 41.5v785 q-78 4 -139 37t-102 84.5t-62.5 118.5t-21.5 138z" />
<glyph unicode="&#xb7;" horiz-adv-x="502" d="M80 579q0 66 34 113.5t138 47.5q54 0 87 -12t52.5 -33.5t25.5 -51.5t6 -64q0 -31 -6 -61t-24.5 -52.5t-52.5 -36.5t-88 -14q-58 0 -91.5 14t-52 37.5t-23.5 52.5t-5 60z" />
<glyph unicode="&#xb8;" horiz-adv-x="913" d="M273 -449l20 88q2 15 25 12q33 -4 71.5 -8t66.5 -4q49 0 88 15t39 73q0 45 -38 52.5t-119 11.5q-49 4 -32 51l62 177q0 2 5 9t15 7h107q10 0 11 -7t-1 -11l-47 -120q71 -2 115.5 -17t69 -40t32 -54t7.5 -61q0 -97 -71 -161.5t-223 -64.5q-17 0 -40 1t-49 4.5t-50.5 8.5 t-43.5 11q-24 9 -20 27z" />
<glyph unicode="&#xba;" horiz-adv-x="814" d="M54 876q0 47 11 109t47 116t105 91.5t185 37.5q117 0 187.5 -32t109 -82.5t50.5 -114t12 -125.5q0 -58 -9.5 -124t-45 -122t-107.5 -92.5t-197 -36.5q-123 0 -191.5 36.5t-104 92.5t-44 121.5t-8.5 124.5zM310 864q0 -82 18 -118t74 -36q62 0 82.5 37t20.5 117t-19.5 119 t-81.5 39q-55 0 -74.5 -41t-19.5 -117z" />
<glyph unicode="&#xbb;" horiz-adv-x="1192" d="M75.5 787q4.5 11 25.5 11h250q24 0 39.5 -13t26.5 -26l230 -285q17 -21 18.5 -40t-18.5 -42l-232 -291q-11 -13 -25 -27t-35 -14h-258q-17 0 -17 14t6 23l267 333l-273 335q-9 11 -4.5 22zM528 787q5 11 24 11h252q24 0 40 -13t26 -26l231 -285q17 -25 18 -42t-18 -40 l-233 -291q-10 -13 -23.5 -27t-36.5 -14h-258q-17 0 -18 14t6 23l266 333l-271 335q-10 11 -5 22z" />
<glyph unicode="&#xbf;" horiz-adv-x="936" d="M62 -45q0 58 17.5 104t45 81.5t60 62.5t63.5 49q41 30 73 59t52.5 60t31 69t10.5 87v82q0 17 6.5 32t30.5 15h213q24 0 33.5 -9t13.5 -34q4 -32 5 -58t1 -52q0 -80 -16 -138.5t-46 -106t-74 -88.5t-98 -86q-35 -26 -53 -51t-18 -57q0 -56 39.5 -78.5t130.5 -22.5 q49 0 104 3t105 11q39 4 49.5 -3t14.5 -34l10 -125q4 -30 -1 -43t-38 -28q-81 -33 -163.5 -41.5t-132.5 -8.5q-228 0 -348.5 89.5t-120.5 259.5zM396 914q0 30 6 58t24.5 50.5t50.5 36.5t87 14q53 0 86.5 -14t50.5 -36.5t22.5 -51.5t5.5 -57q0 -65 -33 -111t-132 -46 q-103 0 -135.5 43.5t-32.5 113.5z" />
<glyph unicode="&#xc0;" horiz-adv-x="1328" d="M18.5 9.5q-8.5 9.5 2.5 46.5l416 1312q10 31 25.5 46.5t58.5 15.5h271q45 0 58.5 -17.5t25.5 -47.5l431 -1314q7 -26 2.5 -38.5t-27.5 -12.5h-267q-36 0 -49.5 16.5t-23.5 49.5l-72 256h-427l-78 -262q-10 -35 -27.5 -47.5t-47.5 -12.5h-239q-24 0 -32.5 9.5zM245 1722.5 q-5 17.5 11 34.5l118 149q10 10 25.5 15.5t37.5 -11.5l324 -265q19 -14 18 -26.5t-11 -22.5l-80 -102q-15 -17 -29 -14.5t-29 10.5l-359 205q-21 10 -26 27.5zM517 585h279l-65 236l-68 263h-11l-71 -261z" />
<glyph unicode="&#xc1;" horiz-adv-x="1328" d="M18.5 9.5q-8.5 9.5 2.5 46.5l416 1312q10 31 25.5 46.5t58.5 15.5h271q45 0 58.5 -17.5t25.5 -47.5l431 -1314q7 -26 2.5 -38.5t-27.5 -12.5h-267q-36 0 -49.5 16.5t-23.5 49.5l-72 256h-427l-78 -262q-10 -35 -27.5 -47.5t-47.5 -12.5h-239q-24 0 -32.5 9.5zM509.5 1647 q-0.5 13 21.5 26l351 230q24 14 39 8.5t23 -21.5l99 -159q28 -41 -19 -63l-379 -164q-17 -7 -30 -7.5t-26 17.5l-70 107q-9 13 -9.5 26zM517 585h279l-65 236l-68 263h-11l-71 -261z" />
<glyph unicode="&#xc2;" horiz-adv-x="1328" d="M18.5 9.5q-8.5 9.5 2.5 46.5l416 1312q10 31 25.5 46.5t58.5 15.5h271q45 0 58.5 -17.5t25.5 -47.5l431 -1314q7 -26 2.5 -38.5t-27.5 -12.5h-267q-36 0 -49.5 16.5t-23.5 49.5l-72 256h-427l-78 -262q-10 -35 -27.5 -47.5t-47.5 -12.5h-239q-24 0 -32.5 9.5zM210 1588 q-1 10 16 31l264 242q19 16 33.5 26.5t50.5 10.5h138q39 0 52.5 -7t33.5 -24l265 -246q19 -17 16.5 -29t-19.5 -29l-71 -75q-17 -17 -28 -14t-32 18l-291 187l-279 -189q-21 -17 -33 -18t-29 16l-69 73q-17 17 -18 27zM517 585h279l-65 236l-68 263h-11l-71 -261z" />
<glyph unicode="&#xc3;" horiz-adv-x="1328" d="M18.5 9.5q-8.5 9.5 2.5 46.5l416 1312q10 31 25.5 46.5t58.5 15.5h271q45 0 58.5 -17.5t25.5 -47.5l431 -1314q7 -26 2.5 -38.5t-27.5 -12.5h-267q-36 0 -49.5 16.5t-23.5 49.5l-72 256h-427l-78 -262q-10 -35 -27.5 -47.5t-47.5 -12.5h-239q-24 0 -32.5 9.5zM203 1566.5 q-10 11.5 0 33.5q51 134 126 188.5t151 54.5q45 0 92.5 -16.5t92.5 -36.5t87 -36t73 -16q72 0 121 82q11 16 23 17.5t35 -9.5l80 -43q30 -15 20 -49q-56 -136 -125.5 -185t-151.5 -49q-36 0 -82 15.5t-93.5 35t-91 35.5t-78.5 16q-26 0 -58 -14t-69 -65q-11 -17 -19.5 -20 t-34.5 9l-82 37q-6 4 -16 15.5zM517 585h279l-65 236l-68 263h-11l-71 -261z" />
<glyph unicode="&#xc4;" horiz-adv-x="1328" d="M18.5 9.5q-8.5 9.5 2.5 46.5l416 1312q10 31 25.5 46.5t58.5 15.5h271q45 0 58.5 -17.5t25.5 -47.5l431 -1314q7 -26 2.5 -38.5t-27.5 -12.5h-267q-36 0 -49.5 16.5t-23.5 49.5l-72 256h-427l-78 -262q-10 -35 -27.5 -47.5t-47.5 -12.5h-239q-24 0 -32.5 9.5zM275 1645 q0 62 30 104t128 42t128 -39.5t30 -106.5q0 -30 -5 -58t-22.5 -49.5t-48.5 -33.5t-82 -12q-54 0 -85.5 13t-47.5 33.5t-20.5 48.5t-4.5 58zM517 585h279l-65 236l-68 263h-11l-71 -261zM716 1645q0 62 31 104t129 42t127 -39.5t29 -106.5q0 -30 -5 -58t-22.5 -49.5 t-47.5 -33.5t-81 -12q-54 0 -85.5 13t-47.5 33.5t-21.5 48.5t-5.5 58z" />
<glyph unicode="&#xc5;" horiz-adv-x="1328" d="M18.5 9.5q-8.5 9.5 2.5 46.5l416 1312q10 31 25.5 46.5t58.5 15.5h271q45 0 58.5 -17.5t25.5 -47.5l431 -1314q7 -26 2.5 -38.5t-27.5 -12.5h-267q-36 0 -49.5 16.5t-23.5 49.5l-72 256h-427l-78 -262q-10 -35 -27.5 -47.5t-47.5 -12.5h-239q-24 0 -32.5 9.5zM383 1709 q0 58 22.5 106t61 82t88 53.5t103.5 19.5t103.5 -21.5t85 -57.5t57 -83t21.5 -99q0 -53 -21.5 -101.5t-57 -84t-85 -56t-103.5 -20.5q-53 0 -103 19.5t-88.5 54t-61 83t-22.5 105.5zM517 585h279l-65 236l-68 263h-11l-71 -261zM559 1709q0 -47 28 -75t71 -28q39 0 67 30 t28 73q0 41 -28 71t-67 30q-41 0 -70 -30t-29 -71z" />
<glyph unicode="&#xc6;" horiz-adv-x="1999" d="M21 54l708 1323q17 30 35 41.5t63 11.5h1018q49 0 49 -47v-197q0 -18 -9.5 -31.5t-39.5 -13.5h-555v-259h487q47 0 47 -45v-197q0 -18 -10 -31.5t-37 -13.5h-487v-309h567q46 0 46 -48v-195q0 -19 -9.5 -31t-38.5 -12h-862q-30 0 -38.5 13t-8.5 30v279h-427l-147 -273 q-31 -49 -86 -49h-243q-49 0 -22 54zM656 585h290v552h-4z" />
<glyph unicode="&#xc7;" horiz-adv-x="1274" d="M125 708q0 131 24.5 263.5t92.5 237.5t189 170.5t318 65.5q100 0 209 -16t195 -52q32 -15 49 -33.5t9 -59.5l-29 -125q-6 -30 -19.5 -38.5t-52.5 -4.5q-90 11 -175.5 17t-154.5 6q-90 0 -147 -33t-89.5 -91t-44 -135.5t-11.5 -165.5q0 -101 11.5 -181.5t44 -136.5 t89.5 -85.5t145 -29.5t160.5 7t173.5 18q41 4 53.5 -3.5t20.5 -40.5l29 -114q10 -41 -5.5 -61.5t-48.5 -35.5q-41 -16 -91 -30.5t-105.5 -24t-110 -13.5t-103.5 -4h-18l-32 -82q72 -2 115.5 -17t68 -40t32.5 -54t8 -61q0 -97 -71.5 -161.5t-223.5 -64.5q-17 0 -39.5 1 t-48 4.5t-51 8.5t-44.5 11q-24 9 -19 27l19 88q2 15 27 12q32 -4 70.5 -8t66.5 -4q49 0 87.5 15t38.5 73q0 45 -37 52.5t-119 11.5q-50 4 -33 51l52 150q-146 24 -238.5 93t-145 168.5t-72 216.5t-19.5 238z" />
<glyph unicode="&#xc8;" horiz-adv-x="1199" d="M146 45v1336q0 21 10 35t37 14h854q45 0 45 -47v-197q0 -18 -9.5 -31.5t-37.5 -13.5h-557v-259h486q50 0 50 -45v-197q0 -18 -10 -31.5t-40 -13.5h-486v-309h568q48 0 48 -48v-195q0 -19 -10 -31t-38 -12h-863q-28 0 -37.5 13t-9.5 32zM243 1722.5q-5 17.5 11 34.5 l118 149q10 10 25.5 15.5t37.5 -11.5l324 -265q19 -14 18 -26.5t-12 -22.5l-79 -102q-15 -17 -29 -14.5t-29 10.5l-359 205q-21 10 -26 27.5z" />
<glyph unicode="&#xc9;" horiz-adv-x="1199" d="M146 45v1336q0 21 10 35t37 14h854q45 0 45 -47v-197q0 -18 -9.5 -31.5t-37.5 -13.5h-557v-259h486q50 0 50 -45v-197q0 -18 -10 -31.5t-40 -13.5h-486v-309h568q48 0 48 -48v-195q0 -19 -10 -31t-38 -12h-863q-28 0 -37.5 13t-9.5 32zM411 1647q0 13 22 26l349 230 q24 14 39.5 8.5t23.5 -21.5l99 -159q28 -41 -19 -63l-379 -164q-17 -7 -30 -7.5t-26 17.5l-71 107q-8 13 -8 26z" />
<glyph unicode="&#xca;" horiz-adv-x="1199" d="M146 45v1336q0 21 10 35t37 14h854q45 0 45 -47v-197q0 -18 -9.5 -31.5t-37.5 -13.5h-557v-259h486q50 0 50 -45v-197q0 -18 -10 -31.5t-40 -13.5h-486v-309h568q48 0 48 -48v-195q0 -19 -10 -31t-38 -12h-863q-28 0 -37.5 13t-9.5 32zM184.5 1588q-1.5 10 15.5 31 l264 242q19 16 33 26.5t51 10.5h138q38 0 52.5 -7t33.5 -24l264 -246q19 -17 17 -29t-19 -29l-70 -75q-17 -17 -28 -14t-33 18l-290 187l-280 -189q-21 -17 -33 -18t-29 16l-68 73q-17 17 -18.5 27z" />
<glyph unicode="&#xcb;" horiz-adv-x="1199" d="M146 45v1336q0 21 10 35t37 14h854q45 0 45 -47v-197q0 -18 -9.5 -31.5t-37.5 -13.5h-557v-259h486q50 0 50 -45v-197q0 -18 -10 -31.5t-40 -13.5h-486v-309h568q48 0 48 -48v-195q0 -19 -10 -31t-38 -12h-863q-28 0 -37.5 13t-9.5 32zM243 1645q0 62 30 104t127 42 q99 0 129 -39.5t30 -106.5q0 -30 -5.5 -58t-23 -49.5t-48 -33.5t-82.5 -12q-54 0 -85 13t-47 33.5t-20.5 48.5t-4.5 58zM684 1645q0 62 31.5 104t127.5 42q99 0 128 -39.5t29 -106.5q0 -30 -5.5 -58t-23 -49.5t-47 -33.5t-81.5 -12q-53 0 -84.5 13t-47.5 33.5t-21.5 48.5 t-5.5 58z" />
<glyph unicode="&#xcc;" horiz-adv-x="653" d="M-87.5 1722.5q-4.5 17.5 9.5 34.5l119 149q10 10 25.5 15.5t36.5 -11.5l325 -265q19 -14 18 -26.5t-11 -22.5l-80 -102q-15 -17 -29 -14.5t-29 10.5l-359 205q-21 10 -25.5 27.5zM154 47v1334q0 21 10 35t36 14h252q30 0 37.5 -16t7.5 -33v-1334q0 -17 -7.5 -32 t-37.5 -15h-252q-27 0 -36.5 13t-9.5 34z" />
<glyph unicode="&#xcd;" horiz-adv-x="653" d="M154 47v1334q0 21 10 35t36 14h252q30 0 37.5 -16t7.5 -33v-1334q0 -17 -7.5 -32t-37.5 -15h-252q-27 0 -36.5 13t-9.5 34zM187 1647q0 13 22 26l350 230q24 14 39 8.5t24 -21.5l98 -159q29 -41 -19 -63l-379 -164q-16 -7 -29.5 -7.5t-25.5 17.5l-72 107q-8 13 -8 26z " />
<glyph unicode="&#xce;" horiz-adv-x="653" d="M-95.5 1588q-1.5 10 15.5 31l265 242q19 16 33 26.5t51 10.5h137q39 0 53.5 -7t32.5 -24l265 -246q19 -17 17 -29t-19 -29l-71 -75q-17 -17 -28 -14t-32 18l-291 187l-279 -189q-21 -17 -33.5 -18t-28.5 16l-70 73q-16 17 -17.5 27zM154 47v1334q0 21 10 35t36 14h252 q30 0 37.5 -16t7.5 -33v-1334q0 -17 -7.5 -32t-37.5 -15h-252q-27 0 -36.5 13t-9.5 34z" />
<glyph unicode="&#xcf;" horiz-adv-x="653" d="M-47 1645q0 62 30 104t126 42q99 0 129.5 -39.5t30.5 -106.5q0 -30 -5.5 -58t-22.5 -49.5t-48.5 -33.5t-83.5 -12q-53 0 -84 13t-47.5 33.5t-20.5 48.5t-4 58zM154 47v1334q0 21 10 35t36 14h252q30 0 37.5 -16t7.5 -33v-1334q0 -17 -7.5 -32t-37.5 -15h-252 q-27 0 -36.5 13t-9.5 34zM394 1645q0 62 31 104t127 42q99 0 128.5 -39.5t29.5 -106.5q0 -30 -5.5 -58t-22.5 -49.5t-47.5 -33.5t-82.5 -12q-53 0 -84 13t-47.5 33.5t-21.5 48.5t-5 58z" />
<glyph unicode="&#xd0;" horiz-adv-x="1414" d="M-21 660v134q0 41 45 41h120v546q0 21 10 34t37 13h469q187 0 309.5 -58.5t194 -155t100.5 -225.5t29 -271q0 -144 -28 -274t-99.5 -228.5t-194 -157t-311.5 -58.5h-467q-30 0 -39.5 13t-9.5 34v573h-120q-45 0 -45 40zM484 286h138q73 0 131 22.5t98.5 72t63.5 129 t23 194.5q0 227 -73 332t-229 105h-152v-306h185q26 0 34.5 -10t8.5 -29v-136q0 -21 -8.5 -30.5t-34.5 -9.5h-185v-334z" />
<glyph unicode="&#xd1;" horiz-adv-x="1440" d="M142 45v1336q0 19 11 33t36 14h176q50 0 68.5 -17.5t34.5 -45.5q17 -28 56.5 -86t87.5 -132t100.5 -155t101 -155t86.5 -132t54 -83q3 0 4 1t3 1v755q0 16 9 32.5t39 16.5h238q27 0 36.5 -13t9.5 -36v-1334q0 -21 -10 -33t-36 -12h-176q-37 0 -56.5 13t-35.5 36 q-82 123 -164 244.5t-163 244.5l-170 262h-6v-755q0 -17 -9 -31t-37 -14h-239q-49 0 -49 45zM265 1580q51 134 126 189t151 55q45 0 92 -16.5t92.5 -37t87.5 -36.5t74 -16q72 0 121 82q11 16 22.5 18t35.5 -10l80 -43q30 -15 19 -49q-56 -136 -125 -185t-151 -49 q-36 0 -82.5 16t-93.5 35.5t-91 35t-79 15.5q-26 0 -58 -13.5t-69 -64.5q-11 -17 -19 -20.5t-35 8.5l-82 37q-6 4 -15.5 16t-0.5 33z" />
<glyph unicode="&#xd2;" horiz-adv-x="1481" d="M123 733q0 62 7.5 140.5t30 157.5t63.5 154t108.5 133.5t166 93.5t236.5 35q203 0 324 -63.5t188 -165.5t88.5 -230t21.5 -255q0 -123 -18.5 -255t-82.5 -242.5t-188 -182.5t-335 -72q-140 0 -239.5 33t-167.5 89.5t-108 131.5t-61.5 159t-27.5 171t-6 168zM437 1722.5 q-4 17.5 10 34.5l119 149q10 10 25.5 15.5t36.5 -11.5l324 -265q19 -14 18.5 -26.5t-11.5 -22.5l-79 -102q-15 -17 -29 -14.5t-30 10.5l-359 205q-21 10 -25 27.5zM484 710q0 -218 52.5 -326.5t200.5 -108.5q152 0 210.5 106.5t58.5 328.5q0 230 -57 336.5t-212 106.5 q-144 0 -198.5 -108.5t-54.5 -334.5z" />
<glyph unicode="&#xd3;" horiz-adv-x="1481" d="M123 733q0 62 7.5 140.5t30 157.5t63.5 154t108.5 133.5t166 93.5t236.5 35q203 0 324 -63.5t188 -165.5t88.5 -230t21.5 -255q0 -123 -18.5 -255t-82.5 -242.5t-188 -182.5t-335 -72q-140 0 -239.5 33t-167.5 89.5t-108 131.5t-61.5 159t-27.5 171t-6 168zM484 710 q0 -218 52.5 -326.5t200.5 -108.5q152 0 210.5 106.5t58.5 328.5q0 230 -57 336.5t-212 106.5q-144 0 -198.5 -108.5t-54.5 -334.5zM589 1647q0 13 22 26l350 230q24 14 39 8.5t24 -21.5l98 -159q29 -41 -18 -63l-380 -164q-16 -7 -29.5 -7.5t-25.5 17.5l-72 107 q-8 13 -8 26z" />
<glyph unicode="&#xd4;" horiz-adv-x="1481" d="M123 733q0 62 7.5 140.5t30 157.5t63.5 154t108.5 133.5t166 93.5t236.5 35q203 0 324 -63.5t188 -165.5t88.5 -230t21.5 -255q0 -123 -18.5 -255t-82.5 -242.5t-188 -182.5t-335 -72q-140 0 -239.5 33t-167.5 89.5t-108 131.5t-61.5 159t-27.5 171t-6 168zM317 1588 q-1 10 16 31l264 242q19 16 33.5 26.5t50.5 10.5h138q39 0 53 -7t33 -24l265 -246q19 -17 16.5 -29t-18.5 -29l-72 -75q-17 -17 -27.5 -14t-32.5 18l-289 187l-281 -189q-21 -17 -33 -18t-29 16l-69 73q-17 17 -18 27zM484 710q0 -218 52.5 -326.5t200.5 -108.5 q152 0 210.5 106.5t58.5 328.5q0 230 -57 336.5t-212 106.5q-144 0 -198.5 -108.5t-54.5 -334.5z" />
<glyph unicode="&#xd5;" horiz-adv-x="1481" d="M123 733q0 62 7.5 140.5t30 157.5t63.5 154t108.5 133.5t166 93.5t236.5 35q203 0 324 -63.5t188 -165.5t88.5 -230t21.5 -255q0 -123 -18.5 -255t-82.5 -242.5t-188 -182.5t-335 -72q-140 0 -239.5 33t-167.5 89.5t-108 131.5t-61.5 159t-27.5 171t-6 168zM299 1592 q52 133 127 187.5t150 54.5q46 0 93 -16t92 -36.5t87 -36.5t75 -16q71 0 120 81q10 17 22 18.5t36 -8.5l79 -43q31 -15 20 -50q-56 -135 -124.5 -185t-150.5 -50q-37 0 -83 16.5t-93.5 35.5t-91.5 35.5t-78 16.5q-27 0 -59 -14t-68 -66q-11 -17 -20 -20.5t-34 10.5l-82 35 q-6 5 -16 17t-1 34zM484 710q0 -218 52.5 -326.5t200.5 -108.5q152 0 210.5 106.5t58.5 328.5q0 230 -57 336.5t-212 106.5q-144 0 -198.5 -108.5t-54.5 -334.5z" />
<glyph unicode="&#xd6;" horiz-adv-x="1481" d="M123 733q0 62 7.5 140.5t30 157.5t63.5 154t108.5 133.5t166 93.5t236.5 35q203 0 324 -63.5t188 -165.5t88.5 -230t21.5 -255q0 -123 -18.5 -255t-82.5 -242.5t-188 -182.5t-335 -72q-140 0 -239.5 33t-167.5 89.5t-108 131.5t-61.5 159t-27.5 171t-6 168zM363 1645 q0 62 30 104t128 42q99 0 128.5 -39.5t29.5 -106.5q0 -30 -5 -58t-22.5 -49.5t-48.5 -33.5t-82 -12q-54 0 -85.5 13t-47.5 33.5t-20.5 48.5t-4.5 58zM484 710q0 -218 52.5 -326.5t200.5 -108.5q152 0 210.5 106.5t58.5 328.5q0 230 -57 336.5t-212 106.5 q-144 0 -198.5 -108.5t-54.5 -334.5zM804 1645q0 62 31 104t129 42q99 0 127.5 -39.5t28.5 -106.5q0 -30 -5 -58t-22.5 -49.5t-47.5 -33.5t-81 -12q-54 0 -85.5 13t-47.5 33.5t-21.5 48.5t-5.5 58z" />
<glyph unicode="&#xd8;" horiz-adv-x="1481" d="M123 733q0 62 7.5 140.5t30 157.5t63.5 154t108.5 133.5t166 93.5t236.5 35q135 0 233.5 -30t166.5 -79l49 64q17 24 26 28t31 -12l56 -44q21 -16 20 -25t-18 -31l-62 -83q73 -103 96.5 -236t23.5 -266q0 -123 -18.5 -255t-82.5 -242.5t-188 -182.5t-335 -72 q-123 0 -214 26t-158 71l-55 -74q-17 -24 -26 -28t-30 14l-57 43q-21 16 -20 24.5t18 30.5l67 86q-45 58 -70.5 127t-41 142.5t-19.5 147.5t-4 142zM484 710q0 -62 3 -116t12 -99l434 574q-61 84 -196 84q-144 0 -198.5 -108.5t-54.5 -334.5zM564 344q56 -69 173 -69 q152 0 210.5 106.5t58.5 328.5q0 58 -3 108t-12 93z" />
<glyph unicode="&#xd9;" horiz-adv-x="1410" d="M144 531v850q0 21 10 35t37 14h248q30 0 37.5 -16t7.5 -33v-841q0 -265 220 -265q109 0 167 64.5t58 200.5l-2 841q0 21 10.5 35t38.5 14h247q31 0 38 -16t7 -33l-2 -850q0 -62 -7 -125.5t-34 -130.5q-32 -80 -86.5 -135.5t-124.5 -91t-149.5 -51.5t-160.5 -16 q-136 -2 -240.5 37.5t-175.5 113t-107.5 175t-36.5 224.5zM348.5 1722.5q-4.5 17.5 10.5 34.5l119 149q10 10 25.5 15.5t36.5 -11.5l324 -265q19 -14 18.5 -26.5t-12.5 -22.5l-78 -102q-15 -17 -29 -14.5t-30 10.5l-359 205q-21 10 -25.5 27.5z" />
<glyph unicode="&#xda;" horiz-adv-x="1410" d="M144 531v850q0 21 10 35t37 14h248q30 0 37.5 -16t7.5 -33v-841q0 -265 220 -265q109 0 167 64.5t58 200.5l-2 841q0 21 10.5 35t38.5 14h247q31 0 38 -16t7 -33l-2 -850q0 -62 -7 -125.5t-34 -130.5q-32 -80 -86.5 -135.5t-124.5 -91t-149.5 -51.5t-160.5 -16 q-136 -2 -240.5 37.5t-175.5 113t-107.5 175t-36.5 224.5zM564 1647q0 13 21 26l351 230q24 14 38.5 8.5t23.5 -21.5l98 -159q29 -41 -19 -63l-378 -164q-17 -7 -30 -7.5t-26 17.5l-71 107q-8 13 -8 26z" />
<glyph unicode="&#xdb;" horiz-adv-x="1410" d="M144 531v850q0 21 10 35t37 14h248q30 0 37.5 -16t7.5 -33v-841q0 -265 220 -265q109 0 167 64.5t58 200.5l-2 841q0 21 10.5 35t38.5 14h247q31 0 38 -16t7 -33l-2 -850q0 -62 -7 -125.5t-34 -130.5q-32 -80 -86.5 -135.5t-124.5 -91t-149.5 -51.5t-160.5 -16 q-136 -2 -240.5 37.5t-175.5 113t-107.5 175t-36.5 224.5zM276.5 1588q-1.5 10 16.5 31l263 242q19 16 33.5 26.5t50.5 10.5h138q39 0 53 -7t33 -24l265 -246q19 -17 17 -29t-19 -29l-71 -75q-16 -17 -27.5 -14t-33.5 18l-289 187l-280 -189q-21 -17 -33.5 -18t-29.5 16 l-68 73q-17 17 -18.5 27z" />
<glyph unicode="&#xdc;" horiz-adv-x="1410" d="M144 531v850q0 21 10 35t37 14h248q30 0 37.5 -16t7.5 -33v-841q0 -265 220 -265q109 0 167 64.5t58 200.5l-2 841q0 21 10.5 35t38.5 14h247q31 0 38 -16t7 -33l-2 -850q0 -62 -7 -125.5t-34 -130.5q-32 -80 -86.5 -135.5t-124.5 -91t-149.5 -51.5t-160.5 -16 q-136 -2 -240.5 37.5t-175.5 113t-107.5 175t-36.5 224.5zM320 1645q0 62 30 104t128 42t128 -39.5t30 -106.5q0 -30 -5 -58t-22.5 -49.5t-48.5 -33.5t-82 -12q-54 0 -85.5 13t-47.5 33.5t-20.5 48.5t-4.5 58zM761 1645q0 62 31 104t129 42q99 0 127.5 -39.5t28.5 -106.5 q0 -30 -5 -58t-22.5 -49.5t-47.5 -33.5t-81 -12q-54 0 -85.5 13t-47.5 33.5t-21.5 48.5t-5.5 58z" />
<glyph unicode="&#xdd;" horiz-adv-x="1352" d="M24 1414q6 16 30 16h256q36 0 51 -11t33 -40l142 -283l127 -257h12l133 260l138 264q17 32 32 49.5t52 17.5h258q27 0 33 -15t-5 -32l-485 -858v-478q0 -17 -8 -32t-35 -15h-250q-48 0 -48 47v478l-462 852q-10 21 -4 37zM521 1647q0 13 21 26l350 230q25 14 39.5 8.5 t22.5 -21.5l100 -159q29 -41 -20 -63l-378 -164q-17 -7 -30 -7.5t-26 17.5l-71 107q-8 13 -8 26z" />
<glyph unicode="&#xde;" horiz-adv-x="1227" d="M140 47v1334q0 21 10 35t37 14h248q30 0 38.5 -16t8.5 -33v-197h202q98 0 187.5 -27.5t156 -82t105.5 -138.5t39 -196q0 -75 -20.5 -156t-75 -147.5t-149 -111t-241.5 -44.5h-204v-234q0 -17 -8 -32t-37 -15h-250q-28 0 -37.5 13t-9.5 34zM482 556h161q84 0 131 44.5 t47 132.5q0 86 -50.5 126t-134.5 40h-154v-343z" />
<glyph unicode="&#xdf;" horiz-adv-x="1186" d="M101 10v1076q0 123 43 209t109.5 139.5t145.5 77t149 23.5q205 0 328.5 -97.5t123.5 -293.5q0 -24 -5.5 -58.5t-18 -70.5t-35.5 -73t-57 -62q66 -26 108 -69t64.5 -97t30 -117.5t7.5 -128.5q0 -496 -423 -494q-19 0 -43 1t-45 6q-17 4 -36.5 14.5t-17.5 47.5l11 154 q2 25 9 29t36 10q99 13 137.5 68t36.5 182q0 115 -39 170.5t-148 61.5q-24 2 -31.5 14t-7.5 23v115q0 29 14.5 37.5t24.5 13.5q70 26 96.5 76t26.5 117q0 62 -32.5 105t-100.5 43q-56 0 -94 -41t-38 -129v-1082q0 -16 -8.5 -31.5t-38.5 -15.5h-237q-26 0 -35.5 13.5 t-9.5 33.5z" />
<glyph unicode="&#xe0;" horiz-adv-x="1231" d="M84 299q-2 99 27 168t83 111t131 60t172 18h247v34q0 34 -7.5 58t-28 39t-57 22.5t-97.5 7.5q-24 0 -59 -2t-73.5 -4.5t-77 -6.5t-71.5 -6q-45 -4 -59 0t-23 37l-23 111q-4 28 7.5 46.5t60.5 37.5q37 13 85.5 23t99 16t100 9.5t86.5 3.5q150 0 241.5 -28t139.5 -79.5 t63.5 -127t15.5 -172.5v-340q0 -35 3 -54t11.5 -28.5t23.5 -14t42 -6.5q28 -2 36.5 -9.5t8.5 -27.5v-137q0 -43 -63 -56q-60 -15 -134 -15q-79 0 -139 27t-82 113l-4 2q-43 -39 -92.5 -66.5t-101 -46t-101 -26t-90.5 -7.5q-94 0 -153.5 27t-92 70t-44 99.5t-11.5 119.5z M340 1475q-34 39 4 64l148 115q15 8 30.5 9t31.5 -22l240 -342q14 -19 9 -31t-15 -21l-102 -79q-15 -13 -29 -7.5t-25 15.5zM415 316q0 -49 20.5 -68.5t75.5 -19.5q50 0 115.5 23.5t110.5 51.5v144h-193q-60 0 -94.5 -27.5t-34.5 -103.5z" />
<glyph unicode="&#xe1;" horiz-adv-x="1231" d="M84 299q-2 99 27 168t83 111t131 60t172 18h247v34q0 34 -7.5 58t-28 39t-57 22.5t-97.5 7.5q-24 0 -59 -2t-73.5 -4.5t-77 -6.5t-71.5 -6q-45 -4 -59 0t-23 37l-23 111q-4 28 7.5 46.5t60.5 37.5q37 13 85.5 23t99 16t100 9.5t86.5 3.5q150 0 241.5 -28t139.5 -79.5 t63.5 -127t15.5 -172.5v-340q0 -35 3 -54t11.5 -28.5t23.5 -14t42 -6.5q28 -2 36.5 -9.5t8.5 -27.5v-137q0 -43 -63 -56q-60 -15 -134 -15q-79 0 -139 27t-82 113l-4 2q-43 -39 -92.5 -66.5t-101 -46t-101 -26t-90.5 -7.5q-94 0 -153.5 27t-92 70t-44 99.5t-11.5 119.5z M415 316q0 -49 20.5 -68.5t75.5 -19.5q50 0 115.5 23.5t110.5 51.5v144h-193q-60 0 -94.5 -27.5t-34.5 -103.5zM491.5 1238.5q-5.5 11.5 5.5 31.5l200 371q13 24 29 25.5t31 -6.5l164 -92q45 -24 10 -64l-254 -326q-10 -15 -22 -22t-31 3l-113 60q-14 8 -19.5 19.5z" />
<glyph unicode="&#xe2;" horiz-adv-x="1231" d="M84 299q-2 99 27 168t83 111t131 60t172 18h247v34q0 34 -7.5 58t-28 39t-57 22.5t-97.5 7.5q-24 0 -59 -2t-73.5 -4.5t-77 -6.5t-71.5 -6q-45 -4 -59 0t-23 37l-23 111q-4 28 7.5 46.5t60.5 37.5q37 13 85.5 23t99 16t100 9.5t86.5 3.5q150 0 241.5 -28t139.5 -79.5 t63.5 -127t15.5 -172.5v-340q0 -35 3 -54t11.5 -28.5t23.5 -14t42 -6.5q28 -2 36.5 -9.5t8.5 -27.5v-137q0 -43 -63 -56q-60 -15 -134 -15q-79 0 -139 27t-82 113l-4 2q-43 -39 -92.5 -66.5t-101 -46t-101 -26t-90.5 -7.5q-94 0 -153.5 27t-92 70t-44 99.5t-11.5 119.5z M164 1236q0 11 17 30l260 287q17 19 32 29t54 10h138q41 0 53.5 -8t30.5 -25l262 -295q17 -19 17 -30t-17 -25l-75 -72q-19 -17 -31.5 -14.5t-31.5 16.5l-284 220l-271 -218q-21 -16 -33 -18.5t-29 14.5l-75 74q-17 14 -17 25zM415 316q0 -49 20.5 -68.5t75.5 -19.5 q50 0 115.5 23.5t110.5 51.5v144h-193q-60 0 -94.5 -27.5t-34.5 -103.5z" />
<glyph unicode="&#xe3;" horiz-adv-x="1231" d="M84 299q-2 99 27 168t83 111t131 60t172 18h247v34q0 34 -7.5 58t-28 39t-57 22.5t-97.5 7.5q-24 0 -59 -2t-73.5 -4.5t-77 -6.5t-71.5 -6q-45 -4 -59 0t-23 37l-23 111q-4 28 7.5 46.5t60.5 37.5q37 13 85.5 23t99 16t100 9.5t86.5 3.5q150 0 241.5 -28t139.5 -79.5 t63.5 -127t15.5 -172.5v-340q0 -35 3 -54t11.5 -28.5t23.5 -14t42 -6.5q28 -2 36.5 -9.5t8.5 -27.5v-137q0 -43 -63 -56q-60 -15 -134 -15q-79 0 -139 27t-82 113l-4 2q-43 -39 -92.5 -66.5t-101 -46t-101 -26t-90.5 -7.5q-94 0 -153.5 27t-92 70t-44 99.5t-11.5 119.5z M174 1268q52 134 127 189t151 55q45 0 92 -16.5t92 -37t87 -36.5t75 -16q71 0 120 82q10 17 22 18.5t36 -10.5l80 -43q31 -15 19 -49q-55 -136 -124 -185t-151 -49q-37 0 -83 16t-93.5 35.5t-91.5 35.5t-78 16q-27 0 -59 -14t-68 -65q-11 -17 -19.5 -20.5t-34.5 8.5l-82 37 q-6 4 -15.5 16t-1.5 33zM415 316q0 -49 20.5 -68.5t75.5 -19.5q50 0 115.5 23.5t110.5 51.5v144h-193q-60 0 -94.5 -27.5t-34.5 -103.5z" />
<glyph unicode="&#xe4;" horiz-adv-x="1231" d="M84 299q-2 99 27 168t83 111t131 60t172 18h247v34q0 34 -7.5 58t-28 39t-57 22.5t-97.5 7.5q-24 0 -59 -2t-73.5 -4.5t-77 -6.5t-71.5 -6q-45 -4 -59 0t-23 37l-23 111q-4 28 7.5 46.5t60.5 37.5q37 13 85.5 23t99 16t100 9.5t86.5 3.5q150 0 241.5 -28t139.5 -79.5 t63.5 -127t15.5 -172.5v-340q0 -35 3 -54t11.5 -28.5t23.5 -14t42 -6.5q28 -2 36.5 -9.5t8.5 -27.5v-137q0 -43 -63 -56q-60 -15 -134 -15q-79 0 -139 27t-82 113l-4 2q-43 -39 -92.5 -66.5t-101 -46t-101 -26t-90.5 -7.5q-94 0 -153.5 27t-92 70t-44 99.5t-11.5 119.5z M236 1327q0 62 30.5 104t127.5 42q98 0 128 -40t30 -106q0 -30 -5 -58t-22.5 -49.5t-48.5 -33.5t-82 -12q-54 0 -85.5 13t-47.5 33.5t-20.5 48.5t-4.5 58zM415 316q0 -49 20.5 -68.5t75.5 -19.5q50 0 115.5 23.5t110.5 51.5v144h-193q-60 0 -94.5 -27.5t-34.5 -103.5z M686 1327q0 62 31.5 104t125.5 42q101 0 130 -40t29 -106q0 -30 -5.5 -58t-22.5 -49.5t-48 -33.5t-83 -12q-51 0 -82.5 13t-47.5 33.5t-21.5 48.5t-5.5 58z" />
<glyph unicode="&#xe5;" horiz-adv-x="1231" d="M84 299q-2 99 27 168t83 111t131 60t172 18h247v34q0 34 -7.5 58t-28 39t-57 22.5t-97.5 7.5q-24 0 -59 -2t-73.5 -4.5t-77 -6.5t-71.5 -6q-45 -4 -59 0t-23 37l-23 111q-4 28 7.5 46.5t60.5 37.5q37 13 85.5 23t99 16t100 9.5t86.5 3.5q150 0 241.5 -28t139.5 -79.5 t63.5 -127t15.5 -172.5v-340q0 -35 3 -54t11.5 -28.5t23.5 -14t42 -6.5q28 -2 36.5 -9.5t8.5 -27.5v-137q0 -43 -63 -56q-60 -15 -134 -15q-79 0 -139 27t-82 113l-4 2q-43 -39 -92.5 -66.5t-101 -46t-101 -26t-90.5 -7.5q-94 0 -153.5 27t-92 70t-44 99.5t-11.5 119.5z M353 1402q0 58 22.5 105.5t61.5 81.5t88 53.5t103 19.5q53 0 102.5 -21.5t85.5 -56.5t57.5 -83t21.5 -99q0 -54 -21.5 -102t-57.5 -84t-85.5 -56.5t-102.5 -20.5q-54 0 -103 19.5t-88 54t-61.5 83t-22.5 106.5zM415 316q0 -49 20.5 -68.5t75.5 -19.5q50 0 115.5 23.5 t110.5 51.5v144h-193q-60 0 -94.5 -27.5t-34.5 -103.5zM529 1402q0 -48 28 -75.5t71 -27.5q39 0 66.5 30t27.5 73q0 41 -27.5 71.5t-66.5 30.5q-41 0 -70 -30.5t-29 -71.5z" />
<glyph unicode="&#xe6;" horiz-adv-x="1806" d="M94 297q0 191 109 269.5t302 78.5h250v45q0 34 -7.5 58t-28 39t-58 22.5t-95.5 7.5q-24 0 -58 -2t-73 -4.5t-79 -6.5t-72 -6q-31 -4 -52 -3t-29 38l-25 111q-6 30 8 48.5t59 35.5q36 13 85.5 22.5t100.5 16t100.5 9.5t85.5 3q125 0 204.5 -22.5t130.5 -75.5 q52 45 124.5 71.5t168.5 26.5q155 0 251 -44t148.5 -115t72 -159t19.5 -176q0 -66 -26 -104t-93 -38h-529q4 -62 20.5 -98.5t44 -57t68.5 -27t97 -6.5q49 0 121.5 5.5t138.5 15.5q31 4 48 2t26 -45l19 -107q6 -37 -2.5 -56.5t-55.5 -38.5q-33 -12 -77 -21t-92.5 -15.5 t-95.5 -9.5t-86 -3q-157 0 -255 39.5t-153 110.5q-93 -75 -204.5 -111.5t-238.5 -36.5q-101 0 -163.5 26t-96.5 70t-45.5 99.5t-11.5 118.5zM426 312q0 -45 20.5 -65.5t74.5 -20.5q24 0 57 7t68 18t69 25t57 27q-9 37 -12 69t-7 71h-183q-78 0 -111 -30t-33 -101zM1096 643 h295q0 32 -7 64.5t-23.5 58.5t-44.5 41.5t-71 15.5q-77 0 -110.5 -49.5t-38.5 -130.5z" />
<glyph unicode="&#xe7;" horiz-adv-x="1026" d="M88 536q0 96 18.5 193.5t71 176.5t149 127.5t256.5 48.5q86 0 177.5 -12t160.5 -42q53 -21 45 -80l-24 -131q-9 -35 -23 -38t-59 1q-64 6 -122.5 11t-109.5 5q-109 0 -157 -61.5t-48 -192.5q0 -158 44 -216.5t157 -58.5q45 0 117 4t141 13q35 4 46.5 -0.5t17.5 -38.5 l22 -118q8 -37 -0.5 -57.5t-56.5 -39.5q-62 -21 -149 -34t-162 -15l-32 -84q71 -2 115 -17t68.5 -40t32.5 -54t8 -61q0 -97 -71.5 -161.5t-223.5 -64.5q-17 0 -39.5 1t-48.5 4.5t-51 8.5t-44 11q-24 9 -19 27l19 88q2 15 26 12q33 -4 71 -8t67 -4q49 0 87.5 15t38.5 73 q0 45 -37.5 52.5t-119.5 11.5q-49 4 -32 51l51 148q-123 16 -197 67.5t-114.5 126t-53.5 166t-13 186.5z" />
<glyph unicode="&#xe8;" horiz-adv-x="1145" d="M90 523q0 78 13.5 174.5t62.5 182.5t147 144t268 58q154 0 249 -44.5t147.5 -115t72 -158t19.5 -173.5q0 -66 -24.5 -101.5t-94.5 -35.5h-524q2 -62 19 -101t46.5 -61.5t71 -30t95.5 -7.5q50 0 118.5 6.5t134.5 14.5q43 4 54 -1t20 -46l17 -101q6 -37 -0.5 -57.5 t-55.5 -39.5q-32 -10 -76.5 -20t-90.5 -16.5t-93.5 -9.5t-85.5 -3q-162 0 -262 45t-154.5 119t-74 172t-19.5 206zM301 1475q-34 39 5 64l148 115q14 8 29.5 9t33.5 -22l238 -342q15 -19 9.5 -31t-15.5 -21l-102 -79q-15 -13 -29 -7.5t-25 15.5zM430 647h299q0 77 -32 130.5 t-116 53.5q-76 0 -111 -47t-40 -137z" />
<glyph unicode="&#xe9;" horiz-adv-x="1145" d="M90 523q0 78 13.5 174.5t62.5 182.5t147 144t268 58q154 0 249 -44.5t147.5 -115t72 -158t19.5 -173.5q0 -66 -24.5 -101.5t-94.5 -35.5h-524q2 -62 19 -101t46.5 -61.5t71 -30t95.5 -7.5q50 0 118.5 6.5t134.5 14.5q43 4 54 -1t20 -46l17 -101q6 -37 -0.5 -57.5 t-55.5 -39.5q-32 -10 -76.5 -20t-90.5 -16.5t-93.5 -9.5t-85.5 -3q-162 0 -262 45t-154.5 119t-74 172t-19.5 206zM430 647h299q0 77 -32 130.5t-116 53.5q-76 0 -111 -47t-40 -137zM463.5 1238.5q-5.5 11.5 4.5 31.5l201 371q12 24 28.5 25.5t31.5 -6.5l163 -92 q46 -24 11 -64l-254 -326q-11 -15 -22.5 -22t-31.5 3l-111 60q-15 8 -20.5 19.5z" />
<glyph unicode="&#xea;" horiz-adv-x="1145" d="M90 523q0 78 13.5 174.5t62.5 182.5t147 144t268 58q154 0 249 -44.5t147.5 -115t72 -158t19.5 -173.5q0 -66 -24.5 -101.5t-94.5 -35.5h-524q2 -62 19 -101t46.5 -61.5t71 -30t95.5 -7.5q50 0 118.5 6.5t134.5 14.5q43 4 54 -1t20 -46l17 -101q6 -37 -0.5 -57.5 t-55.5 -39.5q-32 -10 -76.5 -20t-90.5 -16.5t-93.5 -9.5t-85.5 -3q-162 0 -262 45t-154.5 119t-74 172t-19.5 206zM152.5 1236q-0.5 11 17.5 30l260 287q17 19 32.5 29t54.5 10h137q41 0 53.5 -8t29.5 -25l263 -295q16 -19 16.5 -30t-16.5 -25l-75 -72q-19 -17 -31 -14.5 t-32 16.5l-283 220l-271 -218q-21 -16 -33.5 -18.5t-29.5 14.5l-75 74q-17 14 -17.5 25zM430 647h299q0 77 -32 130.5t-116 53.5q-76 0 -111 -47t-40 -137z" />
<glyph unicode="&#xeb;" horiz-adv-x="1145" d="M90 523q0 78 13.5 174.5t62.5 182.5t147 144t268 58q154 0 249 -44.5t147.5 -115t72 -158t19.5 -173.5q0 -66 -24.5 -101.5t-94.5 -35.5h-524q2 -62 19 -101t46.5 -61.5t71 -30t95.5 -7.5q50 0 118.5 6.5t134.5 14.5q43 4 54 -1t20 -46l17 -101q6 -37 -0.5 -57.5 t-55.5 -39.5q-32 -10 -76.5 -20t-90.5 -16.5t-93.5 -9.5t-85.5 -3q-162 0 -262 45t-154.5 119t-74 172t-19.5 206zM207 1327q0 62 30 104t126 42q99 0 129.5 -40t30.5 -106q0 -30 -6 -58t-22.5 -49.5t-48 -33.5t-83.5 -12q-53 0 -84 13t-47.5 33.5t-20.5 48.5t-4 58z M430 647h299q0 77 -32 130.5t-116 53.5q-76 0 -111 -47t-40 -137zM656 1327q0 62 31 104t126 42q101 0 130 -40t29 -106q0 -30 -5.5 -58t-22.5 -49.5t-48.5 -33.5t-82.5 -12q-52 0 -83 13t-47 33.5t-21.5 48.5t-5.5 58z" />
<glyph unicode="&#xec;" horiz-adv-x="575" d="M-39 1475q-35 39 4 64l149 115q15 8 30.5 9t31.5 -22l239 -342q14 -19 9 -31t-16 -21l-100 -79q-15 -13 -29 -7.5t-25 15.5zM125 47v968q0 25 9.5 36.5t37.5 11.5h234q31 0 38.5 -16.5t7.5 -31.5v-968q0 -17 -7.5 -32t-38.5 -15h-234q-28 0 -37.5 13t-9.5 34z" />
<glyph unicode="&#xed;" horiz-adv-x="575" d="M125 47v968q0 25 9.5 36.5t37.5 11.5h234q31 0 38.5 -16.5t7.5 -31.5v-968q0 -17 -7.5 -32t-38.5 -15h-234q-28 0 -37.5 13t-9.5 34zM203 1238.5q-6 11.5 6 31.5l199 371q13 24 29.5 25.5t30.5 -6.5l164 -92q45 -24 11 -64l-253 -326q-11 -15 -23 -22t-32 3l-111 60 q-15 8 -21 19.5z" />
<glyph unicode="&#xee;" horiz-adv-x="842" d="M-10 1236q0 11 16 30l261 287q17 19 32 29t54 10h137q41 0 53.5 -8t30.5 -25l263 -295q17 -19 17 -30t-17 -25l-76 -72q-19 -17 -31 -14.5t-31 16.5l-284 220l-271 -218q-21 -16 -33 -18.5t-29 14.5l-76 74q-16 14 -16 25zM250 47v968q0 25 9.5 36.5t37.5 11.5h234 q31 0 38 -16.5t7 -31.5v-968q0 -17 -7 -32t-38 -15h-234q-28 0 -37.5 13t-9.5 34z" />
<glyph unicode="&#xef;" horiz-adv-x="743" d="M-10 1327q0 62 29.5 104t126.5 42q99 0 129.5 -40t30.5 -106q0 -30 -5.5 -58t-23 -49.5t-49 -33.5t-82.5 -12q-54 0 -85 13t-47 33.5t-20 48.5t-4 58zM207 47v968q0 25 9.5 36.5t37.5 11.5h234q31 0 38 -16.5t7 -31.5v-968q0 -17 -7 -32t-38 -15h-234q-28 0 -37.5 13 t-9.5 34zM439 1327q0 62 31 104t125 42q101 0 130.5 -40t29.5 -106q0 -30 -5.5 -58t-22.5 -49.5t-48.5 -33.5t-83.5 -12q-51 0 -82 13t-47.5 33.5t-21.5 48.5t-5 58z" />
<glyph unicode="&#xf0;" horiz-adv-x="1169" d="M86 495q0 69 18.5 155.5t71 163t148 129t250.5 52.5q52 0 110 -13.5t92 -43.5h2q0 24 -3 55t-9.5 64t-16 64.5t-22.5 52.5l-71 -75q-24 -24 -49 -3l-61 57q-21 19 0 41l74 74q-56 27 -142 27q-39 0 -69.5 -2.5t-70.5 -6.5q-24 -2 -32.5 7.5t-12.5 33.5l-22 124 q-4 19 2 32t30 23q52 21 117.5 29.5t121.5 8.5q172 0 281 -69l100 101q17 17 25.5 18.5t25.5 -16.5l58 -51q17 -15 15 -24t-15 -24l-99 -100q54 -60 86 -145t47.5 -176.5t19.5 -182t4 -161.5q0 -138 -18 -269t-74 -234.5t-160.5 -166.5t-275.5 -63q-164 0 -258.5 51.5 t-143.5 128.5t-61.5 166.5t-12.5 167.5zM421 484q0 -107 31.5 -161t119.5 -54q48 0 78.5 17t49 47t26 70t7.5 85q0 103 -31 163.5t-126 60.5q-86 0 -120.5 -59.5t-34.5 -168.5z" />
<glyph unicode="&#xf1;" horiz-adv-x="1199" d="M101 45v968q0 21 10 34t37 13h235q31 0 38 -15t7 -32v-52q2 0 3.5 -1t3.5 -1q71 53 165.5 86.5t171.5 33.5q114 0 179.5 -37.5t98 -98.5t39.5 -136.5t7 -150.5v-611q0 -17 -7 -31t-38 -14h-236q-47 0 -47 45q0 142 1 281.5t1 282.5q0 90 -31 127.5t-101 37.5 q-51 0 -111.5 -25t-98.5 -37v-667q0 -17 -7.5 -31t-37.5 -14h-235q-28 0 -37.5 12t-9.5 33zM127 1268q51 134 126.5 189t150.5 55q45 0 92.5 -16.5t92.5 -37t87 -36.5t75 -16q71 0 119 82q11 17 23 18.5t36 -10.5l80 -43q31 -15 19 -49q-56 -136 -124.5 -185t-150.5 -49 q-37 0 -83 16t-93.5 35.5t-91.5 35.5t-79 16q-26 0 -58 -14t-69 -65q-10 -17 -18.5 -20.5t-34.5 8.5l-82 37q-6 4 -15.5 16t-1.5 33z" />
<glyph unicode="&#xf2;" horiz-adv-x="1180" d="M90 546q0 74 15.5 166t66 175t148 139t263.5 56t266.5 -48.5t154.5 -125.5t71 -173.5t17 -188.5q0 -88 -12.5 -187t-64 -183t-154 -138.5t-278.5 -54.5q-175 0 -272.5 54.5t-147 138.5t-61.5 183t-12 187zM290 1475q-35 39 5 64l148 115q15 8 30 9t32 -22l239 -342 q15 -19 10 -31t-17 -21l-101 -79q-14 -13 -28.5 -7.5t-24.5 15.5zM421 533q0 -141 32.5 -206t129.5 -65q107 0 140.5 67t33.5 204q0 136 -31 202.5t-139 66.5q-99 0 -132.5 -68.5t-33.5 -200.5z" />
<glyph unicode="&#xf3;" horiz-adv-x="1180" d="M90 546q0 74 15.5 166t66 175t148 139t263.5 56t266.5 -48.5t154.5 -125.5t71 -173.5t17 -188.5q0 -88 -12.5 -187t-64 -183t-154 -138.5t-278.5 -54.5q-175 0 -272.5 54.5t-147 138.5t-61.5 183t-12 187zM421 533q0 -141 32.5 -206t129.5 -65q107 0 140.5 67t33.5 204 q0 136 -31 202.5t-139 66.5q-99 0 -132.5 -68.5t-33.5 -200.5zM474 1238.5q-6 11.5 6 31.5l199 371q13 24 29 25.5t32 -6.5l163 -92q45 -24 11 -64l-254 -326q-10 -15 -22 -22t-31 3l-112 60q-15 8 -21 19.5z" />
<glyph unicode="&#xf4;" horiz-adv-x="1180" d="M90 546q0 74 15.5 166t66 175t148 139t263.5 56t266.5 -48.5t154.5 -125.5t71 -173.5t17 -188.5q0 -88 -12.5 -187t-64 -183t-154 -138.5t-278.5 -54.5q-175 0 -272.5 54.5t-147 138.5t-61.5 183t-12 187zM162 1236q0 11 16 30l261 287q17 19 32 29t54 10h138 q41 0 53.5 -8t30.5 -25l262 -295q17 -19 17 -30t-17 -25l-76 -72q-18 -17 -30.5 -14.5t-32.5 16.5l-283 220l-271 -218q-21 -16 -33 -18.5t-29 14.5l-76 74q-16 14 -16 25zM421 533q0 -141 32.5 -206t129.5 -65q107 0 140.5 67t33.5 204q0 136 -31 202.5t-139 66.5 q-99 0 -132.5 -68.5t-33.5 -200.5z" />
<glyph unicode="&#xf5;" horiz-adv-x="1180" d="M90 546q0 74 15.5 166t66 175t148 139t263.5 56t266.5 -48.5t154.5 -125.5t71 -173.5t17 -188.5q0 -88 -12.5 -187t-64 -183t-154 -138.5t-278.5 -54.5q-175 0 -272.5 54.5t-147 138.5t-61.5 183t-12 187zM146 1268q51 134 127 189t150 55q45 0 93 -16.5t93 -37 t86.5 -36.5t74.5 -16q71 0 120 82q11 17 23 18.5t35 -10.5l80 -43q30 -15 19 -49q-56 -136 -124.5 -185t-150.5 -49q-37 0 -83 16t-93.5 35.5t-91.5 35.5t-78 16q-26 0 -58.5 -14t-68.5 -65q-10 -17 -19 -20.5t-35 8.5l-81 37q-6 4 -16 16t-2 33zM421 533q0 -141 32.5 -206 t129.5 -65q107 0 140.5 67t33.5 204q0 136 -31 202.5t-139 66.5q-99 0 -132.5 -68.5t-33.5 -200.5z" />
<glyph unicode="&#xf6;" horiz-adv-x="1180" d="M90 546q0 74 15.5 166t66 175t148 139t263.5 56t266.5 -48.5t154.5 -125.5t71 -173.5t17 -188.5q0 -88 -12.5 -187t-64 -183t-154 -138.5t-278.5 -54.5q-175 0 -272.5 54.5t-147 138.5t-61.5 183t-12 187zM215 1327q0 62 30 104t127 42q98 0 128.5 -40t30.5 -106 q0 -30 -5 -58t-22.5 -49.5t-49 -33.5t-82.5 -12q-54 0 -85 13t-47 33.5t-20.5 48.5t-4.5 58zM421 533q0 -141 32.5 -206t129.5 -65q107 0 140.5 67t33.5 204q0 136 -31 202.5t-139 66.5q-99 0 -132.5 -68.5t-33.5 -200.5zM665 1327q0 62 31 104t125 42q101 0 130.5 -40 t29.5 -106q0 -30 -5.5 -58t-22.5 -49.5t-48.5 -33.5t-83.5 -12q-51 0 -82 13t-47.5 33.5t-21.5 48.5t-5 58z" />
<glyph unicode="&#xf7;" d="M154 624v150q0 43 46 43h886q28 0 36.5 -9.5t8.5 -33.5v-150q0 -24 -8.5 -34.5t-36.5 -10.5h-886q-46 0 -46 45zM468 314q0 35 7 62.5t26.5 49t52.5 33.5t84 12q52 0 85.5 -11t52 -31.5t24.5 -49t6 -65.5q0 -33 -5 -61.5t-23.5 -51.5t-52 -36t-87.5 -13q-57 0 -91 13 t-50.5 36t-22.5 51.5t-6 61.5zM468 1073q0 35 7 62.5t26.5 48t52.5 32t84 11.5q52 0 85.5 -10.5t52 -30.5t24.5 -49t6 -64q0 -32 -5 -62t-23.5 -52.5t-52 -36t-87.5 -13.5q-57 0 -91 14.5t-50.5 37t-22.5 51.5t-6 61z" />
<glyph unicode="&#xf8;" horiz-adv-x="1180" d="M90 546q0 74 15.5 166t66 175t148 139t263.5 56q98 0 173 -18.5t130 -50.5l71 86q16 21 26 24.5t30 -13.5l54 -45q21 -17 19 -26t-19 -30l-74 -91q60 -78 79.5 -176.5t19.5 -195.5q0 -88 -12.5 -187t-64 -183t-154 -138.5t-278.5 -54.5q-97 0 -169 18t-126 48l-50 -59 q-16 -22 -25.5 -26.5t-29.5 12.5l-54 48q-21 17 -19.5 25.5t19.5 30.5l54 66q-33 43 -51 92.5t-28 102.5t-12 104.5t-2 100.5zM421 486.5q0 -22.5 2 -43.5l269 331q-39 28 -105 28q-99 0 -132.5 -68.5t-33.5 -200.5v-46.5zM484 290q35 -29 99 -28q107 0 140.5 67t33.5 204 q0 25 -1 47t-3 42z" />
<glyph unicode="&#xf9;" horiz-adv-x="1192" d="M99 396v617q0 17 7.5 32t37.5 15h236q26 0 36 -13t10 -34v-564q0 -81 29 -123t101 -42q27 0 54.5 7.5t54.5 17t52 20.5t42 17v667q0 17 7.5 32t37.5 15h237q28 0 37.5 -13t9.5 -34v-968q0 -21 -9.5 -33t-37.5 -12h-237q-30 0 -37.5 14t-7.5 31v54q-2 0 -2 1t-2 1 q-74 -56 -167 -87t-171 -31q-115 0 -178 34t-94 91.5t-38.5 131.5t-7.5 156zM286 1475q-35 39 4 64l149 115q15 8 30 9t32 -22l239 -342q15 -19 9.5 -31t-16.5 -21l-101 -79q-15 -13 -29 -7.5t-24 15.5z" />
<glyph unicode="&#xfa;" horiz-adv-x="1192" d="M99 396v617q0 17 7.5 32t37.5 15h236q26 0 36 -13t10 -34v-564q0 -81 29 -123t101 -42q27 0 54.5 7.5t54.5 17t52 20.5t42 17v667q0 17 7.5 32t37.5 15h237q28 0 37.5 -13t9.5 -34v-968q0 -21 -9.5 -33t-37.5 -12h-237q-30 0 -37.5 14t-7.5 31v54q-2 0 -2 1t-2 1 q-74 -56 -167 -87t-171 -31q-115 0 -178 34t-94 91.5t-38.5 131.5t-7.5 156zM459.5 1238.5q-5.5 11.5 4.5 31.5l201 371q12 24 28.5 25.5t30.5 -6.5l164 -92q45 -24 11 -64l-254 -326q-11 -15 -22.5 -22t-31.5 3l-111 60q-15 8 -20.5 19.5z" />
<glyph unicode="&#xfb;" horiz-adv-x="1192" d="M99 396v617q0 17 7.5 32t37.5 15h236q26 0 36 -13t10 -34v-564q0 -81 29 -123t101 -42q27 0 54.5 7.5t54.5 17t52 20.5t42 17v667q0 17 7.5 32t37.5 15h237q28 0 37.5 -13t9.5 -34v-968q0 -21 -9.5 -33t-37.5 -12h-237q-30 0 -37.5 14t-7.5 31v54q-2 0 -2 1t-2 1 q-74 -56 -167 -87t-171 -31q-115 0 -178 34t-94 91.5t-38.5 131.5t-7.5 156zM162 1236q0 11 16 30l261 287q17 19 32 29t54 10h138q41 0 53.5 -8t30.5 -25l262 -295q17 -19 17 -30t-17 -25l-76 -72q-18 -17 -30.5 -14.5t-32.5 16.5l-283 220l-271 -218q-21 -16 -33 -18.5 t-29 14.5l-76 74q-16 14 -16 25z" />
<glyph unicode="&#xfc;" horiz-adv-x="1192" d="M99 396v617q0 17 7.5 32t37.5 15h236q26 0 36 -13t10 -34v-564q0 -81 29 -123t101 -42q27 0 54.5 7.5t54.5 17t52 20.5t42 17v667q0 17 7.5 32t37.5 15h237q28 0 37.5 -13t9.5 -34v-968q0 -21 -9.5 -33t-37.5 -12h-237q-30 0 -37.5 14t-7.5 31v54q-2 0 -2 1t-2 1 q-74 -56 -167 -87t-171 -31q-115 0 -178 34t-94 91.5t-38.5 131.5t-7.5 156zM224 1327q0 62 30 104t126 42q99 0 129.5 -40t30.5 -106q0 -30 -5.5 -58t-22.5 -49.5t-48.5 -33.5t-83.5 -12q-53 0 -84 13t-47.5 33.5t-20.5 48.5t-4 58zM673 1327q0 62 31 104t127 42 q100 0 129 -40t29 -106q0 -30 -5 -58t-22.5 -49.5t-48.5 -33.5t-82 -12q-52 0 -83.5 13t-47.5 33.5t-21.5 48.5t-5.5 58z" />
<glyph unicode="&#xfd;" horiz-adv-x="1122" d="M30 1009q-21 54 34 54h231q31 0 44.5 -7t23.5 -39l101 -311l90 -295h12l26.5 79.5t33.5 98.5q19 56 39 121q24 69 49.5 154.5t48.5 152.5q9 25 22 35.5t52 10.5h214q37 0 41 -15.5t-6 -41.5l-512 -1376q-10 -30 -25.5 -39.5t-51.5 -9.5h-207q-33 0 -40 11.5t6 42.5 l146 393zM440 1238.5q-5 11.5 5 31.5l200 371q12 24 28.5 25.5t32.5 -6.5l162 -92q46 -24 12 -64l-254 -326q-11 -15 -23 -22t-31 3l-112 60q-15 8 -20 19.5z" />
<glyph unicode="&#xfe;" horiz-adv-x="1184" d="M105 -372v1753q0 19 11 33t38 14h236q30 0 37.5 -15t7.5 -32v-420q2 0 2 -1t2 -1q73 51 151.5 84.5t153.5 33.5q112 0 183 -42t110.5 -115t54 -172.5t14.5 -214.5q0 -129 -18.5 -232.5t-68 -174t-134.5 -109t-216 -38.5q-45 0 -109.5 7.5t-122.5 23.5h-2v-382 q0 -14 -8 -30.5t-37 -16.5h-236q-30 0 -39.5 12.5t-9.5 34.5zM435 281q51 -14 91 -18.5t76 -4.5q45 0 77.5 10.5t52 41t29 83t9.5 136.5q0 78 -8.5 125t-25 75t-41 37.5t-57.5 9.5q-49 0 -106.5 -22.5t-96.5 -39.5v-433z" />
<glyph unicode="&#xff;" horiz-adv-x="1122" d="M30 1009q-21 54 34 54h231q31 0 44.5 -7t23.5 -39l101 -311l90 -295h12l26.5 79.5t33.5 98.5q19 56 39 121q24 69 49.5 154.5t48.5 152.5q9 25 22 35.5t52 10.5h214q37 0 41 -15.5t-6 -41.5l-512 -1376q-10 -30 -25.5 -39.5t-51.5 -9.5h-207q-33 0 -40 11.5t6 42.5 l146 393zM183 1327q0 62 30 104t127 42q99 0 129 -40t30 -106q0 -30 -5.5 -58t-22.5 -49.5t-48 -33.5t-83 -12q-53 0 -84.5 13t-48 33.5t-20.5 48.5t-4 58zM632 1327q0 62 31.5 104t126.5 42q100 0 129 -40t29 -106q0 -30 -5 -58t-22.5 -49.5t-48.5 -33.5t-82 -12 q-52 0 -83.5 13t-47.5 33.5t-21.5 48.5t-5.5 58z" />
<glyph unicode="&#x131;" horiz-adv-x="575" d="M125 47v968q0 25 9.5 36.5t37.5 11.5h234q31 0 38.5 -16.5t7.5 -31.5v-968q0 -17 -7.5 -32t-38.5 -15h-234q-28 0 -37.5 13t-9.5 34z" />
<glyph unicode="&#x152;" horiz-adv-x="1812" d="M107 733q0 62 8 139.5t30.5 157.5t63.5 154t108.5 132t166.5 93.5t236 35.5q95 0 181 -17h757q47 0 47 -47v-197q0 -18 -9.5 -30.5t-37.5 -12.5h-538v-259h467q47 0 47 -47v-197q0 -18 -9.5 -30.5t-37.5 -12.5h-467v-311h548q48 0 48 -48v-195q0 -19 -9.5 -30t-38.5 -11 h-759q-88 -19 -189 -19q-139 0 -239.5 33t-169 89.5t-108 131.5t-61 159t-28.5 171t-7 168zM468 710q0 -109 13.5 -191t42 -137t77 -82t121.5 -27q29 0 54 6v865q-26 7 -54 7q-143 0 -198.5 -107.5t-55.5 -333.5z" />
<glyph unicode="&#x153;" horiz-adv-x="1822" d="M90 546q0 74 15.5 166t66 175t148 139t263.5 56q123 0 208 -33.5t140 -89.5q52 51 131 83.5t194 32.5q154 0 249 -44t148.5 -114t73 -158t19.5 -174q0 -66 -24.5 -102t-93.5 -36h-527q3 -62 18.5 -100.5t44 -60t69 -29t96.5 -7.5q50 0 120.5 5t139.5 16q41 4 54 -3.5 t19 -43.5l17 -101q8 -39 1 -58.5t-57 -38.5q-32 -12 -75.5 -22t-92.5 -16.5t-96.5 -10t-85.5 -3.5q-127 0 -213 33.5t-139 93.5q-49 -54 -133 -86t-205 -32q-175 0 -272.5 54.5t-147 138.5t-61.5 183t-12 187zM421 533q0 -141 32.5 -206t129.5 -65q107 0 140.5 67t33.5 204 q0 136 -31 202.5t-139 66.5q-99 0 -132.5 -68.5t-33.5 -200.5zM1108 649h294q0 32 -7.5 62.5t-24 54.5t-44 38.5t-68.5 14.5q-78 0 -112 -44t-38 -126z" />
<glyph unicode="&#x178;" horiz-adv-x="1352" d="M24 1414q6 16 30 16h256q36 0 51 -11t33 -40l142 -283l127 -257h12l133 260l138 264q17 32 32 49.5t52 17.5h258q27 0 33 -15t-5 -32l-485 -858v-478q0 -17 -8 -32t-35 -15h-250q-48 0 -48 47v478l-462 852q-10 21 -4 37zM290 1645q0 62 30.5 104t126.5 42 q99 0 129.5 -39.5t30.5 -106.5q0 -30 -6 -58t-22.5 -49.5t-48 -33.5t-83.5 -12q-53 0 -84.5 13t-47.5 33.5t-20.5 48.5t-4.5 58zM731 1645q0 62 31.5 104t127.5 42q99 0 128 -39.5t29 -106.5q0 -30 -5.5 -58t-22.5 -49.5t-47 -33.5t-82 -12q-53 0 -84.5 13t-47.5 33.5 t-21.5 48.5t-5.5 58z" />
<glyph unicode="&#x192;" d="M71 -119l28 129q8 33 19 39.5t36 1.5q27 -4 62.5 -6t56.5 -2q41 0 68 15.5t43 43t25.5 69.5t18.5 94l64 402h-137q-28 0 -37.5 8.5t-9.5 34.5v142q0 30 7 38.5t38 8.5h168l33 211q9 58 32 121.5t67 116t113 87t172 34.5q60 0 125.5 -8t132.5 -31q26 -8 13 -47l-35 -146 q-6 -24 -15.5 -28.5t-38.5 0.5q-36 6 -63 8t-37 2q-46 0 -74 -9.5t-45 -31t-26 -55t-17 -80.5l-23 -144h167q28 0 38.5 -7.5t10.5 -33.5v-148q0 -31 -8.5 -37t-38.5 -6h-198l-90 -566q-10 -64 -35 -121.5t-68 -101.5t-108.5 -68.5t-155.5 -24.5q-60 0 -134.5 11t-117.5 28 q-37 10 -26 57z" />
<glyph unicode="&#x2c6;" horiz-adv-x="1169" d="M142.5 1236q-0.5 11 17.5 30l259 287q17 19 32 29t54 10h138q41 0 54 -8t30 -25l262 -295q17 -19 17 -30t-17 -25l-75 -72q-19 -17 -31.5 -14.5t-30.5 16.5l-284 220l-271 -218q-21 -16 -33 -18.5t-30 14.5l-74 74q-17 14 -17.5 25z" />
<glyph unicode="&#x2c7;" horiz-adv-x="1115" d="M130 1494q1 10 18 26l74 74q16 17 29.5 14.5t32.5 -19.5l272 -217l283 220q19 14 32 16.5t30 -14.5l75 -72q17 -14 18 -26t-15 -31l-265 -293q-17 -17 -30 -25t-54 -8h-138q-38 0 -53.5 9t-32.5 30l-260 287q-17 19 -16 29z" />
<glyph unicode="&#x2d8;" horiz-adv-x="1162" d="M164 1452.5q-6 22.5 17 41.5l77 63q31 19 43.5 11.5t33.5 -31.5q69 -82 125.5 -118t134.5 -36q72 0 128.5 33t125.5 121q19 24 34.5 29.5t41.5 -11.5l77 -47q30 -17 24 -42t-24 -58q-66 -129 -172 -195t-235 -66q-59 0 -121.5 15.5t-117.5 48t-101 80t-74 111.5 q-11 28 -17 50.5z" />
<glyph unicode="&#x2d9;" horiz-adv-x="1048" d="M353 1346q0 33 7.5 61.5t26.5 50t53 35t83 13.5q51 0 84 -12t52.5 -34t26 -50.5t6.5 -63.5q0 -30 -6.5 -58t-24.5 -50.5t-51.5 -37t-86.5 -14.5q-56 0 -89.5 14.5t-52 37t-23.5 51.5t-5 57z" />
<glyph unicode="&#x2da;" horiz-adv-x="1128" d="M322 1402q0 58 23 105.5t61.5 81.5t88 53.5t102.5 19.5q54 0 104 -21.5t85 -56.5t56.5 -83t21.5 -99q0 -54 -21.5 -102t-56.5 -84t-85 -56.5t-104 -20.5q-53 0 -102.5 19.5t-88 54t-61.5 83t-23 106.5zM499 1402q0 -48 27.5 -75.5t70.5 -27.5q39 0 67 30t28 73 q0 41 -28 71.5t-67 30.5q-41 0 -69.5 -30.5t-28.5 -71.5z" />
<glyph unicode="&#x2db;" horiz-adv-x="905" d="M245 -195q0 62 33.5 135t123.5 152h179q-78 -88 -101.5 -153.5t-23.5 -110.5q0 -41 24.5 -58.5t67.5 -17.5q31 0 58.5 5t60.5 13q14 4 24 2t15 -17q8 -21 13 -41t12 -41q12 -32 -23 -47q-43 -21 -100.5 -33t-121.5 -12q-121 0 -181 63t-60 161z" />
<glyph unicode="&#x2dc;" horiz-adv-x="1171" d="M148 1268q52 134 127.5 189t150.5 55q45 0 92.5 -16.5t92.5 -37t87 -36.5t74 -16q71 0 120 82q11 17 23 18.5t35 -10.5l80 -43q30 -15 19 -49q-56 -136 -124.5 -185t-150.5 -49q-37 0 -83 16t-93.5 35.5t-91.5 35.5t-78 16q-26 0 -58 -14t-69 -65q-10 -17 -19 -20.5 t-34 8.5l-82 37q-6 4 -16 16t-2 33z" />
<glyph unicode="&#x2dd;" horiz-adv-x="1281" d="M312 1238.5q-6 11.5 6 31.5l199 371q14 24 30.5 25.5t28.5 -6.5l166 -92q41 -24 11 -64l-254 -326q-11 -15 -24 -22t-30 3l-114 60q-13 8 -19 19.5zM688 1238.5q-7 11.5 7 31.5l197 371q13 24 29.5 25.5t30.5 -6.5l164 -92q41 -21 13 -64l-253 -326q-11 -15 -24 -22 t-31 3l-113 60q-13 8 -20 19.5z" />
<glyph unicode="&#x3a9;" horiz-adv-x="1492" d="M90 45v189q0 19 8.5 31t39.5 12h122l5 4q-43 33 -70 89t-42 120t-21.5 129t-6.5 114q0 66 9.5 146t34 159.5t68.5 152.5t113 129.5t166 90.5t228 34q194 0 316 -63.5t191 -165.5t95 -229t26 -254q0 -45 -7.5 -105t-24.5 -122.5t-44.5 -122t-68.5 -99.5q0 -3 1.5 -4 t1.5 -3h116q31 0 39 -11.5t8 -31.5v-189q0 -21 -8 -33t-39 -12h-476q-32 0 -39.5 15t-7.5 30v228q0 26 14.5 37.5t26.5 22.5q86 49 122 143t36 234q0 101 -13.5 182.5t-44.5 138.5t-84 88.5t-131 31.5q-76 0 -126.5 -32.5t-81 -90.5t-44 -139t-13.5 -179q0 -155 30 -243.5 t99 -128.5q13 -10 27 -22.5t14 -42.5v-228q0 -12 -7 -28.5t-38 -16.5h-474q-30 0 -37.5 12t-7.5 33z" />
<glyph unicode="&#x3c0;" horiz-adv-x="1203" d="M103 47v968q0 48 47 48h906q29 0 37 -11t8 -35v-970q0 -17 -8.5 -32t-38.5 -15h-235q-28 0 -37.5 13t-9.5 34l2 751h-341v-751q0 -17 -9 -32t-39 -15h-235q-28 0 -37.5 13t-9.5 34z" />
<glyph unicode="&#x401;" horiz-adv-x="1199" d="M146 45v1336q0 21 10 35t37 14h854q45 0 45 -47v-197q0 -18 -9.5 -31.5t-37.5 -13.5h-557v-259h486q50 0 50 -45v-197q0 -18 -10 -31.5t-40 -13.5h-486v-309h568q48 0 48 -48v-195q0 -19 -10 -31t-38 -12h-863q-28 0 -37.5 13t-9.5 32zM230 1645q0 62 30 104t127 42 q99 0 129 -39.5t30 -106.5q0 -30 -5 -58t-22.5 -49.5t-48.5 -33.5t-83 -12q-53 0 -84.5 13t-48 33.5t-20.5 48.5t-4 58zM671 1645q0 62 31 104t129 42t127 -39.5t29 -106.5q0 -30 -5.5 -58t-22.5 -49.5t-47 -33.5t-81 -12q-54 0 -85.5 13t-48 33.5t-21.5 48.5t-5 58z" />
<glyph unicode="&#x402;" horiz-adv-x="1623" d="M26 1180v203q0 21 8.5 33t39.5 12h1124q47 0 47 -45v-203q0 -19 -10 -32t-37 -13h-463v-267q76 29 160 46t146 17q141 0 238.5 -42t156 -112.5t86 -162t27.5 -188.5q0 -266 -114.5 -447.5t-344.5 -311.5q-37 -19 -55 -13t-37 38l-80 117q-17 30 -16 43t29 34 q160 118 217.5 249.5t57.5 287.5q0 47 -11 89t-36.5 73.5t-67.5 50t-104 18.5q-49 0 -115 -18.5t-137 -46.5v-542q0 -17 -7.5 -32t-37.5 -15h-255q-50 0 -50 47v1088h-311q-31 0 -39.5 13t-8.5 32z" />
<glyph unicode="&#x403;" horiz-adv-x="1110" d="M144 1383q0 19 10 33t37 14h839q47 0 47 -47v-197q0 -18 -9.5 -31.5t-39.5 -13.5h-540v-1094q0 -17 -7 -32t-38 -15h-250q-28 0 -37.5 13t-9.5 34zM363 1647q0 13 22 26l350 230q24 14 39.5 8.5t23.5 -21.5l99 -159q28 -41 -19 -63l-379 -164q-17 -7 -30 -7.5t-26 17.5 l-71 107q-9 13 -9 26z" />
<glyph unicode="&#x404;" horiz-adv-x="1268" d="M123 718q0 131 24.5 261.5t93.5 233.5t190 167.5t316 64.5q100 0 211 -16t193 -52q32 -15 49 -33.5t6 -61.5l-26 -121q-4 -32 -22.5 -40.5t-49.5 -4.5q-78 11 -170.5 17t-161.5 6t-118 -21.5t-81.5 -57.5t-51 -87.5t-26.5 -110.5h467q47 0 47 -45v-183q0 -19 -10 -31 t-37 -12h-471q6 -71 22 -128t48 -98t84 -62.5t127 -21.5q45 0 84 1.5t79 4.5t82 7.5t91 11.5q32 4 48 -4.5t26 -39.5l27 -114q10 -41 -5.5 -61.5t-48.5 -37.5q-43 -16 -93.5 -30.5t-104.5 -23t-108.5 -12.5t-103.5 -4q-196 0 -318.5 64t-190.5 169.5t-92.5 238t-24.5 267.5z " />
<glyph unicode="&#x405;" horiz-adv-x="1248" d="M99 1006q0 105 36.5 187t104.5 137t164.5 84t215.5 29q30 0 78.5 -1t105 -7.5t116 -19.5t110.5 -34q54 -19 60 -40t2 -51l-29 -127q-5 -21 -11.5 -31t-17 -13t-27 -2t-37.5 3q-73 11 -149.5 17.5t-175.5 6.5q-95 0 -141 -30t-46 -99q0 -34 10 -55.5t32.5 -37t58.5 -25 t90 -19.5q92 -19 183 -45.5t162 -73.5t115 -126t44 -205q0 -127 -47.5 -213t-126 -137.5t-181 -74t-209.5 -22.5q-35 0 -86 3t-109.5 10.5t-117.5 20.5t-110 32q-54 21 -60.5 40.5t-0.5 50.5l26 124q11 44 26 48t58 -2q39 -5 86.5 -10t96.5 -9.5t98.5 -8t94.5 -3.5 q109 0 160 34.5t51 103.5q0 39 -11 63.5t-35.5 42t-62 29.5t-91.5 22q-93 19 -183 46t-161 74.5t-115 122.5t-44 191z" />
<glyph unicode="&#x406;" horiz-adv-x="653" d="M154 47v1334q0 21 10 35t36 14h252q30 0 37.5 -16t7.5 -33v-1334q0 -17 -7.5 -32t-37.5 -15h-252q-27 0 -36.5 13t-9.5 34z" />
<glyph unicode="&#x407;" horiz-adv-x="653" d="M-49 1645q0 62 29.5 104t126.5 42q99 0 129.5 -39.5t30.5 -106.5q0 -30 -5.5 -58t-22.5 -49.5t-48.5 -33.5t-83.5 -12q-53 0 -84 13t-47.5 33.5t-20.5 48.5t-4 58zM154 47v1334q0 21 10 35t36 14h252q30 0 37.5 -16t7.5 -33v-1334q0 -17 -7.5 -32t-37.5 -15h-252 q-27 0 -36.5 13t-9.5 34zM392 1645q0 62 31 104t127 42q99 0 128.5 -39.5t29.5 -106.5q0 -30 -5.5 -58t-22.5 -49.5t-47.5 -33.5t-82.5 -12q-53 0 -84 13t-47.5 33.5t-21.5 48.5t-5 58z" />
<glyph unicode="&#x408;" horiz-adv-x="1016" d="M17 119l32 139q11 33 20 38t38 1q56 -6 111 -11t102 -5q58 0 95 12.5t57 34t27.5 52.5t7.5 67v934q0 21 10 35t37 14h248q31 0 39 -16t8 -33v-560.5t-2 -440.5q0 -189 -112.5 -294t-356.5 -105q-26 0 -61.5 2t-73.5 7.5t-78 12.5t-75 21q-55 19 -69.5 36.5t-3.5 58.5z " />
<glyph unicode="&#x409;" horiz-adv-x="1992" d="M28 176q-2 29 6.5 38.5t39.5 15.5q57 13 95 34.5t60.5 66.5t35 122.5t19.5 206.5l43 721q0 49 49 49l785 -2h2q48 0 48 -47v-489h223q150 0 248.5 -42t154 -106.5t78 -143.5t22.5 -155q0 -114 -41 -196.5t-110.5 -138.5t-162 -83t-193.5 -27h-523q-30 0 -39.5 13t-9.5 34 v1090h-224l-23 -413q-13 -184 -29 -323t-63.5 -232t-141 -143t-258.5 -52q-56 0 -69 15t-15 46zM1209 286h195q75 0 126.5 43t51.5 116q0 93 -47 130.5t-125 37.5h-201v-327z" />
<glyph unicode="&#x40a;" horiz-adv-x="1956" d="M144 47v1334q0 21 11 35t36 14h250q30 0 37.5 -16t7.5 -33v-495h337v495q0 21 10 34t37 13h250q31 0 38.5 -15t7.5 -32v-493h227q151 0 248 -42t153.5 -107.5t78 -145.5t21.5 -154q0 -111 -41 -194t-109.5 -137t-160 -81t-192.5 -27h-521q-28 0 -37.5 13t-9.5 32v552 h-337v-550q0 -17 -7.5 -32t-37.5 -15h-250q-47 0 -47 47zM1166 279h199q84 0 135 43t51 119q0 92 -48 132t-131 40h-206v-334z" />
<glyph unicode="&#x40b;" horiz-adv-x="1621" d="M26 1186v197q0 21 8.5 34t39.5 13h1120q47 0 47 -47v-197q0 -18 -10 -31.5t-39 -13.5h-463v-238q34 13 76 28t88.5 26t92.5 18.5t87 7.5q136 0 221 -34.5t132 -93.5t64.5 -137t17.5 -164v-507q0 -17 -8 -32t-37 -15h-248q-47 0 -47 47v499q0 84 -39 118.5t-118 34.5 q-26 0 -63 -7.5t-76 -18t-77 -24t-66 -23.5v-579q0 -17 -7.5 -32t-37.5 -15h-247q-29 0 -38 13t-9 34v1094h-316q-31 0 -39.5 13.5t-8.5 31.5z" />
<glyph unicode="&#x40c;" horiz-adv-x="1356" d="M142 47v1334q0 21 11 35t38 14h256q31 0 38 -16t7 -33v-497h119q26 0 51.5 5.5t50 20.5t46 44t37.5 76l105 329q13 36 29 50.5t65 14.5h228q56 0 39 -54l-113 -364q-35 -103 -78 -173t-105 -96q76 -30 112 -97.5t71 -168.5l131 -417q17 -54 -39 -54h-246q-49 0 -65 14 t-29 50l-109 381q-31 95 -80 121.5t-108 26.5h-112v-546q0 -14 -7 -30.5t-38 -16.5h-256q-49 0 -49 47zM484 1647q0 13 21 26l351 230q24 14 38.5 8.5t23.5 -21.5l99 -159q29 -41 -19 -63l-378 -164q-17 -7 -30.5 -7.5t-25.5 17.5l-72 107q-8 13 -8 26z" />
<glyph unicode="&#x40e;" horiz-adv-x="1338" d="M49.5 1414q6.5 16 30.5 16h255q37 0 52 -11t32 -40l129 -336l133 -359h9l137 370l117 311q17 30 32 47.5t52 17.5h240q27 0 33 -15t-4 -32l-415 -1026q-39 -90 -76.5 -163t-86 -126t-112 -82t-155.5 -29q-17 0 -42 1t-52 3t-53 5.5t-40 7.5q-41 10 -51.5 26.5t-6.5 57.5 l15 123q4 32 18 37.5t57 3.5q56 -5 91 -4t57.5 9.5t34.5 23t23 35.5l22 45l-471 1046q-11 21 -4.5 37zM256 1756.5q-6 22.5 17 41.5l78 63q30 19 42.5 11.5t34.5 -31.5q70 -82 125.5 -118.5t134.5 -36.5q71 0 128 33t126 122q19 24 34 29t41 -13l77 -47q31 -17 24.5 -41.5 t-24.5 -56.5q-66 -130 -171.5 -196.5t-234.5 -66.5q-60 0 -122.5 16.5t-117 49t-101 79.5t-74.5 111q-11 29 -17 51.5z" />
<glyph unicode="&#x40f;" horiz-adv-x="1397" d="M144 47v1334q0 17 9 33t38 16h256q29 0 38.5 -14t9.5 -35v-1086h408v1086q0 17 9 33t38 16h256q29 0 38.5 -14t9.5 -35v-1334q0 -21 -9.5 -34t-38.5 -13h-340l-14 -279q-5 -50 -15 -63t-41 -13h-189q-31 0 -43 8.5t-14 51.5l-12 295h-347q-30 0 -38.5 16.5t-8.5 30.5z " />
<glyph unicode="&#x410;" horiz-adv-x="1328" d="M18.5 9.5q-8.5 9.5 2.5 46.5l416 1312q10 31 25.5 46.5t58.5 15.5h271q45 0 58.5 -17.5t25.5 -47.5l431 -1314q7 -26 2.5 -38.5t-27.5 -12.5h-267q-36 0 -49.5 16.5t-23.5 49.5l-72 256h-427l-78 -262q-10 -35 -27.5 -47.5t-47.5 -12.5h-239q-24 0 -32.5 9.5zM517 585 h279l-65 236l-68 263h-11l-71 -261z" />
<glyph unicode="&#x411;" horiz-adv-x="1276" d="M144 45v1336q0 47 45 47h841q47 0 47 -47v-195q0 -18 -9.5 -31.5t-37.5 -13.5h-542v-251h228q150 0 247 -42t154 -108.5t78.5 -146.5t21.5 -154q0 -111 -41 -194t-111 -137t-161 -81t-190 -27h-523q-28 0 -37.5 13t-9.5 32zM486 279h200q82 0 133 43t51 119q0 90 -47 132 t-133 42h-204v-336z" />
<glyph unicode="&#x412;" horiz-adv-x="1332" d="M144 47v1334q0 21 10 34t37 13l546 2q222 0 334.5 -106.5t112.5 -291.5q0 -26 -6 -62.5t-22.5 -75t-47.5 -75.5t-78 -60l2 -8q62 -24 100 -65t58.5 -88.5t26.5 -93.5t6 -81q0 -101 -36 -179t-98.5 -133t-143.5 -83t-169 -28h-583q-30 0 -39.5 13t-9.5 34zM486 286h222 q94 0 129.5 45.5t35.5 109.5q0 66 -38.5 113.5t-126.5 47.5h-222v-316zM486 878h206q66 0 104.5 36.5t38.5 94.5t-36 96.5t-118 38.5h-195v-266z" />
<glyph unicode="&#x413;" horiz-adv-x="1110" d="M144 1383q0 19 10 33t37 14h839q47 0 47 -47v-197q0 -18 -9.5 -31.5t-39.5 -13.5h-540v-1094q0 -17 -7 -32t-38 -15h-250q-28 0 -37.5 13t-9.5 34z" />
<glyph unicode="&#x414;" horiz-adv-x="1521" d="M24 217q0 27 9.5 41.5t42.5 20.5l72 14q39 37 67 80.5t46 100.5t30 129t21 162l47 585q4 43 24.5 60.5t57.5 17.5h852q47 0 47 -49v-1093l88 -9q47 -6 47 -62l-24 -482q-4 -49 -12.5 -62t-40.5 -13h-187q-33 0 -44.5 11t-13.5 54l-14 277h-771l-19 -277q-5 -43 -16 -54 t-45 -11h-191q-31 0 -42.5 12t-13.5 61zM538 293h451v848h-314l-39 -457q-10 -125 -31.5 -223t-66.5 -168z" />
<glyph unicode="&#x415;" horiz-adv-x="1199" d="M146 45v1336q0 21 10 35t37 14h854q45 0 45 -47v-197q0 -18 -9.5 -31.5t-37.5 -13.5h-557v-259h486q50 0 50 -45v-197q0 -18 -10 -31.5t-40 -13.5h-486v-309h568q48 0 48 -48v-195q0 -19 -10 -31t-38 -12h-863q-28 0 -37.5 13t-9.5 32z" />
<glyph unicode="&#x416;" horiz-adv-x="2017" d="M78 54l131 417q33 101 70 169t113 97q-64 26 -106.5 96t-76.5 173l-115 364q-16 54 39 54h228q50 0 66 -14.5t29 -50.5l103 -329q14 -47 37.5 -76t48 -44t50 -20.5t52.5 -5.5h90v497q0 21 9.5 35t37.5 14h251q31 0 38 -16t7 -33v-497h90q27 0 52.5 5.5t51.5 20.5t47.5 44 t36.5 76l103 329q15 36 30 50.5t65 14.5h228q55 0 39 -54l-113 -364q-37 -103 -79.5 -173t-105.5 -96q76 -30 114 -97.5t69 -168.5l131 -417q17 -54 -39 -54h-244q-50 0 -65 14t-30 50l-110 381q-30 95 -79 121.5t-108 26.5h-84v-546q0 -14 -7 -30.5t-38 -16.5h-251 q-28 0 -37.5 13t-9.5 34v546h-84q-58 0 -108 -26.5t-79 -121.5l-110 -381q-13 -37 -29 -50.5t-66 -13.5h-244q-56 0 -39 54z" />
<glyph unicode="&#x417;" horiz-adv-x="1221" d="M35 114q0 15 2 24l23 118q4 29 15 39.5t34 10.5q15 0 24 -3q95 -14 192.5 -23t175.5 -9q131 0 197.5 43t66.5 140q0 75 -44 121.5t-147 46.5h-159q-39 0 -50.5 11.5t-11.5 47.5v140q0 35 11.5 51t48.5 16h157q69 0 125 34.5t56 97.5q0 43 -17.5 71.5t-47.5 46t-71 24 t-88 6.5q-62 0 -146 -7.5t-174 -25.5q-11 -2 -20 -3t-15 -1q-19 0 -28 9t-15 32q-6 34 -13 66t-15 67q-2 9 -2 24q0 19 14 33.5t53 30.5q45 17 100.5 30t112 20.5t108 11t89.5 3.5q269 0 393.5 -106.5t124.5 -295.5q0 -90 -48 -171t-130 -122q90 -36 144 -116.5t54 -199.5 q0 -118 -42 -205.5t-119 -145t-186 -86.5t-240 -29q-30 0 -83.5 3t-114 10.5t-120 18.5t-104.5 28q-41 17 -55.5 33t-14.5 40z" />
<glyph unicode="&#x418;" horiz-adv-x="1465" d="M142 45v1334q0 24 10 36.5t37 12.5h248q30 0 38.5 -16.5t8.5 -32.5v-770q19 28 37.5 57t37.5 58l409 646q17 21 35.5 39.5t61.5 18.5h210q28 0 36.5 -16.5t8.5 -30.5v-1336q0 -17 -8.5 -31t-38.5 -14h-247q-47 0 -47 45v794h-3l-496 -781q-17 -24 -40 -41t-66 -17h-185 q-28 0 -37.5 12t-9.5 33z" />
<glyph unicode="&#x419;" horiz-adv-x="1465" d="M142 45v1334q0 24 10 36.5t37 12.5h248q30 0 38.5 -16.5t8.5 -32.5v-770q19 28 37.5 57t37.5 58l409 646q17 21 35.5 39.5t61.5 18.5h210q28 0 36.5 -16.5t8.5 -30.5v-1336q0 -17 -8.5 -31t-38.5 -14h-247q-47 0 -47 45v794h-3l-496 -781q-17 -24 -40 -41t-66 -17h-185 q-28 0 -37.5 12t-9.5 33zM309.5 1768.5q-6.5 22.5 17.5 41.5l77 63q31 19 43.5 11.5t34.5 -31.5q69 -82 125 -118t135 -36q72 0 128.5 33t124.5 121q19 24 34.5 29.5t41.5 -11.5l78 -47q30 -17 23.5 -42t-23.5 -58q-66 -129 -171.5 -195t-235.5 -66q-60 0 -123 15.5 t-117.5 48t-100.5 80t-74 111.5q-11 28 -17.5 50.5z" />
<glyph unicode="&#x41a;" horiz-adv-x="1356" d="M142 47v1334q0 21 11 35t38 14h256q31 0 38 -16t7 -33v-497h119q26 0 51.5 5.5t50 20.5t46 44t37.5 76l105 329q13 36 29 50.5t65 14.5h228q56 0 39 -54l-113 -364q-35 -103 -78 -173t-105 -96q76 -30 112 -97.5t71 -168.5l131 -417q17 -54 -39 -54h-246q-49 0 -65 14 t-29 50l-109 381q-31 95 -80 121.5t-108 26.5h-112v-546q0 -14 -7 -30.5t-38 -16.5h-256q-49 0 -49 47z" />
<glyph unicode="&#x41b;" horiz-adv-x="1362" d="M26 174q0 31 8.5 38t39.5 16q53 12 89.5 31.5t60.5 57.5t35.5 98.5t17.5 156.5q13 205 26 404.5t24 402.5q0 49 47 49h800q45 0 45 -49v-1332q0 -17 -7.5 -32t-37.5 -15h-256q-50 0 -50 47v1090h-234q-12 -197 -17.5 -359.5t-18.5 -290.5t-39 -222.5t-79.5 -158 t-141.5 -95.5t-221 -35q-56 0 -70 13t-14 44q0 36 -3.5 70.5t-3.5 70.5z" />
<glyph unicode="&#x41c;" horiz-adv-x="1676" d="M146 47v1336q0 19 10 33t35 14h185q43 0 61.5 -12t33.5 -39l208 -425l160 -332h8l164 337l208 418q15 26 32 39.5t60 13.5h177q30 0 36.5 -16t6.5 -31v-1336q0 -17 -6.5 -32t-36.5 -15h-241q-28 0 -37.5 13t-9.5 34v659l-6 2l-76 -168l-135 -278q-15 -26 -34.5 -40.5 t-56.5 -14.5h-104q-39 0 -57.5 13.5t-33.5 37.5l-141 288l-74 164l-4 -2v-661q0 -17 -8 -32t-37 -15h-242q-26 0 -35.5 13t-9.5 34z" />
<glyph unicode="&#x41d;" horiz-adv-x="1391" d="M144 47v1334q0 21 11 35t36 14h250q30 0 37.5 -16t7.5 -33v-495h419v495q0 21 11 35t36 14h250q31 0 38 -16t7 -33v-1334q0 -17 -7 -32t-38 -15h-250q-47 0 -47 47v550h-419v-550q0 -17 -7.5 -32t-37.5 -15h-250q-47 0 -47 47z" />
<glyph unicode="&#x41e;" horiz-adv-x="1481" d="M123 733q0 62 7.5 140.5t30 157.5t63.5 154t108.5 133.5t166 93.5t236.5 35q203 0 324 -63.5t188 -165.5t88.5 -230t21.5 -255q0 -123 -18.5 -255t-82.5 -242.5t-188 -182.5t-335 -72q-140 0 -239.5 33t-167.5 89.5t-108 131.5t-61.5 159t-27.5 171t-6 168zM484 710 q0 -218 52.5 -326.5t200.5 -108.5q152 0 210.5 106.5t58.5 328.5q0 230 -57 336.5t-212 106.5q-144 0 -198.5 -108.5t-54.5 -334.5z" />
<glyph unicode="&#x41f;" horiz-adv-x="1393" d="M146 47v1334q0 21 10 35t35 14h1013q29 0 36 -16t7 -33v-1334q0 -17 -7 -32t-36 -15h-250q-28 0 -37.5 13t-9.5 34v1094h-421v-1094q0 -17 -7.5 -32t-37.5 -15h-250q-26 0 -35.5 13t-9.5 34z" />
<glyph unicode="&#x420;" horiz-adv-x="1219" d="M144 47v1336q0 19 10 33t37 14h499q101 0 189.5 -28t155 -83t104 -139t37.5 -195q0 -76 -20.5 -156t-74 -148t-148 -112t-243.5 -44h-204v-478q0 -17 -7.5 -32t-37.5 -15h-250q-47 0 -47 47zM486 802h159q84 0 132 43t48 131q0 87 -50.5 127.5t-134.5 40.5h-154v-342z " />
<glyph unicode="&#x421;" horiz-adv-x="1274" d="M125 708q0 131 24.5 263.5t92.5 237.5t189 170.5t318 65.5q100 0 209 -16t195 -52q32 -15 49 -33.5t9 -59.5l-29 -125q-6 -30 -19.5 -38.5t-52.5 -4.5q-90 11 -175.5 17t-154.5 6q-90 0 -147 -33t-89.5 -91t-44 -135.5t-11.5 -165.5q0 -101 11.5 -181.5t44 -136.5 t89.5 -85.5t145 -29.5t160.5 7t173.5 18q41 4 53.5 -3.5t20.5 -40.5l29 -114q10 -41 -5.5 -61.5t-48.5 -35.5q-41 -16 -91 -30.5t-105.5 -24t-110 -13.5t-103.5 -4q-193 0 -316 63t-192 166.5t-93.5 234.5t-24.5 265z" />
<glyph unicode="&#x422;" horiz-adv-x="1120" d="M26 1186v197q0 21 8.5 34t39.5 13h973q47 0 47 -47v-197q0 -18 -9.5 -31.5t-37.5 -13.5h-318v-1094q0 -17 -7.5 -32t-37.5 -15h-247q-29 0 -38 13t-9 34v1094h-316q-31 0 -39.5 13.5t-8.5 31.5z" />
<glyph unicode="&#x423;" horiz-adv-x="1338" d="M49.5 1414q6.5 16 30.5 16h255q37 0 52 -11t32 -40l129 -336l133 -359h9l137 370l117 311q17 30 32 47.5t52 17.5h240q27 0 33 -15t-4 -32l-415 -1026q-39 -90 -76.5 -163t-86 -126t-112 -82t-155.5 -29q-17 0 -42 1t-52 3t-53 5.5t-40 7.5q-41 10 -51.5 26.5t-6.5 57.5 l15 123q4 32 18 37.5t57 3.5q56 -5 91 -4t57.5 9.5t34.5 23t23 35.5l22 45l-471 1046q-11 21 -4.5 37z" />
<glyph unicode="&#x424;" horiz-adv-x="1783" d="M121 747q0 47 9.5 108t35 124.5t69.5 125t112 111.5t162.5 86t221.5 44v35q0 21 10 35t37 14h248q30 0 38.5 -16t8.5 -33v-35q181 -15 296 -76t179.5 -146.5t89 -185t24.5 -191.5q0 -95 -24.5 -199.5t-90 -193.5t-179.5 -154t-295 -81v-72q0 -17 -8.5 -32t-38.5 -15h-248 q-28 0 -37.5 13t-9.5 34v70q-129 8 -224.5 40t-163.5 81.5t-111 112t-67.5 130t-34 135.5t-9.5 131zM476 731q0 -148 59.5 -230t195.5 -101v667q-134 -17 -194.5 -105.5t-60.5 -230.5zM1073 404q125 17 185 100t60 225q0 135 -56 225.5t-189 108.5v-659z" />
<glyph unicode="&#x425;" horiz-adv-x="1266" d="M32 18.5q-4 18.5 11 41.5l396 669l-373 639q-12 24 -6 43t37 19h266q33 0 44.5 -10t27.5 -37l98 -191l95 -190l96 200l93 179q13 26 27 36.5t42 10.5h273q43 2 45 -17.5t-8 -36.5l-383 -645l398 -673q10 -17 8 -36.5t-37 -19.5h-268q-27 0 -42.5 8.5t-32.5 36.5l-106 203 l-107 212l-105 -212l-104 -197q-15 -30 -32 -40.5t-50 -10.5h-269q-30 0 -34 18.5z" />
<glyph unicode="&#x426;" horiz-adv-x="1465" d="M144 47v1334q0 17 9 33t38 16h256q29 0 38.5 -14t9.5 -35v-1086h408v1086q0 17 9 33t38 16h256q29 0 38.5 -14t9.5 -35v-1080l125 -13q30 -4 39.5 -21t7.5 -50l-26 -484q-5 -49 -13 -62t-41 -13h-187q-30 0 -39.5 10t-13.5 53l-16 279h-899q-30 0 -38.5 16.5t-8.5 30.5z " />
<glyph unicode="&#x427;" horiz-adv-x="1340" d="M74 923v460q0 17 8 32t39 15h247q28 0 37.5 -13t9.5 -34v-431q0 -75 35.5 -122.5t136.5 -47.5q21 0 54.5 4t70.5 9t74 13.5t70 18.5v556q0 12 7 29.5t38 17.5h250q28 0 37.5 -13t9.5 -34q-2 -529 -1 -861.5t1 -474.5q0 -21 -9 -33t-38 -12h-250q-47 0 -47 45l2 505 q-39 -12 -83 -22.5t-88.5 -17.5t-86.5 -11t-75 -4q-138 0 -225 36.5t-138 96.5t-68.5 136.5t-17.5 156.5z" />
<glyph unicode="&#x428;" horiz-adv-x="1935" d="M146 49v1334q0 17 8 32t37 15h250q26 0 35.5 -13t9.5 -34v-1095h306v1093q0 17 8 33t39 16h249q26 0 35.5 -14t9.5 -35v-1093h316v1095q0 17 9 32t38 15h248q28 0 37.5 -13t9.5 -34v-1334q0 -16 -7 -32.5t-38 -16.5h-1555q-30 0 -37.5 16.5t-7.5 32.5z" />
<glyph unicode="&#x429;" horiz-adv-x="2013" d="M144 49v1334q0 15 9 31t38 16h256q29 0 38.5 -13t9.5 -34v-1088h297v1086q0 17 8 33t39 16h255q28 0 37.5 -14t9.5 -35v-1086h310v1088q0 15 8 31t37 16h259q26 0 35.5 -13t9.5 -34v-1082l125 -13q30 -4 40.5 -21t6.5 -50l-26 -484q-5 -49 -13 -62t-41 -13h-185 q-32 0 -41.5 10t-13.5 53l-15 279h-1446q-30 0 -38.5 16.5t-8.5 32.5z" />
<glyph unicode="&#x42a;" horiz-adv-x="1607" d="M17 1184v197q0 21 9 34t38 13h697q47 0 47 -47v-493h226q150 0 248.5 -42t155 -107.5t78 -145.5t21.5 -154q0 -115 -41 -196t-110.5 -136.5t-161 -81t-192.5 -25.5h-521q-28 0 -37.5 13t-9.5 32l-2 1096h-398q-30 0 -38.5 12.5t-8.5 30.5zM806 279h200q84 0 135 43 t51 119q0 92 -49 133t-130 41h-207v-336z" />
<glyph unicode="&#x42b;" horiz-adv-x="1831" d="M142 45v1336q0 47 49 47h248q47 0 47 -47v-491h226q150 0 248 -42t154 -108.5t78.5 -146.5t22.5 -154q0 -111 -41 -194t-110 -137t-160 -81t-192 -27h-521q-30 0 -39.5 13t-9.5 32zM484 279h202q82 0 132 43t50 119q0 92 -47 133t-129 41h-208v-336zM1346 47v1334 q0 21 11 35t36 14h250q31 0 38 -16t7 -33v-1334q0 -17 -7.5 -32t-37.5 -15h-250q-47 0 -47 47z" />
<glyph unicode="&#x42c;" horiz-adv-x="1278" d="M142 45v1336q0 47 49 47h248q47 0 47 -47v-491h226q150 0 248 -42t154 -108.5t78.5 -146.5t22.5 -154q0 -111 -41 -194t-110 -137t-160 -81t-192 -27h-521q-30 0 -39.5 13t-9.5 32zM484 279h202q82 0 132 43t50 119q0 92 -46 133t-130 41h-208v-336z" />
<glyph unicode="&#x42d;" horiz-adv-x="1289" d="M92 148l31 114q8 35 25.5 41.5t48.5 2.5q54 -7 97.5 -12.5t82 -7.5t75 -3.5t79.5 -1.5q76 0 128.5 21.5t85.5 62.5t51.5 98.5t24.5 127.5h-472q-29 0 -38.5 12t-9.5 31v181q0 47 48 47h468q-4 60 -18 112t-44.5 88.5t-78.5 56.5t-120 20q-69 0 -156.5 -6t-163.5 -17 q-32 -4 -51 2.5t-25 40.5l-27 123q-8 41 8.5 60t49.5 35q82 36 189.5 52t208.5 16q131 0 226.5 -30t162.5 -81.5t109 -122t65.5 -150.5t32.5 -168.5t9 -174.5q0 -135 -26.5 -267.5t-96 -237t-192 -168.5t-317.5 -64q-103 0 -215.5 16t-196.5 52q-34 17 -51 38.5t-7 60.5z " />
<glyph unicode="&#x42e;" horiz-adv-x="1930" d="M146 47v1334q0 21 10 35t35 14h250q30 0 37.5 -16t7.5 -33v-499h142q10 92 41.5 192t97.5 181t172 133.5t267 52.5q196 0 314.5 -63.5t182.5 -164.5t84.5 -228t20.5 -256q0 -80 -6 -166.5t-29 -170.5t-62.5 -158t-107.5 -130.5t-164.5 -89.5t-232.5 -33 q-174 0 -284.5 54.5t-174 143t-90.5 199t-35 222.5h-136v-553q0 -17 -7.5 -32t-37.5 -15h-250q-26 0 -35.5 13t-9.5 34zM976 708q0 -218 51.5 -326.5t183.5 -108.5q133 0 188.5 107.5t55.5 327.5q0 230 -52.5 335.5t-191.5 105.5q-134 0 -184.5 -108t-50.5 -333z" />
<glyph unicode="&#x42f;" horiz-adv-x="1338" d="M86 54l121 369q28 88 58 136t86 77q-58 21 -99 60t-64.5 87t-34.5 101.5t-11 102.5q0 117 41 199t108.5 137.5t152.5 81t176 25.5h529q28 0 37.5 -14t9.5 -33v-1336q0 -21 -10 -34t-37 -13h-257q-30 0 -38.5 16.5t-8.5 30.5v512h-127q-49 -3 -90 -32.5t-72 -113.5 l-111 -349q-12 -37 -28.5 -50.5t-65.5 -13.5h-226q-56 0 -39 54zM503 981q0 -48 16.5 -76.5t41 -45t54.5 -22.5t60 -6h170v304h-170q-64 0 -118 -36t-54 -118z" />
<glyph unicode="&#x430;" horiz-adv-x="1231" d="M84 299q-2 99 27 168t83 111t131 60t172 18h247v34q0 34 -7.5 58t-28 39t-57 22.5t-97.5 7.5q-24 0 -59 -2t-73.5 -4.5t-77 -6.5t-71.5 -6q-45 -4 -59 0t-23 37l-23 111q-4 28 7.5 46.5t60.5 37.5q37 13 85.5 23t99 16t100 9.5t86.5 3.5q150 0 241.5 -28t139.5 -79.5 t63.5 -127t15.5 -172.5v-340q0 -35 3 -54t11.5 -28.5t23.5 -14t42 -6.5q28 -2 36.5 -9.5t8.5 -27.5v-137q0 -43 -63 -56q-60 -15 -134 -15q-79 0 -139 27t-82 113l-4 2q-43 -39 -92.5 -66.5t-101 -46t-101 -26t-90.5 -7.5q-94 0 -153.5 27t-92 70t-44 99.5t-11.5 119.5z M415 316q0 -49 20.5 -68.5t75.5 -19.5q50 0 115.5 23.5t110.5 51.5v144h-193q-60 0 -94.5 -27.5t-34.5 -103.5z" />
<glyph unicode="&#x431;" horiz-adv-x="1190" d="M90 595q0 54 1 114.5t5.5 123t15.5 123.5t28 117q34 109 103 200.5t183 154.5q91 49 201 80t246 70q21 4 35.5 0t22.5 -27l54 -153q6 -21 8 -42.5t-27 -30.5l-201 -57q-84 -26 -143.5 -52t-99.5 -62t-62.5 -85t-29.5 -119h3q51 43 112.5 60.5t123.5 17.5q127 0 211 -42 t134.5 -114t72 -166.5t21.5 -200.5q0 -90 -19.5 -183.5t-74.5 -169.5t-155 -123.5t-262 -47.5q-176 0 -277 53.5t-152 140.5t-64.5 197t-13.5 223zM441 499q0 -50 5.5 -92t22.5 -73t47 -48t79 -17q54 0 87.5 19.5t52 52.5t23.5 76t5 92q0 52 -6 95t-22.5 75.5t-46.5 50 t-81 17.5q-54 0 -86.5 -21.5t-50.5 -56.5t-23.5 -79t-5.5 -91z" />
<glyph unicode="&#x432;" horiz-adv-x="1151" d="M101 47v970q0 25 11 35.5t40 10.5h504q200 0 292.5 -80t92.5 -222q0 -17 -5.5 -43t-18.5 -53t-38 -54.5t-63 -46.5q49 -21 80.5 -51.5t49 -64t22.5 -65.5t5 -56q0 -78 -31 -139t-85 -103t-126 -63.5t-152 -21.5h-525q-32 0 -42.5 13t-10.5 34zM430 256h190q64 0 88.5 31 t24.5 62q0 38 -23.5 66t-81.5 28h-198v-187zM430 652h177q45 0 68.5 24t23.5 55q0 30 -21.5 53.5t-77.5 23.5h-170v-156z" />
<glyph unicode="&#x433;" horiz-adv-x="991" d="M103 45v968q0 24 10 37t39 13h764q43 0 43 -50v-164q0 -30 -14 -38.5t-31 -8.5h-481v-757q0 -17 -9 -31t-39 -14h-231q-30 0 -40.5 10.5t-10.5 34.5z" />
<glyph unicode="&#x434;" horiz-adv-x="1358" d="M24 189q0 30 17 45.5t37 19.5l60 8q55 50 82.5 114.5t44.5 169.5l53 357q13 90 48.5 125t125.5 35h630q27 0 43.5 -15.5t16.5 -45.5v-744l68 -6q32 -4 42.5 -24.5t10.5 -51.5l-21 -404q-2 -43 -18.5 -52.5t-46.5 -9.5h-157q-30 0 -40.5 10.5t-13.5 41.5l-11 238h-662 l-21 -238q-4 -37 -14 -44.5t-31 -7.5h-185q-28 0 -36.5 11.5t-10.5 46.5zM513 265h332v529h-221l-22 -190q-15 -119 -33.5 -199.5t-55.5 -139.5z" />
<glyph unicode="&#x435;" horiz-adv-x="1145" d="M90 523q0 78 13.5 174.5t62.5 182.5t147 144t268 58q154 0 249 -44.5t147.5 -115t72 -158t19.5 -173.5q0 -66 -24.5 -101.5t-94.5 -35.5h-524q2 -62 19 -101t46.5 -61.5t71 -30t95.5 -7.5q50 0 118.5 6.5t134.5 14.5q43 4 54 -1t20 -46l17 -101q6 -37 -0.5 -57.5 t-55.5 -39.5q-32 -10 -76.5 -20t-90.5 -16.5t-93.5 -9.5t-85.5 -3q-162 0 -262 45t-154.5 119t-74 172t-19.5 206zM430 647h299q0 77 -32 130.5t-116 53.5q-76 0 -111 -47t-40 -137z" />
<glyph unicode="&#x436;" horiz-adv-x="1676" d="M39 51l82 255q39 111 83 163t118 73v6q-62 17 -104 73t-80 175l-74 213q-8 19 1 35t36 16h209q47 0 62 -12t28 -44l78 -200q14 -43 31.5 -66.5t37 -34.5t41 -13t44.5 -2h41v329q0 19 9.5 32.5t37.5 13.5h241q30 0 36.5 -15.5t6.5 -30.5v-329h43q24 0 45.5 2t41 13 t35 34.5t33.5 66.5l80 200q13 32 28 44t62 12h208q29 0 36 -16t1 -35l-73 -213q-41 -119 -83.5 -174.5t-103.5 -73.5v-6q73 -21 117 -73t81 -163l82 -255q8 -16 0.5 -33.5t-37.5 -17.5h-223q-46 0 -62 12t-29 44l-71 221q-31 86 -75 111t-93 25h-43v-368q0 -15 -6.5 -30 t-36.5 -15h-241q-28 0 -37.5 13t-9.5 32v368h-43q-47 0 -92.5 -25t-75.5 -111l-72 -221q-13 -33 -28.5 -44.5t-62.5 -11.5h-223q-29 0 -36 17.5t-1 33.5z" />
<glyph unicode="&#x437;" horiz-adv-x="1022" d="M36.5 70.5q-6.5 19.5 0.5 58.5l21 103q8 30 19 36.5t46 2.5q82 -11 157 -17t157 -6q146 0 146 98q0 52 -41 73.5t-97 21.5h-105q-30 0 -38.5 8.5t-8.5 34.5v129q0 24 8.5 31.5t38.5 7.5h88q70 0 108 20t38 63q0 45 -32.5 63.5t-87.5 18.5q-27 0 -60 -2t-69.5 -4.5 t-73 -6.5t-68.5 -6q-48 -4 -61 1t-19 40l-23 111q-4 35 8.5 50t40.5 28q69 30 172 44t200 14q80 0 155 -16t132 -52.5t91.5 -97t34.5 -146.5q0 -24 -7.5 -53t-24 -58t-41 -55.5t-61.5 -43.5v-8q45 -18 74.5 -46t48 -59.5t26 -64.5t7.5 -64q0 -105 -48.5 -171.5t-123 -104.5 t-163 -51.5t-164.5 -13.5q-35 0 -80 3t-92.5 9.5t-92.5 16t-80 23.5q-49 18 -55.5 37.5z" />
<glyph unicode="&#x438;" horiz-adv-x="1233" d="M103 49v964q0 24 10 37t39 13h231q31 0 39 -16.5t8 -33.5v-510h7q34 47 69.5 96.5t64.5 91.5t49 71.5t27 37.5l155 217q15 19 34.5 32.5t60.5 13.5h187q30 0 38.5 -16.5t8.5 -33.5v-964q0 -16 -8.5 -32.5t-40.5 -16.5h-228q-50 0 -50 49v532h-6l-228 -319 q-10 -14 -31.5 -43.5t-46 -62.5t-47 -62.5t-32.5 -44.5q-17 -24 -36.5 -36.5t-58.5 -12.5h-166q-30 0 -39.5 13t-9.5 36z" />
<glyph unicode="&#x439;" horiz-adv-x="1233" d="M103 49v964q0 24 10 37t39 13h231q31 0 39 -16.5t8 -33.5v-510h7q34 47 69.5 96.5t64.5 91.5t49 71.5t27 37.5l155 217q15 19 34.5 32.5t60.5 13.5h187q30 0 38.5 -16.5t8.5 -33.5v-964q0 -16 -8.5 -32.5t-40.5 -16.5h-228q-50 0 -50 49v532h-6l-228 -319 q-10 -14 -31.5 -43.5t-46 -62.5t-47 -62.5t-32.5 -44.5q-17 -24 -36.5 -36.5t-58.5 -12.5h-166q-30 0 -39.5 13t-9.5 36zM185 1452.5q-7 22.5 18 41.5l76 63q31 19 43.5 11.5t34.5 -31.5q69 -82 125 -118t135 -36q72 0 128.5 33t124.5 121q19 24 35 29.5t41 -11.5l78 -47 q30 -17 23.5 -42t-23.5 -58q-66 -129 -171.5 -195t-235.5 -66q-59 0 -121.5 15.5t-118 48t-101.5 80t-73 111.5q-11 28 -18 50.5z" />
<glyph unicode="&#x43a;" horiz-adv-x="1137" d="M103 45v972q0 19 10 32.5t35 13.5h248q30 0 36.5 -15.5t6.5 -30.5v-329h53q25 0 46 2t40 13t36.5 34.5t34.5 66.5l78 200q12 32 27.5 44t64.5 12h207q28 0 36.5 -16t0.5 -35l-74 -213q-39 -119 -83 -174.5t-106 -73.5v-6q76 -21 120 -73t80 -163l82 -255 q8 -16 -0.5 -33.5t-36.5 -17.5h-224q-47 0 -62 12t-28 44l-71 221q-30 86 -75 111t-93 25h-53v-368q0 -15 -6.5 -30t-36.5 -15h-248q-26 0 -35.5 13t-9.5 32z" />
<glyph unicode="&#x43b;" horiz-adv-x="1221" d="M13 168q0 24 7.5 35.5t39.5 22.5q41 12 71.5 25.5t51 37t34 61t19.5 99.5l52 462q8 91 47 121.5t136 30.5h596q32 0 40.5 -15.5t8.5 -32.5v-970q0 -17 -8.5 -31t-38.5 -14h-238q-31 0 -41 10.5t-10 34.5v749h-204l-40 -379q-11 -88 -29.5 -168.5t-65.5 -142t-134.5 -97 t-230.5 -35.5q-35 0 -41.5 12t-8.5 37z" />
<glyph unicode="&#x43c;" horiz-adv-x="1389" d="M103 45v968q0 24 10 34.5t35 10.5h194q43 0 60 -10t31 -33l117 -237q39 -71 74.5 -143.5t74.5 -144.5q37 70 71 138.5t71 136.5l127 248q13 27 31 36t59 9h181q26 0 35.5 -11t9.5 -32v-970q0 -45 -47 -45h-217q-31 0 -40.5 14t-9.5 31v452h-4l-80 -168l-65 -129 q-19 -44 -74 -42h-98q-37 0 -53.5 9t-27.5 33l-69 138l-78 159h-4v-452q0 -17 -9.5 -31t-39.5 -14h-218q-47 0 -47 45z" />
<glyph unicode="&#x43d;" horiz-adv-x="1203" d="M103 47v964q0 24 9 36.5t38 12.5h235q31 0 38 -16t7 -33v-338h342v338q0 24 10 36.5t39 12.5h233q33 0 40 -16t7 -33v-964q0 -17 -7.5 -32t-39.5 -15h-233q-30 0 -39.5 12t-9.5 35v383h-342v-383q0 -17 -7.5 -32t-37.5 -15h-235q-30 0 -38.5 12t-8.5 35z" />
<glyph unicode="&#x43e;" horiz-adv-x="1180" d="M90 546q0 74 15.5 166t66 175t148 139t263.5 56t266.5 -48.5t154.5 -125.5t71 -173.5t17 -188.5q0 -88 -12.5 -187t-64 -183t-154 -138.5t-278.5 -54.5q-175 0 -272.5 54.5t-147 138.5t-61.5 183t-12 187zM421 533q0 -141 32.5 -206t129.5 -65q107 0 140.5 67t33.5 204 q0 136 -31 202.5t-139 66.5q-99 0 -132.5 -68.5t-33.5 -200.5z" />
<glyph unicode="&#x43f;" horiz-adv-x="1203" d="M103 47v968q0 48 47 48h906q29 0 37 -11t8 -35v-970q0 -17 -8.5 -32t-38.5 -15h-235q-28 0 -37.5 13t-9.5 34l2 751h-341v-751q0 -17 -9 -32t-39 -15h-235q-28 0 -37.5 13t-9.5 34z" />
<glyph unicode="&#x440;" horiz-adv-x="1182" d="M103 -372v1385q0 21 10 34t35 13h237q31 0 38 -15t7 -32v-52q3 0 3 -1t2 -1q71 51 150.5 84.5t154.5 33.5q112 0 181.5 -42t109.5 -115t55 -172.5t15 -214.5q0 -129 -18 -232.5t-67.5 -174t-134.5 -109t-216 -38.5q-45 0 -110 7.5t-122 23.5h-3v-382q0 -14 -7.5 -30.5 t-37.5 -16.5h-237q-28 0 -36.5 12.5t-8.5 34.5zM430 281q52 -14 92 -18.5t75 -4.5q46 0 77.5 10.5t52 41t28.5 83t8 136.5q0 78 -7 125t-23.5 75t-41 37.5t-57.5 9.5q-49 0 -107.5 -22.5t-96.5 -39.5v-433z" />
<glyph unicode="&#x441;" horiz-adv-x="1026" d="M88 536q0 96 18.5 193.5t71 176.5t149 127.5t256.5 48.5q86 0 177.5 -12t160.5 -42q53 -21 45 -80l-24 -131q-9 -35 -23 -38t-59 1q-64 6 -122.5 11t-109.5 5q-109 0 -157 -61.5t-48 -192.5q0 -158 44 -216.5t157 -58.5q45 0 117 4t141 13q35 4 46.5 -0.5t17.5 -38.5 l22 -118q8 -37 -0.5 -57.5t-56.5 -39.5q-64 -24 -157.5 -36.5t-170.5 -12.5q-162 0 -259.5 47.5t-149 124.5t-69 177t-17.5 206z" />
<glyph unicode="&#x442;" horiz-adv-x="1012" d="M21 847v166q0 47 43 47h886q41 0 41 -47v-166q0 -30 -12.5 -38.5t-30.5 -8.5h-275v-757q0 -17 -9.5 -30t-39.5 -13h-228q-52 0 -52 43v757h-280q-17 0 -30 8.5t-13 38.5z" />
<glyph unicode="&#x443;" horiz-adv-x="1122" d="M30 1009q-21 54 34 54h231q31 0 44.5 -7t23.5 -39l101 -311l90 -295h12l26.5 79.5t33.5 98.5q19 56 39 121q24 69 49.5 154.5t48.5 152.5q9 25 22 35.5t52 10.5h214q37 0 41 -15.5t-6 -41.5l-512 -1376q-10 -30 -25.5 -39.5t-51.5 -9.5h-207q-33 0 -40 11.5t6 42.5 l146 393z" />
<glyph unicode="&#x444;" horiz-adv-x="1569" d="M88 533q0 89 23.5 181t85 169.5t163.5 132.5t262 68v297q0 21 8 35t37 14h238q31 0 37 -16t6 -33v-293q158 -13 260.5 -66.5t164 -131t85.5 -170t24 -182.5q0 -95 -24 -187.5t-83 -170t-162 -132t-265 -72.5v-311q0 -13 -5 -29t-36 -16h-240q-31 0 -38 13.5t-7 33.5v309 q-162 10 -266 63t-163.5 132t-82 173.5t-22.5 188.5zM413 525q0 -119 47 -189.5t162 -81.5v548q-103 -8 -156 -80.5t-53 -196.5zM948 254q103 11 155 76.5t52 194.5q0 123 -45 197t-162 82v-550z" />
<glyph unicode="&#x445;" horiz-adv-x="1113" d="M15.5 15q-7.5 15 12.5 43l340 484l-319 464q-12 19 -8 38t35 19h251q30 0 40.5 -8t26.5 -29l160 -261l162 259q11 21 23 30t35 9h267q38 0 42.5 -17.5t-10.5 -39.5l-331 -464l340 -484q14 -24 7 -41t-38 -17h-251q-26 0 -41 6.5t-28 30.5l-177 281l-174 -279 q-24 -39 -74 -39h-255q-28 0 -35.5 15z" />
<glyph unicode="&#x446;" horiz-adv-x="1244" d="M103 49v964q0 24 9 37t38 13h244q30 0 37.5 -16.5t7.5 -33.5v-746h314v746q0 24 8.5 37t38.5 13h241q21 0 34 -9t13 -41v-744l75 -7q35 -4 40.5 -20t0.5 -51l-22 -415q-2 -43 -11.5 -52.5t-39.5 -9.5h-167q-37 0 -47 10.5t-12 41.5l-6 234h-749q-30 0 -38.5 13t-8.5 36z " />
<glyph unicode="&#x447;" horiz-adv-x="1156" d="M64 706v307q0 17 6 32t35 15h248q26 0 32.5 -13t6.5 -34v-276q0 -80 30 -120.5t99 -40.5q49 0 107 20.5t96 35.5v381q0 17 5.5 32t35.5 15h246q29 0 34.5 -13t5.5 -34v-968q0 -21 -6.5 -33t-33.5 -12h-248q-30 0 -35.5 15t-5.5 30v331q-75 -28 -153.5 -53.5t-157.5 -25.5 q-121 0 -191 37.5t-104 96.5t-43 132t-9 143z" />
<glyph unicode="&#x448;" horiz-adv-x="1662" d="M103 51v962q0 24 9 37t36 13h239q31 0 38.5 -16.5t7.5 -33.5v-748h236v748q0 24 7.5 37t37.5 13h238q31 0 37 -16.5t6 -33.5v-748h232v748q0 24 10 37t41 13h236q21 0 32 -10t11 -40v-962q0 -24 -6.5 -37.5t-36.5 -13.5h-1366q-28 0 -36.5 14t-8.5 37z" />
<glyph unicode="&#x449;" horiz-adv-x="1724" d="M103 51v962q0 24 9 37t38 13h244q30 0 37.5 -16.5t7.5 -33.5v-746h230v746q0 24 8.5 37t38.5 13h243q30 0 37.5 -16.5t7.5 -33.5v-746h231v746q0 24 8.5 37t38.5 13h243q19 0 31 -9t12 -41v-746l77 -7q35 -4 39 -20t2 -51l-22 -415q-4 -43 -13.5 -52.5t-39.5 -9.5h-168 q-35 0 -45.5 10.5t-12.5 43.5l-6 234h-1229q-30 0 -38.5 14t-8.5 37z" />
<glyph unicode="&#x44a;" horiz-adv-x="1371" d="M17 841v176q0 31 11 38.5t28 7.5h593q30 0 40 -14.5t10 -31.5v-316h198q131 0 213 -34.5t128 -87t62 -116t16 -121.5q0 -86 -32 -149.5t-90.5 -106.5t-135.5 -64.5t-168 -21.5h-471q-31 0 -41 9.5t-10 33.5v753h-312q-24 0 -31.5 7.5t-7.5 37.5zM701 265h172 q59 0 93 23.5t34 66.5q0 53 -32 75t-92 22h-175v-187z" />
<glyph unicode="&#x44b;" horiz-adv-x="1599" d="M103 41v981q0 24 10 32.5t39 8.5h244q30 0 36.5 -12.5t6.5 -28.5v-321h193q131 0 213 -34.5t128.5 -87t62 -116t15.5 -121.5q0 -86 -32 -149.5t-90.5 -106.5t-135.5 -64.5t-167 -21.5h-478q-30 0 -37.5 8.5t-7.5 32.5zM441 265h166q60 0 94 23.5t34 66.5q0 53 -32 75 t-92 22h-170v-187zM1159 41v979q0 24 9.5 33.5t40.5 9.5h242q31 0 38 -13.5t7 -29.5v-979q0 -17 -7 -29t-38 -12h-242q-31 0 -40.5 8.5t-9.5 32.5z" />
<glyph unicode="&#x44c;" horiz-adv-x="1106" d="M103 43v981q0 24 10 31.5t39 7.5h244q30 0 36.5 -11t6.5 -28v-323h193q131 0 213 -34.5t128.5 -87t62 -116t15.5 -121.5q0 -86 -32 -149.5t-90.5 -106.5t-135.5 -64.5t-167 -21.5h-478q-30 0 -37.5 9.5t-7.5 33.5zM441 265h166q60 0 94 23.5t34 66.5q0 53 -32 75t-92 22 h-170v-187z" />
<glyph unicode="&#x44d;" horiz-adv-x="1040" d="M73 69.5q-9 20.5 1 57.5l14 103q6 35 18.5 39t43.5 0q69 -9 142 -13t119 -4q86 0 133 36t60 142h-323q-34 0 -45.5 13t-11.5 39v129q0 31 10.5 39t46.5 8h314q-10 91 -54 125t-126 34q-50 0 -104.5 -4.5t-119.5 -10.5q-45 -4 -59.5 -1t-22.5 40l-19 107q-12 58 45 80 q70 30 163.5 42t179.5 12q157 0 251 -47.5t144 -124.5t64.5 -175.5t14.5 -198.5q0 -110 -18 -210t-73 -176t-152.5 -122.5t-254.5 -46.5q-78 0 -169.5 12.5t-155.5 36.5q-47 19 -56 39.5z" />
<glyph unicode="&#x44e;" horiz-adv-x="1578" d="M103 49v964q0 24 9 37t36 13h242q30 0 36.5 -16.5t6.5 -33.5v-340h111q8 66 34 138.5t79 132.5t138 97.5t211 37.5q157 0 252.5 -49t146 -127t67 -172.5t16.5 -184.5q0 -86 -11.5 -185t-60 -183t-144.5 -139.5t-266 -55.5q-142 0 -230 40.5t-138.5 105t-71 145.5 t-26.5 161h-107v-386q0 -16 -7 -32.5t-36 -16.5h-242q-28 0 -36.5 13t-8.5 36zM854 533q0 -139 28.5 -205t123.5 -66q101 0 131.5 69t30.5 202q0 64 -5.5 114t-23 83t-48.5 51.5t-82 18.5q-94 0 -124.5 -72t-30.5 -195z" />
<glyph unicode="&#x44f;" horiz-adv-x="1153" d="M62 51l65 205q28 80 58 129.5t77 74.5q-45 19 -73.5 48.5t-46 65t-24.5 73t-7 73.5q0 86 32.5 151t88.5 108t131.5 64.5t163.5 21.5h477q30 0 38.5 -11t8.5 -32v-977q0 -21 -8.5 -33t-38.5 -12h-241q-30 0 -39.5 14t-9.5 31v340h-105q-43 -2 -78.5 -28t-62.5 -107 l-60 -188q-12 -37 -27.5 -49.5t-64.5 -12.5h-217q-54 0 -37 51zM445 720q0 -92 117 -92h152v185h-152q-56 0 -86.5 -26t-30.5 -67z" />
<glyph unicode="&#x451;" horiz-adv-x="1145" d="M90 523q0 78 13.5 174.5t62.5 182.5t147 144t268 58q154 0 249 -44.5t147.5 -115t72 -158t19.5 -173.5q0 -66 -24.5 -101.5t-94.5 -35.5h-524q2 -62 19 -101t46.5 -61.5t71 -30t95.5 -7.5q50 0 118.5 6.5t134.5 14.5q43 4 54 -1t20 -46l17 -101q6 -37 -0.5 -57.5 t-55.5 -39.5q-32 -10 -76.5 -20t-90.5 -16.5t-93.5 -9.5t-85.5 -3q-162 0 -262 45t-154.5 119t-74 172t-19.5 206zM207 1342q0 62 30 104t126 42q99 0 129.5 -40t30.5 -106q0 -31 -6 -58.5t-22.5 -49t-48 -33t-83.5 -11.5q-53 0 -84 12.5t-47.5 33t-20.5 48t-4 58.5z M430 647h299q0 77 -32 130.5t-116 53.5q-76 0 -111 -47t-40 -137zM656 1342q0 62 31 104t126 42q101 0 130 -40t29 -106q0 -31 -5.5 -58.5t-22.5 -49t-48.5 -33t-82.5 -11.5q-52 0 -83 12.5t-47 33t-21.5 48t-5.5 58.5z" />
<glyph unicode="&#x452;" horiz-adv-x="1360" d="M74 1170v110q0 24 6 30t29 6h86v155q0 21 9 34t36 13h252q31 0 36 -16t5 -31v-155h388q24 0 28.5 -7.5t4.5 -28.5v-112q0 -19 -5 -28t-28 -9h-388v-222q80 41 168.5 59.5t166.5 18.5q103 0 180 -39t126 -108.5t72.5 -168.5t23.5 -217q0 -105 -26.5 -209.5t-81 -198 t-138.5 -173.5t-201 -135q-39 -17 -55 -17q-27 0 -46 34l-64 112l-10.5 21t-4.5 18q0 12 13 24t36 29q107 71 177.5 194.5t70.5 312.5q0 228 -191 229q-45 0 -101.5 -14t-114.5 -43v-591q0 -17 -5 -32t-36 -15h-252q-28 0 -36.5 13t-8.5 34v1084h-86q-24 0 -29.5 8t-5.5 31z " />
<glyph unicode="&#x453;" horiz-adv-x="991" d="M103 45v968q0 24 10 37t39 13h764q43 0 43 -50v-164q0 -30 -14 -38.5t-31 -8.5h-481v-757q0 -17 -9 -31t-39 -14h-231q-30 0 -40.5 10.5t-10.5 34.5zM336.5 1238.5q-5.5 11.5 5.5 31.5l200 371q12 24 28.5 25.5t31.5 -6.5l163 -92q46 -24 11 -64l-253 -326 q-11 -15 -23 -22t-32 3l-111 60q-15 8 -20.5 19.5z" />
<glyph unicode="&#x454;" horiz-adv-x="1042" d="M88 536q0 96 17.5 193.5t71 176.5t150 127.5t256.5 48.5q86 0 177.5 -12t160.5 -42q53 -21 45 -80l-22 -107q-6 -37 -21.5 -40t-60.5 1q-64 6 -122.5 10.5t-107.5 4.5q-82 0 -129 -34t-58 -125h314q37 0 47.5 -9t10.5 -38v-129q0 -26 -11.5 -39t-46.5 -13h-322 q12 -104 59.5 -141t133.5 -37q45 0 118 4t142 13q35 4 45.5 0t16.5 -39l16 -103q8 -37 -0.5 -57.5t-56.5 -39.5q-64 -24 -157.5 -36.5t-170.5 -12.5q-162 0 -259.5 46.5t-149 122.5t-69 176t-17.5 210z" />
<glyph unicode="&#x455;" horiz-adv-x="1048" d="M84 131l23 103q6 31 19.5 37t49.5 0q76 -13 164 -20.5t144 -7.5q82 0 116 18t34 61q0 48 -25.5 64t-95.5 25q-88 12 -164 29.5t-133.5 52t-91.5 92.5t-34 152q0 86 34 150.5t91.5 107.5t138.5 65t175 22q37 0 81 -3.5t89 -8.5t86.5 -14t76.5 -22q43 -14 63.5 -30.5 t10.5 -57.5l-25 -109q-8 -31 -17.5 -37t-46.5 -2q-36 4 -79.5 9.5t-85.5 8.5t-78 5t-62 2q-82 2 -102.5 -18t-20.5 -54q0 -41 38 -53t95 -23q84 -10 160 -26.5t132.5 -53t91 -98t34.5 -162.5t-40 -168.5t-106.5 -108.5t-151.5 -59t-177 -18q-39 0 -84.5 3t-91.5 9.5t-88 15 t-73 19.5q-54 19 -69 39.5t-5 63.5z" />
<glyph unicode="&#x456;" horiz-adv-x="595" d="M127 1342q0 66 34 113t138 47q52 0 85 -12.5t52.5 -34t25.5 -50t6 -63.5q0 -31 -6 -59.5t-24.5 -51t-51.5 -37t-87 -14.5q-55 0 -90 14.5t-53 38t-23.5 51t-5.5 58.5zM131 47v968q0 25 9.5 36.5t37.5 11.5h237q28 0 35.5 -16.5t7.5 -31.5v-968q0 -17 -7.5 -32t-35.5 -15 h-237q-28 0 -37.5 13t-9.5 34z" />
<glyph unicode="&#x457;" horiz-adv-x="575" d="M-90 1327q0 62 30 104t126 42q99 0 129.5 -40t30.5 -106q0 -30 -5.5 -58t-22.5 -49.5t-48.5 -33.5t-83.5 -12q-53 0 -84 13t-47.5 33.5t-20.5 48.5t-4 58zM125 47v968q0 25 9.5 36.5t37.5 11.5h234q31 0 38.5 -16.5t7.5 -31.5v-968q0 -17 -7.5 -32t-38.5 -15h-234 q-28 0 -37.5 13t-9.5 34zM359 1327q0 62 31 104t127 42q100 0 129 -40t29 -106q0 -30 -5 -58t-22.5 -49.5t-48.5 -33.5t-82 -12q-52 0 -83.5 13t-47.5 33.5t-21.5 48.5t-5.5 58z" />
<glyph unicode="&#x458;" horiz-adv-x="627" d="M-146 -240q-4 32 3.5 39.5t37.5 13.5q78 17 128.5 31t81 36.5t44 58t13.5 96.5v980q0 48 49 48h234q31 0 38 -16.5t7 -31.5v-974q0 -144 -37.5 -242t-109.5 -156t-177.5 -80.5t-241.5 -18.5q-14 0 -33.5 8.5t-21.5 39.5zM158 1342q0 66 34 113t135 47q53 0 86.5 -12.5 t53 -34t26 -50t6.5 -63.5q0 -31 -6.5 -59.5t-26 -51t-53 -37t-86.5 -14.5q-56 0 -89 14.5t-51.5 38t-23.5 51t-5 58.5z" />
<glyph unicode="&#x459;" horiz-adv-x="1760" d="M15 170q0 24 7.5 35.5t39.5 22.5q41 10 71.5 24.5t51 38t33 61.5t18.5 100l52 462q10 88 49 118.5t137 30.5h580q26 0 32 -16.5t6 -33.5v-312h192q131 0 213.5 -34.5t128 -87t61.5 -116t16 -121.5q0 -86 -32 -149.5t-90.5 -106.5t-135.5 -64.5t-167 -21.5h-472 q-30 0 -40.5 10.5t-10.5 32.5v753h-179l-40 -409q-9 -86 -28.5 -161.5t-67.5 -131t-134.5 -89t-227.5 -33.5q-33 0 -41.5 11t-10.5 38zM1092 265h174q52 0 85.5 23.5t33.5 66.5q0 53 -31 75t-84 22h-178v-187z" />
<glyph unicode="&#x45a;" horiz-adv-x="1691" d="M103 41v979q0 24 9 33.5t36 9.5h246q30 0 37.5 -13.5t7.5 -29.5v-332h251v334q0 21 9 31t38 10h244q32 0 39.5 -12.5t7.5 -28.5v-325h191q131 0 214 -33.5t128 -85t61.5 -115t16.5 -121.5q0 -86 -32.5 -149.5t-90.5 -106.5t-135.5 -64.5t-167.5 -21.5h-476 q-30 0 -38.5 9.5t-8.5 31.5v398h-251v-398q0 -17 -8 -29t-37 -12h-246q-28 0 -36.5 9.5t-8.5 31.5zM1028 265h174q118 0 118 88q0 99 -114 99h-178v-187z" />
<glyph unicode="&#x45b;" horiz-adv-x="1210" d="M-10 1170v108q0 24 6 30t28 6h87v157q0 21 8 34t33 13h246q30 0 36.5 -15t6.5 -32v-157h376q24 0 30.5 -7.5t6.5 -28.5v-108q0 -19 -5.5 -28t-29.5 -9h-378v-219q64 36 151 66.5t169 30.5q121 0 190 -37.5t104 -99t44 -136.5t9 -151v-544q0 -17 -9 -30t-39 -13h-235 q-28 0 -37.5 10.5t-9.5 32.5v513q0 84 -30 122t-99 38q-49 0 -111 -22.5t-99 -39.5v-611q0 -17 -6.5 -30t-36.5 -13h-244q-26 0 -33.5 10.5t-7.5 32.5v1090h-87q-21 0 -27.5 7t-6.5 30z" />
<glyph unicode="&#x45c;" horiz-adv-x="1137" d="M103 45v972q0 19 10 32.5t35 13.5h248q30 0 36.5 -15.5t6.5 -30.5v-329h53q25 0 46 2t40 13t36.5 34.5t34.5 66.5l78 200q12 32 27.5 44t64.5 12h207q28 0 36.5 -16t0.5 -35l-74 -213q-39 -119 -83 -174.5t-106 -73.5v-6q76 -21 120 -73t80 -163l82 -255 q8 -16 -0.5 -33.5t-36.5 -17.5h-224q-47 0 -62 12t-28 44l-71 221q-30 86 -75 111t-93 25h-53v-368q0 -15 -6.5 -30t-36.5 -15h-248q-26 0 -35.5 13t-9.5 32zM420.5 1238.5q-5.5 11.5 5.5 31.5l200 371q12 24 28.5 25.5t31.5 -6.5l163 -92q46 -24 11 -64l-253 -326 q-11 -15 -23 -22t-32 3l-111 60q-15 8 -20.5 19.5z" />
<glyph unicode="&#x45e;" horiz-adv-x="1122" d="M30 1009q-21 54 34 54h231q31 0 44.5 -7t23.5 -39l101 -311l90 -295h12l26.5 79.5t33.5 98.5q19 56 39 121q24 69 49.5 154.5t48.5 152.5q9 25 22 35.5t52 10.5h214q37 0 41 -15.5t-6 -41.5l-512 -1376q-10 -30 -25.5 -39.5t-51.5 -9.5h-207q-33 0 -40 11.5t6 42.5 l146 393zM143.5 1458q-5.5 24 18.5 40l76 63q31 19 44 12t32 -32q35 -41 66 -69.5t61 -48t62.5 -28t72.5 -8.5q35 0 67 7.5t62 25.5t60.5 48t65.5 73q18 27 33.5 31t40.5 -13l78 -45q30 -19 22.5 -44t-24.5 -55q-64 -125 -169.5 -193.5t-235.5 -68.5q-59 0 -120.5 15.5 t-116.5 47t-100.5 79t-76.5 111.5q-13 28 -18.5 52z" />
<glyph unicode="&#x45f;" horiz-adv-x="1197" d="M103 49v964q0 24 9 37t38 13h244q30 0 37.5 -16.5t7.5 -33.5v-742h320v742q0 24 9.5 37t39.5 13h241q21 0 33 -9t12 -41v-964q0 -24 -8.5 -36.5t-38.5 -12.5h-279l-13 -275q-4 -43 -14 -53t-40 -10h-176q-37 0 -48 12t-13 42l-12 284h-302q-30 0 -38.5 13t-8.5 36z" />
<glyph unicode="&#x490;" horiz-adv-x="1128" d="M138 47v1336q0 19 10 33t37 14h613l35 228q4 30 14.5 37.5t28.5 7.5h184q17 0 25.5 -8.5t8.5 -36.5v-468q0 -19 -9.5 -34t-35.5 -15h-569v-1094q0 -17 -8 -32t-37 -15h-250q-29 0 -38 13t-9 34z" />
<glyph unicode="&#x491;" horiz-adv-x="991" d="M111 49v964q0 24 10 37t41 13h509q2 12 7.5 43t11 67t10 68t6.5 45q4 26 13.5 32.5t27.5 6.5h182q35 0 35 -39v-434q0 -31 -15.5 -40.5t-32.5 -9.5h-475v-753q0 -16 -7.5 -32.5t-37.5 -16.5h-234q-31 0 -41 13t-10 36z" />
<glyph unicode="&#x4d9;" horiz-adv-x="1147" d="M84 471q-2 67 23.5 103.5t95.5 36.5h521q-4 62 -20 101t-45 60.5t-71 28.5t-96 7q-49 0 -114.5 -5t-134.5 -15q-41 -5 -53 2.5t-20 44.5l-16 103q-4 38 2 57.5t53 38.5q33 11 75.5 21t89.5 16t93 9.5t85 3.5q162 0 262 -45.5t154 -119.5t72 -173t18 -204 q0 -78 -14 -175.5t-65.5 -182.5t-150.5 -143t-269 -58q-155 0 -247.5 45.5t-142.5 116t-66.5 156.5t-18.5 170zM419 417q2 -78 31.5 -130.5t113.5 -52.5q75 0 112.5 46.5t43.5 136.5h-301z" />
<glyph unicode="&#x2013;" horiz-adv-x="1075" d="M41 480v131q0 45 45 45h901q30 0 37.5 -11t7.5 -32v-133q0 -24 -7.5 -34.5t-35.5 -10.5h-903q-45 0 -45 45z" />
<glyph unicode="&#x2014;" horiz-adv-x="2150" d="M66 480v131q0 45 45 45h1930q29 0 36 -11t7 -32v-133q0 -24 -8 -34.5t-35 -10.5h-1932q-43 0 -43 45z" />
<glyph unicode="&#x2018;" horiz-adv-x="610" d="M119 1116q0 72 20.5 136t53.5 118t75 96t85 67q24 15 43 10.5t37 -21.5l55 -55q24 -26 21.5 -39t-29.5 -43q-39 -39 -56.5 -81t-17.5 -79q0 -71 50 -126q30 -30 31 -50.5t-35 -50.5l-142 -108q-33 -24 -54.5 -15t-46.5 32q-43 43 -66.5 101.5t-23.5 107.5z" />
<glyph unicode="&#x2019;" horiz-adv-x="610" d="M116 989q3 13 30 43q39 39 56 81t17 79q0 34 -13 66t-36 60q-30 30 -31 51.5t35 50.5l142 107q33 24 54.5 15t46.5 -32q43 -41 66.5 -99.5t23.5 -107.5q0 -71 -20.5 -136.5t-53.5 -119.5t-75 -96t-85 -67q-45 -24 -80 11l-55 57q-25 24 -22 37z" />
<glyph unicode="&#x201a;" horiz-adv-x="511" d="M37.5 -244.5q1.5 12.5 31.5 41.5q39 39 55 81t16 79q0 71 -50 127q-28 30 -30 52t37 49l139 108q33 24 55.5 15t48.5 -33q43 -43 66.5 -99.5t23.5 -106.5q0 -71 -20 -136.5t-54 -119t-76 -95.5t-85 -69q-47 -26 -78 11l-57 56q-24 27 -22.5 39.5z" />
<glyph unicode="&#x201c;" horiz-adv-x="1014" d="M109 1118q0 72 20.5 136t54 118t75.5 96t85 67q48 26 79 -10l57 -56q24 -26 22.5 -38.5t-31.5 -43.5q-38 -39 -54.5 -81t-16.5 -79q0 -69 47 -126q31 -30 33 -51.5t-37 -49.5l-140 -108q-32 -24 -54.5 -15t-48.5 32q-44 43 -67.5 101.5t-23.5 107.5zM523 1118 q0 72 20.5 136t53.5 118t75 96t85 67q47 26 80 -10l55 -56q25 -26 23.5 -38.5t-31.5 -43.5q-39 -39 -56 -81t-17 -79q0 -34 13 -66t36 -60q30 -30 32.5 -51.5t-36.5 -49.5l-140 -108q-32 -24 -55 -15t-48 32q-43 43 -66.5 101.5t-23.5 107.5z" />
<glyph unicode="&#x201d;" horiz-adv-x="1014" d="M116 991.5q3 12.5 30 42.5q39 39 56 81t17 79q0 34 -13 66.5t-36 59.5q-30 30 -31 51.5t35 50.5l142 107q33 24 54.5 15t46.5 -32q43 -43 66.5 -101.5t23.5 -107.5q0 -71 -20.5 -135t-53.5 -118.5t-75 -96.5t-85 -67q-45 -24 -80 11l-55 55q-25 27 -22 39.5zM527.5 991.5 q1.5 12.5 31.5 42.5q38 39 55.5 81t17.5 79q0 34 -12.5 66.5t-36.5 59.5q-31 30 -33 51.5t37 50.5l140 107q34 24 55.5 15t48.5 -32q43 -43 66.5 -101.5t23.5 -107.5q0 -71 -20.5 -135t-54 -118.5t-75.5 -96.5t-85 -67q-46 -24 -79 11l-57 55q-24 27 -22.5 39.5z" />
<glyph unicode="&#x201e;" horiz-adv-x="943" d="M37.5 -244.5q1.5 12.5 31.5 41.5q39 39 55 81t16 79q0 71 -50 127q-28 30 -30 52t37 49l139 108q33 24 55.5 15t48.5 -33q43 -43 66.5 -99.5t23.5 -106.5q0 -71 -20 -136.5t-54 -119t-76 -95.5t-85 -69q-47 -26 -78 11l-57 56q-24 27 -22.5 39.5zM473 -244.5 q3 12.5 30 41.5q39 39 56 81t17 79q0 71 -49 127q-30 30 -31 52t37 49l140 108q33 24 55.5 15t45.5 -33q43 -43 66.5 -99.5t23.5 -106.5q0 -71 -20.5 -136.5t-52.5 -119t-74 -95.5t-85 -69q-47 -24 -82 11l-55 56q-25 27 -22 39.5z" />
<glyph unicode="&#x2020;" horiz-adv-x="1126" d="M56 878v171q0 30 16 36.5t31 6.5h303v349q0 21 10 35t38 14h221q31 0 38 -16t7 -33v-349h308q15 0 31 -6.5t16 -36.5v-171q0 -29 -13 -38t-34 -9h-308v-882q0 -15 -7 -31.5t-38 -16.5h-221q-29 0 -38.5 11.5t-9.5 36.5v882h-303q-21 0 -34 9t-13 38z" />
<glyph unicode="&#x2021;" horiz-adv-x="1126" d="M56 344v173q0 30 16 37.5t31 7.5h303v269h-303q-21 0 -34 9t-13 36v173q0 30 16 36.5t31 6.5h303v353q0 19 10 32t36 13h221q31 0 38 -14.5t7 -32.5v-351h310q15 0 31 -6.5t16 -36.5v-173q0 -27 -14 -36t-35 -9h-308v-269h308q17 0 33 -8t16 -37v-173q0 -28 -14 -36.5 t-33 -8.5h-310v-353q0 -12 -6 -28.5t-37 -16.5h-221q-29 0 -38.5 12.5t-9.5 32.5v353h-303q-21 0 -34 8.5t-13 36.5z" />
<glyph unicode="&#x2022;" horiz-adv-x="846" d="M125 607q0 64 23.5 119.5t63.5 97.5t94.5 66t116.5 24t117 -24t96 -66t64.5 -97.5t23.5 -119.5t-23.5 -120.5t-64.5 -97t-96 -64.5t-117 -24t-116.5 24t-94.5 64.5t-63.5 96.5t-23.5 121z" />
<glyph unicode="&#x2026;" horiz-adv-x="1612" d="M74 142q0 34 7 63t26.5 50.5t53.5 34.5t87 13t86.5 -12t52.5 -33.5t25.5 -51.5t6.5 -64q0 -31 -6.5 -61t-25.5 -52.5t-52.5 -36t-86.5 -13.5q-58 0 -92.5 13.5t-53 37.5t-23.5 52.5t-5 59.5zM632 142q0 69 34.5 115t137.5 46q54 0 87.5 -12t53 -33.5t25.5 -51.5t6 -64 q0 -31 -6 -61t-25.5 -52.5t-53 -36t-87.5 -13.5q-57 0 -91 13.5t-52 37.5t-23.5 52.5t-5.5 59.5zM1194 142q0 69 34 115t137 46q105 0 139.5 -45t34.5 -116q0 -31 -6 -61t-25.5 -52.5t-53.5 -36t-89 -13.5q-56 0 -90 13.5t-52.5 37.5t-23.5 52.5t-5 59.5z" />
<glyph unicode="&#x2030;" horiz-adv-x="2941" d="M58 991q0 31 4 78t17 98.5t39 103.5t71 92.5t110.5 66t158.5 25.5q137 0 219 -43.5t124 -112.5t54.5 -150.5t12.5 -157.5q0 -64 -10.5 -149t-51.5 -161.5t-123.5 -129t-224.5 -52.5t-221 50.5t-119 125t-50 160.5t-10 156zM331 976q0 -51 4.5 -97t18.5 -81t38.5 -55.5 t65.5 -20.5q86 0 112.5 70t26.5 184q0 123 -24.5 190t-114.5 67q-39 0 -63.5 -19.5t-38.5 -54t-19.5 -82t-5.5 -101.5zM613 -17l593 1494q7 15 13 22t22 7h189q28 0 17 -33l-591 -1497q-11 -26 -33 -25h-189q-32 0 -21 32zM1186 478q0 32 5 79t17.5 99t38.5 103.5t71 92 t110.5 66.5t158.5 26q137 0 219 -44t124 -113t55 -152t13 -157q0 -62 -11 -147.5t-52 -162t-124 -129t-224 -52.5q-142 0 -221.5 50.5t-119.5 124.5t-50 159t-10 157zM1461 464q0 -51 4 -97.5t17.5 -80.5t39 -54.5t65.5 -20.5q86 0 113 70t27 183q0 123 -26 189.5t-114 66.5 q-41 0 -66 -19.5t-38.5 -53.5t-17.5 -81t-4 -102zM2071 478q0 32 4 79t17 99t39 103.5t71 92t110.5 66.5t158.5 26q137 0 219 -44t124 -113t54.5 -152t12.5 -157q0 -62 -10.5 -147.5t-51.5 -162t-124 -129t-224 -52.5q-142 0 -222 50.5t-119 124.5t-49 159t-10 157z M2344 464q0 -51 4.5 -97.5t18 -80.5t38.5 -54.5t66 -20.5q86 0 112.5 70t26.5 183q0 123 -25.5 189.5t-113.5 66.5q-41 0 -66 -19.5t-38.5 -53.5t-18 -81t-4.5 -102z" />
<glyph unicode="&#x2039;" horiz-adv-x="737" d="M71 434q0 18 19 40l230 285q11 13 27 26t38 13h251q21 0 26 -11t-4 -22l-273 -335l267 -333q6 -9 6 -23t-18 -14h-257q-21 0 -36.5 14t-26.5 27l-230 291q-19 24 -19 42z" />
<glyph unicode="&#x203a;" horiz-adv-x="737" d="M75.5 787q4.5 11 25.5 11h250q24 0 39.5 -13t26.5 -26l230 -285q17 -21 18.5 -40t-18.5 -42l-232 -291q-11 -13 -25 -27t-35 -14h-258q-17 0 -17 14t6 23l267 333l-273 335q-9 11 -4.5 22z" />
<glyph unicode="&#x2044;" horiz-adv-x="380" d="M-217 -17l593 1494q6 15 13 22t22 7h189q28 0 17 -33l-591 -1497q-10 -26 -32 -25h-189q-33 0 -22 32z" />
<glyph unicode="&#x20ac;" d="M45 542v92q0 37 43 37h886q27 0 34 -7.5t7 -29.5v-92q0 -21 -6.5 -30t-32.5 -9h-412q17 -103 80.5 -162.5t188.5 -59.5q45 0 77 1.5t64 4.5t68.5 6.5t88.5 9.5q35 5 51 -4t24 -41l29 -112q10 -41 -6 -62.5t-49 -34.5q-82 -36 -179.5 -53t-198.5 -17q-154 0 -263 41.5 t-180 114t-110.5 168t-55.5 200.5h-105q-24 0 -33.5 8t-9.5 31zM45 790v92q0 39 43 39h105q17 105 56 199.5t109 166.5t178.5 115t263.5 43q101 0 195.5 -13.5t180.5 -50.5q33 -15 49 -33.5t8 -59.5l-27 -125q-6 -30 -23 -38.5t-52 -4.5q-69 9 -148.5 14t-147.5 5 q-123 0 -184.5 -57.5t-82.5 -160.5h406q29 0 35 -8t6 -31v-92q0 -21 -6.5 -30t-32.5 -9h-888q-43 0 -43 39z" />
<glyph unicode="&#x2122;" horiz-adv-x="1560" d="M56 1286v109q0 29 26 29h552q29 0 29 -29v-109q0 -32 -31 -32h-174v-476q0 -30 -32 -29h-138q-33 0 -32 29v476h-170q-30 0 -30 32zM718 778v620q0 28 31 28h141q17 0 25 -8t16 -20l168 -299h2q-2 0 25 46.5t58 101.5q39 67 84 151q9 12 17 20t24 8h138q28 0 28 -28v-620 q0 -30 -28 -29h-140q-30 0 -29 29v318h-5l-32 -62l-82 -144q-17 -26 -41 -26h-45q-17 0 -24.5 6t-14.5 16l-70 138l-39 72q-2 0 -2 1.5t-2 1.5v-321q0 -30 -31 -29h-141q-31 0 -31 29z" />
<glyph unicode="&#x2202;" horiz-adv-x="1266" d="M71 490q0 117 34.5 210.5t95.5 159t145 100.5t185 35q33 0 70 -5t75 -18t75 -33.5t64 -48.5q-4 56 -27 124t-79.5 131.5t-153.5 116t-247 80.5q-39 8 -61.5 15.5t-12.5 46.5l24 116q4 31 17 41.5t63 4.5q203 -17 348 -89.5t237 -184.5t136.5 -250.5t44.5 -286.5 q0 -191 -42 -336.5t-117 -242t-175.5 -146t-219.5 -49.5q-103 0 -190 32t-151.5 96.5t-101 159t-36.5 221.5zM376 495q0 -136 55 -196.5t128 -60.5q57 0 102 38t76 96t48 130t19 141q-71 62 -136.5 84t-108.5 22q-84 0 -133.5 -74.5t-49.5 -179.5z" />
<glyph unicode="&#x220f;" horiz-adv-x="1393" d="M146 -111v1492q0 21 10 35t35 14h1013q29 0 36 -16t7 -33v-1492q0 -17 -7 -34t-36 -17h-250q-28 0 -37.5 14.5t-9.5 36.5v1252h-421v-1252q0 -17 -7.5 -34t-37.5 -17h-250q-26 0 -35.5 14.5t-9.5 36.5z" />
<glyph unicode="&#x2211;" horiz-adv-x="1137" d="M80 1235v137q0 21 12.5 37.5t36.5 16.5h873q30 0 38.5 -13t8.5 -34v-197q0 -19 -8.5 -32t-38.5 -13h-546l273 -431q21 -31 22 -54q0 -26 -20 -59l-269 -468h574q31 0 39.5 -12t8.5 -31v-193q0 -24 -8.5 -36.5t-39.5 -12.5h-901q-45 0 -45 49v126q0 28 3.5 58t27.5 73 l281 503l-277 455q-17 26 -31 57t-14 74z" />
<glyph unicode="&#x221a;" horiz-adv-x="1326" d="M37 791.5q4 16.5 34 27.5q89 30 173.5 63.5t172.5 63.5q28 11 39.5 2.5t23.5 -37.5l204 -517q75 314 146 623.5t142 623.5q9 31 23 42.5t50 11.5h209q36 0 36 -22q0 -5 -4 -26l-426 -1750q-6 -30 -21.5 -43.5t-50.5 -13.5h-154q-30 0 -46 16.5t-24 34.5l-287 729 l-115 -44q-45 -18 -68 33l-51 142q-10 24 -6 40.5z" />
<glyph unicode="&#x221e;" horiz-adv-x="1644" d="M92 595q0 74 28 141.5t78 117t118 80t152 30.5q52 0 102 -16.5t95 -42t86 -58t72 -65.5q72 80 156 131t207 51q80 0 148 -27.5t116 -76.5t76.5 -117t28.5 -148q0 -75 -28.5 -141.5t-78.5 -118t-121 -81.5t-157 -30q-52 0 -100 16t-91 43t-82 60t-74 68 q-77 -82 -159.5 -134.5t-203.5 -52.5q-78 0 -145 27.5t-117 77t-78 117t-28 149.5zM353 595q0 -59 34 -101t84 -42q56 0 108.5 40.5t89.5 98.5q-37 56 -87.5 100t-105.5 44q-50 0 -86.5 -40.5t-36.5 -99.5zM976 593q41 -57 93.5 -99t104.5 -42q49 0 85 42t36 101 q0 60 -36 100t-85 40q-52 0 -104.5 -43t-93.5 -99z" />
<glyph unicode="&#x222b;" horiz-adv-x="1044" d="M24 -228l21 109q4 27 12.5 31t32.5 2q27 -4 59 -6t48 -2q35 0 64 12.5t53 44t39 84t19 134.5q4 103 8.5 297.5t9.5 487.5q0 111 11.5 234t50 224t116 167.5t210.5 66.5q35 0 92 -5.5t109 -22.5q24 -7 33.5 -14t0.5 -44l-22 -103q-6 -31 -15.5 -34t-35.5 -1 q-29 4 -55.5 5.5t-43.5 1.5q-35 0 -66 -14t-54.5 -46.5t-38.5 -86t-19 -135.5q-3 -39 -4 -105.5t-2 -146.5t-2 -162t-2 -155t-2.5 -130.5t-3.5 -81.5q-4 -119 -14.5 -242t-49.5 -224t-115 -165.5t-212 -64.5q-34 0 -82.5 5t-113.5 23q-24 9 -33.5 21.5t-2.5 40.5z" />
<glyph unicode="&#x2248;" d="M150 402.5q-10 12.5 0 30.5q56 133 140 184.5t166 51.5q53 0 109.5 -16.5t111 -36t102.5 -35t85 -15.5t62.5 19t54.5 60q10 17 21 22.5t34 -11.5l89 -52q18 -13 24 -22.5t-2 -27.5q-60 -135 -137 -181t-169 -46q-41 0 -93.5 17t-105.5 38.5t-103.5 39t-89.5 17.5 q-36 0 -65 -19.5t-72 -68.5q-13 -17 -20.5 -24t-35.5 11l-86 47q-10 5 -20 17.5zM150 780q-10 12 0 28q56 136 140 186.5t166 50.5q53 0 109.5 -16t111 -36.5t102.5 -36.5t85 -16t62.5 21.5t54.5 60.5q10 16 21 20.5t34 -10.5l89 -51q18 -13 24 -23t-2 -27 q-60 -135 -137 -181t-169 -46q-41 0 -93.5 16.5t-105.5 37t-103.5 38t-89.5 17.5q-36 0 -65 -18.5t-72 -70.5q-13 -12 -20.5 -19.5t-35.5 9.5l-86 49q-10 5 -20 17z" />
<glyph unicode="&#x2260;" d="M154 421v153q0 46 46 46h249l105 152h-354q-46 0 -46 45v153q0 45 46 45h516l103 151q19 26 34 38.5t48 12.5h159q33 0 36 -18.5t-14 -45.5l-93 -138h97q28 0 36.5 -11t8.5 -32v-155q0 -24 -8.5 -34.5t-36.5 -10.5h-263l-103 -152h366q28 0 36.5 -11.5t8.5 -32.5v-155 q0 -24 -8.5 -34.5t-36.5 -10.5h-532l-100 -148q-15 -21 -32.5 -33t-45.5 -12h-152q-31 0 -38.5 17t9.5 40l93 136h-88q-46 0 -46 45z" />
<glyph unicode="&#x2264;" d="M162 54v146q0 20 7 30t34 10h889q43 0 43 -43v-143q0 -46 -43 -46h-889q-27 0 -34 11t-7 35zM178 688v151q0 21 7.5 31t23.5 16l873 333q24 6 30 -2t6 -21v-207q0 -24 -8.5 -34.5t-25.5 -16.5l-508 -168v-9l510 -176q16 -4 25 -15t9 -34v-218q0 -17 -12 -21t-26 2 l-871 337q-10 4 -21.5 15.5t-11.5 36.5z" />
<glyph unicode="&#x2265;" d="M164 54v143q0 43 43 43h889q26 0 33.5 -9t7.5 -31v-146q0 -25 -8.5 -35.5t-32.5 -10.5h-889q-43 0 -43 46zM176 318v218q0 24 9.5 34.5t25.5 14.5l509 176v9l-507 168q-15 6 -25 17t-10 34v207q0 13 7.5 21t29.5 2l873 -333q14 -6 23 -16t9 -31v-151q0 -26 -12 -37 t-22 -15l-871 -337q-14 -6 -26.5 -2t-12.5 21z" />
<glyph unicode="&#x25ca;" horiz-adv-x="1139" d="M82 684l376 724h176l370 -724l-372 -723h-176q-9 17 -37.5 73t-67.5 130t-82 157t-82 157t-68 130.5t-37 75.5zM331 686q8 -21 40.5 -83.5t69.5 -133.5t68 -134.5t39 -82.5q11 21 42.5 82.5t65.5 132.5t64.5 133.5t40.5 83.5l-217 434q-11 -21 -40.5 -83.5t-65.5 -132 t-67 -132t-40 -84.5z" />
<glyph unicode="&#x25fc;" horiz-adv-x="1063" d="M0 0v1065h1065v-1065h-1065z" />
</font>
</defs>
</svg>
